{"glyphs":{"0":{"ha":833,"x_min":76,"x_max":757,"o":"m 417 -21 q 163 108 249 -21 q 76 481 76 238 q 163 854 76 725 q 417 983 249 983 q 671 854 585 983 q 757 482 757 725 q 671 108 757 238 q 417 -21 585 -21 m 197 481 q 231 229 197 322 l 549 826 q 417 879 499 879 q 251 781 304 879 q 197 481 197 683 m 417 83 q 583 181 529 83 q 636 482 636 279 q 603 732 636 638 l 285 135 q 417 83 335 83 z "},"1":{"ha":833,"x_min":129,"x_max":732,"o":"m 129 106 l 374 106 l 374 835 l 138 742 l 138 840 l 382 963 l 499 963 l 499 106 l 732 106 l 732 0 l 129 0 l 129 106 z "},"2":{"ha":833,"x_min":107,"x_max":742,"o":"m 107 0 l 107 100 q 335 340 246 243 q 476 507 425 438 q 547 625 528 576 q 567 718 567 674 q 523 832 567 790 q 403 874 479 874 q 273 847 342 874 q 133 769 204 821 l 133 878 q 269 958 200 933 q 419 983 339 983 q 533 965 482 983 q 622 913 585 946 q 678 832 658 879 q 697 726 697 785 q 677 615 697 671 q 606 488 657 558 q 468 324 554 417 q 251 106 382 232 l 742 106 l 742 0 l 107 0 z "},"3":{"ha":833,"x_min":99,"x_max":714,"o":"m 379 547 q 397 549 389 549 q 417 549 406 549 q 540 529 485 549 q 633 474 594 510 q 693 388 672 439 q 714 275 714 338 q 689 152 714 207 q 617 59 664 97 q 503 0 569 21 q 357 -21 438 -21 q 99 35 226 -21 l 99 136 q 243 97 183 108 q 358 86 303 86 q 528 135 469 86 q 586 275 586 183 q 365 451 586 451 q 301 450 338 451 q 233 446 264 449 l 233 529 l 533 858 l 113 858 l 113 963 l 674 963 l 674 861 l 379 547 z "},"4":{"ha":833,"x_min":88,"x_max":772,"o":"m 88 308 l 410 963 l 539 963 l 206 310 l 521 310 l 521 575 l 636 575 l 636 310 l 772 310 l 772 210 l 636 210 l 636 0 l 521 0 l 521 210 l 88 210 l 88 308 z "},"5":{"ha":833,"x_min":107,"x_max":725,"o":"m 107 136 q 249 98 186 110 q 369 86 313 86 q 538 135 479 86 q 597 279 597 185 q 542 430 597 383 q 361 476 488 476 q 265 473 321 476 q 149 463 208 469 l 149 547 l 176 963 l 675 963 l 675 858 l 282 858 l 264 565 q 335 576 299 572 q 404 579 371 579 q 640 501 556 579 q 725 281 725 422 q 699 157 725 213 q 627 62 674 101 q 515 1 581 22 q 369 -21 449 -21 q 107 35 229 -21 l 107 136 z "},"6":{"ha":833,"x_min":85,"x_max":753,"o":"m 490 878 q 210 497 218 878 q 330 558 265 536 q 460 579 394 579 q 579 558 525 579 q 672 500 633 538 q 731 410 710 463 q 753 294 753 358 q 730 164 753 222 q 665 65 707 106 q 564 1 624 24 q 432 -21 504 -21 q 85 451 85 -21 q 111 676 85 578 q 188 843 138 775 q 310 947 238 911 q 475 983 382 983 q 588 972 531 983 q 689 938 644 960 l 689 840 q 588 868 640 858 q 490 878 535 878 m 429 476 q 319 459 376 476 q 210 411 261 442 q 436 83 217 83 q 578 136 529 83 q 628 288 628 189 q 576 427 628 378 q 429 476 525 476 z "},"7":{"ha":833,"x_min":86,"x_max":732,"o":"m 215 0 l 604 858 l 86 858 l 86 963 l 732 963 l 732 861 l 349 0 l 215 0 z "},"8":{"ha":833,"x_min":81,"x_max":753,"o":"m 715 728 q 673 588 715 650 q 553 486 631 525 q 706 382 660 438 q 753 247 753 326 q 729 136 753 186 q 661 51 706 86 q 553 -2 617 17 q 413 -21 490 -21 q 274 -3 336 -21 q 169 49 213 15 q 103 130 126 82 q 81 238 81 178 q 129 391 81 324 q 271 501 178 458 q 155 593 192 540 q 118 721 118 646 q 140 828 118 781 q 200 911 161 876 q 294 965 239 946 q 417 983 350 983 q 538 965 483 983 q 633 913 593 946 q 694 832 672 879 q 715 728 715 785 m 353 465 q 201 258 201 382 q 257 126 201 172 q 417 81 313 81 q 576 124 519 81 q 632 249 632 168 q 623 301 632 278 q 592 344 614 324 q 533 385 569 365 q 442 428 497 406 l 353 465 m 236 726 q 274 626 236 668 q 396 550 311 585 l 474 519 q 597 715 597 599 q 550 843 597 799 q 415 888 503 888 q 283 845 329 888 q 236 726 236 803 z "},"9":{"ha":833,"x_min":85,"x_max":744,"o":"m 122 135 q 231 97 176 110 q 332 83 285 83 q 540 167 471 83 q 618 433 610 251 q 506 378 569 397 q 376 358 443 358 q 163 439 240 358 q 85 661 85 519 q 108 792 85 732 q 172 894 131 851 q 272 960 214 936 q 401 983 331 983 q 657 866 569 983 q 744 521 744 749 q 643 118 744 257 q 350 -21 542 -21 q 226 -6 285 -21 q 122 38 167 10 l 122 135 m 404 461 q 517 476 461 461 q 619 519 574 492 l 619 542 q 399 878 615 878 q 261 821 313 878 q 210 668 210 764 q 404 461 210 461 z "},"\u0000":{"ha":833,"x_min":0,"x_max":0,"o":""},"\r":{"ha":833,"x_min":0,"x_max":0,"o":""}," ":{"ha":833,"x_min":0,"x_max":0,"o":""},".":{"ha":833,"x_min":306,"x_max":528,"o":"m 417 -19 q 336 11 367 -19 q 306 92 306 42 q 336 171 306 140 q 417 201 367 201 q 497 171 467 201 q 528 92 528 140 q 497 11 528 42 q 417 -19 467 -19 z "},":":{"ha":833,"x_min":306,"x_max":528,"o":"m 417 497 q 336 528 367 497 q 306 608 306 558 q 336 688 306 657 q 417 718 367 718 q 497 688 467 718 q 528 608 528 657 q 497 528 528 558 q 417 497 467 497 m 417 -14 q 336 17 367 -14 q 306 97 306 47 q 336 176 306 146 q 417 207 367 207 q 497 176 467 207 q 528 97 528 146 q 497 17 528 47 q 417 -14 467 -14 z "},",":{"ha":833,"x_min":204,"x_max":506,"o":"m 363 200 l 426 200 q 488 186 471 200 q 506 144 506 172 q 487 74 506 113 q 438 -11 468 35 l 303 -217 l 204 -217 l 363 200 z "},";":{"ha":833,"x_min":204,"x_max":528,"o":"m 363 200 l 426 200 q 488 186 471 200 q 506 144 506 172 q 487 74 506 113 q 438 -11 468 35 l 303 -217 l 204 -217 l 363 200 m 417 497 q 336 528 367 497 q 306 608 306 558 q 336 688 306 657 q 417 718 367 718 q 497 688 467 718 q 528 608 528 657 q 497 528 528 558 q 417 497 467 497 z "},"?":{"ha":833,"x_min":99,"x_max":735,"o":"m 421 983 q 653 922 572 983 q 735 747 735 860 q 717 650 735 693 q 663 572 700 607 q 567 507 625 536 q 425 451 508 478 l 425 285 l 321 285 l 308 504 l 365 525 q 483 574 436 550 q 559 624 531 599 q 599 680 588 650 q 611 747 611 710 q 558 846 611 814 q 414 878 504 878 q 240 847 321 878 q 99 781 158 817 l 99 881 q 153 916 119 897 q 228 949 186 935 q 318 974 269 964 q 421 983 367 983 m 376 -12 q 306 14 332 -12 q 279 85 279 40 q 306 156 279 129 q 376 182 332 182 q 444 156 418 182 q 471 85 471 129 q 444 14 471 40 q 376 -12 418 -12 z "},"!":{"ha":833,"x_min":321,"x_max":513,"o":"m 418 -12 q 347 14 374 -12 q 321 85 321 40 q 347 156 321 129 q 418 182 374 182 q 486 156 460 182 q 513 85 513 129 q 486 14 513 40 q 418 -12 460 -12 m 363 285 l 336 963 q 373 975 356 971 q 414 979 390 979 q 455 975 438 979 q 492 963 472 971 l 465 285 l 363 285 z "},"¿":{"ha":833,"x_min":99,"x_max":735,"o":"m 413 -281 q 180 -219 261 -281 q 99 -44 99 -157 q 116 52 99 10 q 171 130 133 94 q 267 195 208 165 q 408 251 325 225 l 408 418 l 513 418 l 525 199 l 468 178 q 350 128 397 153 q 274 78 303 104 q 234 23 246 53 q 222 -44 222 -7 q 276 -143 222 -111 q 419 -175 329 -175 q 594 -144 513 -175 q 735 -78 675 -114 l 735 -178 q 681 -213 714 -194 q 606 -247 647 -232 q 515 -271 564 -261 q 413 -281 467 -281 m 457 715 q 528 689 501 715 q 554 618 554 663 q 528 547 554 574 q 457 521 501 521 q 389 547 415 521 q 363 618 363 574 q 389 689 363 663 q 457 715 415 715 z "},"¡":{"ha":833,"x_min":321,"x_max":513,"o":"m 415 715 q 486 689 460 715 q 513 618 513 663 q 486 547 513 574 q 415 521 460 521 q 347 547 374 521 q 321 618 321 574 q 347 689 321 663 q 415 715 374 715 m 471 418 l 497 -260 q 460 -272 478 -268 q 419 -276 443 -276 q 378 -272 396 -276 q 342 -260 361 -268 l 368 418 l 471 418 z "},"‽":{"ha":833,"x_min":99,"x_max":735,"o":"m 450 551 q 576 642 542 594 q 611 747 611 690 q 558 846 611 814 q 414 878 504 878 q 240 847 321 878 q 99 781 158 817 l 99 881 q 153 916 119 897 q 228 949 186 935 q 318 974 269 964 q 421 983 367 983 q 653 922 572 983 q 735 747 735 860 q 669 581 735 651 q 447 463 603 511 l 440 285 l 343 285 l 325 749 q 358 758 340 756 q 392 761 376 761 q 458 749 426 761 l 450 551 m 400 -12 q 329 14 356 -12 q 303 85 303 40 q 329 156 303 129 q 400 182 356 182 q 468 156 442 182 q 494 85 494 129 q 468 14 494 40 q 400 -12 442 -12 z "},"'":{"ha":833,"x_min":339,"x_max":494,"o":"m 367 588 l 339 956 q 374 972 353 967 q 417 976 394 976 q 460 972 439 976 q 494 956 481 967 l 467 588 l 367 588 z "},"\"":{"ha":833,"x_min":182,"x_max":651,"o":"m 210 588 l 182 956 q 217 972 196 967 q 260 976 238 976 q 303 972 282 976 q 338 956 324 967 l 310 588 l 210 588 m 524 588 l 496 956 q 531 972 510 967 q 574 976 551 976 q 617 972 596 976 q 651 956 638 967 l 624 588 l 524 588 z "},"…":{"ha":833,"x_min":42,"x_max":792,"o":"m 417 -14 q 351 12 376 -14 q 326 78 326 38 q 351 144 326 118 q 417 169 376 169 q 482 144 457 169 q 507 78 507 118 q 482 12 507 38 q 417 -14 457 -14 m 701 -14 q 636 12 661 -14 q 611 78 611 38 q 636 144 611 118 q 701 169 661 169 q 767 144 742 169 q 792 78 792 118 q 767 12 792 38 q 701 -14 742 -14 m 132 -14 q 67 12 92 -14 q 42 78 42 38 q 67 144 42 118 q 132 169 92 169 q 197 144 172 169 q 222 78 222 118 q 197 12 222 38 q 132 -14 172 -14 z "}," ":{"ha":833,"x_min":0,"x_max":0,"o":""}," ":{"ha":833,"x_min":0,"x_max":0,"o":""}," ":{"ha":833,"x_min":0,"x_max":0,"o":""}," ":{"ha":833,"x_min":0,"x_max":0,"o":""}," ":{"ha":833,"x_min":0,"x_max":0,"o":""}," ":{"ha":833,"x_min":0,"x_max":0,"o":""}," ":{"ha":833,"x_min":0,"x_max":0,"o":""}," ":{"ha":833,"x_min":0,"x_max":0,"o":""}," ":{"ha":833,"x_min":0,"x_max":0,"o":""}," ":{"ha":833,"x_min":0,"x_max":0,"o":""}," ":{"ha":833,"x_min":0,"x_max":0,"o":""}," ":{"ha":833,"x_min":0,"x_max":0,"o":""},"​":{"ha":833,"x_min":0,"x_max":0,"o":""},"₀":{"ha":833,"x_min":181,"x_max":653,"o":"m 417 -156 q 241 -82 301 -156 q 181 125 181 -8 q 242 335 181 263 q 417 407 304 407 q 592 333 531 407 q 653 126 653 260 q 591 -83 653 -11 q 417 -156 529 -156 m 417 -72 q 516 -24 485 -72 q 547 124 547 25 q 516 274 547 226 q 417 322 485 322 q 317 274 349 322 q 286 126 286 226 q 317 -24 286 25 q 417 -72 349 -72 z "},"₁":{"ha":833,"x_min":214,"x_max":651,"o":"m 389 -62 l 389 294 l 219 239 l 219 319 l 401 396 l 492 396 l 492 -62 l 651 -62 l 651 -144 l 214 -144 l 214 -62 l 389 -62 z "},"₂":{"ha":833,"x_min":217,"x_max":617,"o":"m 217 -144 l 217 -69 q 350 49 297 0 q 434 134 403 99 q 477 196 465 169 q 489 246 489 222 q 465 301 489 282 q 399 321 440 321 q 320 306 363 321 q 231 263 278 290 l 231 346 q 321 392 275 376 q 419 407 367 407 q 548 366 500 407 q 596 257 596 325 q 584 198 596 228 q 542 131 572 168 q 462 48 513 94 q 335 -62 411 1 l 617 -62 l 617 -144 l 217 -144 z "},"₃":{"ha":833,"x_min":224,"x_max":622,"o":"m 392 -156 q 301 -149 342 -156 q 224 -125 260 -142 l 224 -49 q 308 -69 269 -64 q 390 -75 347 -75 q 487 -52 453 -75 q 521 15 521 -29 q 491 77 521 57 q 396 97 461 97 q 348 97 372 97 q 301 93 324 96 l 301 149 l 476 315 l 226 315 l 226 396 l 589 396 l 589 322 l 426 167 l 443 167 q 575 126 528 167 q 622 15 622 86 q 561 -110 622 -64 q 392 -156 500 -156 z "},"₄":{"ha":833,"x_min":186,"x_max":653,"o":"m 496 396 l 281 43 l 483 43 l 483 194 l 575 194 l 575 43 l 653 43 l 653 -33 l 575 -33 l 575 -144 l 483 -144 l 483 -33 l 186 -33 l 186 42 l 399 396 l 496 396 z "},"₅":{"ha":833,"x_min":228,"x_max":626,"o":"m 254 156 l 268 396 l 592 396 l 592 315 l 346 315 l 339 174 q 379 178 360 176 q 424 181 399 181 q 573 138 519 181 q 626 18 626 96 q 565 -109 626 -62 q 394 -156 504 -156 q 305 -149 346 -156 q 228 -125 264 -142 l 228 -49 q 312 -69 274 -64 q 393 -75 350 -75 q 525 18 525 -75 q 494 87 525 67 q 390 107 464 107 q 322 103 360 107 q 254 96 285 100 l 254 156 z "},"₆":{"ha":833,"x_min":201,"x_max":639,"o":"m 464 326 q 341 283 382 326 q 297 147 300 239 q 375 178 336 167 q 451 189 414 189 q 588 144 536 189 q 639 25 639 99 q 624 -49 639 -15 q 581 -106 608 -82 q 515 -142 553 -129 q 431 -156 476 -156 q 260 -88 318 -156 q 201 110 201 -21 q 268 330 201 253 q 457 407 335 407 q 529 399 494 407 q 596 378 564 392 l 596 304 q 464 326 529 326 m 432 111 q 300 76 363 111 q 432 -76 304 -76 q 512 -51 483 -76 q 540 21 540 -25 q 513 88 540 64 q 432 111 485 111 z "},"₇":{"ha":833,"x_min":210,"x_max":633,"o":"m 285 -144 l 528 313 l 210 313 l 210 396 l 633 396 l 633 319 l 390 -144 l 285 -144 z "},"₈":{"ha":833,"x_min":200,"x_max":633,"o":"m 200 -8 q 226 66 200 31 q 310 125 251 101 q 239 187 256 153 q 222 254 222 221 q 276 365 222 324 q 418 407 329 407 q 557 367 504 407 q 610 260 610 326 q 585 191 610 222 q 508 139 560 160 q 572 108 547 125 q 610 74 596 92 q 628 36 624 56 q 633 -1 633 17 q 575 -114 633 -72 q 415 -156 517 -156 q 258 -116 317 -156 q 200 -8 200 -76 m 376 100 q 312 56 331 81 q 293 6 293 31 q 326 -58 293 -36 q 418 -81 360 -81 q 508 -59 475 -81 q 540 0 540 -37 q 522 45 540 25 q 444 82 504 65 l 376 100 m 314 261 q 332 206 314 228 q 396 172 350 185 l 442 160 q 501 206 483 181 q 518 260 518 232 q 492 312 518 292 q 418 332 467 332 q 342 313 371 332 q 314 261 314 293 z "},"₉":{"ha":833,"x_min":197,"x_max":629,"o":"m 228 -47 q 302 -70 268 -64 q 372 -76 336 -76 q 531 90 525 -76 q 460 63 497 72 q 383 53 422 53 q 247 97 297 53 q 197 219 197 142 q 213 294 197 260 q 257 354 229 329 q 324 393 285 379 q 408 407 363 407 q 572 338 514 407 q 629 139 629 269 q 565 -79 629 -3 q 382 -156 500 -156 q 228 -122 300 -156 l 228 -47 m 404 128 q 469 135 439 128 q 532 160 499 143 l 532 168 q 501 286 532 246 q 407 326 469 326 q 324 299 354 326 q 294 224 294 272 q 404 128 294 128 z "},"₊":{"ha":833,"x_min":221,"x_max":613,"o":"m 374 -71 l 374 86 l 221 86 l 221 165 l 374 165 l 374 322 l 460 322 l 460 165 l 613 165 l 613 86 l 460 86 l 460 -71 l 374 -71 z "},"₋":{"ha":833,"x_min":221,"x_max":613,"o":"m 221 85 l 221 167 l 613 167 l 613 85 l 221 85 z "},"₌":{"ha":833,"x_min":221,"x_max":613,"o":"m 221 183 l 221 265 l 613 265 l 613 183 l 221 183 m 221 -14 l 221 68 l 613 68 l 613 -14 l 221 -14 z "},"₍":{"ha":833,"x_min":283,"x_max":551,"o":"m 385 126 q 398 28 385 78 q 434 -69 411 -22 q 488 -156 457 -115 q 551 -224 518 -196 l 453 -224 q 384 -155 415 -194 q 331 -69 353 -115 q 296 26 308 -24 q 283 126 283 76 q 296 226 283 176 q 331 321 308 275 q 384 406 353 367 q 453 475 415 446 l 551 475 q 488 407 518 447 q 434 320 457 367 q 398 224 411 274 q 385 126 385 174 z "},"₎":{"ha":833,"x_min":282,"x_max":550,"o":"m 449 125 q 435 223 449 172 q 398 320 421 274 q 345 407 375 367 q 282 475 315 447 l 381 475 q 449 406 418 446 q 503 321 481 367 q 538 225 525 275 q 550 125 550 175 q 538 26 550 75 q 503 -69 525 -24 q 449 -155 481 -115 q 381 -224 418 -194 l 282 -224 q 345 -156 315 -196 q 398 -69 375 -115 q 435 27 421 -22 q 449 125 449 76 z "},"⁰":{"ha":833,"x_min":181,"x_max":653,"o":"m 417 531 q 241 604 301 531 q 181 811 181 678 q 242 1021 181 949 q 417 1093 304 1093 q 592 1019 531 1093 q 653 813 653 946 q 591 603 653 675 q 417 531 529 531 m 417 614 q 516 663 485 614 q 547 810 547 711 q 516 960 547 913 q 417 1008 485 1008 q 317 960 349 1008 q 286 813 286 913 q 317 663 286 711 q 417 614 349 614 z "},"¹":{"ha":833,"x_min":214,"x_max":651,"o":"m 389 624 l 389 981 l 219 925 l 219 1006 l 401 1082 l 492 1082 l 492 624 l 651 624 l 651 542 l 214 542 l 214 624 l 389 624 z "},"²":{"ha":833,"x_min":217,"x_max":617,"o":"m 217 542 l 217 617 q 350 735 297 686 q 434 820 403 785 q 477 882 465 856 q 489 932 489 908 q 465 988 489 968 q 399 1007 440 1007 q 320 992 363 1007 q 231 949 278 976 l 231 1032 q 321 1078 275 1063 q 419 1093 367 1093 q 548 1052 500 1093 q 596 943 596 1011 q 584 884 596 914 q 542 817 572 854 q 462 734 513 781 q 335 624 411 688 l 617 624 l 617 542 l 217 542 z "},"³":{"ha":833,"x_min":224,"x_max":622,"o":"m 392 531 q 301 538 342 531 q 224 561 260 544 l 224 638 q 308 617 269 622 q 390 611 347 611 q 487 634 453 611 q 521 701 521 657 q 491 763 521 743 q 396 783 461 783 q 348 783 372 783 q 301 779 324 782 l 301 835 l 476 1001 l 226 1001 l 226 1082 l 589 1082 l 589 1008 l 426 853 l 443 853 q 575 813 528 853 q 622 701 622 772 q 561 576 622 622 q 392 531 500 531 z "},"⁴":{"ha":833,"x_min":186,"x_max":653,"o":"m 496 1082 l 281 729 l 483 729 l 483 881 l 575 881 l 575 729 l 653 729 l 653 653 l 575 653 l 575 542 l 483 542 l 483 653 l 186 653 l 186 728 l 399 1082 l 496 1082 z "},"⁵":{"ha":833,"x_min":228,"x_max":626,"o":"m 254 842 l 268 1082 l 592 1082 l 592 1001 l 346 1001 l 339 860 q 379 865 360 863 q 424 867 399 867 q 573 824 519 867 q 626 704 626 782 q 565 577 626 624 q 394 531 504 531 q 305 538 346 531 q 228 561 264 544 l 228 638 q 312 617 274 622 q 393 611 350 611 q 525 704 525 611 q 494 773 525 753 q 390 793 464 793 q 322 790 360 793 q 254 782 285 786 l 254 842 z "},"⁶":{"ha":833,"x_min":201,"x_max":639,"o":"m 464 1013 q 341 969 382 1013 q 297 833 300 925 q 375 864 336 853 q 451 875 414 875 q 588 830 536 875 q 639 711 639 785 q 624 638 639 671 q 581 581 608 604 q 515 544 553 557 q 431 531 476 531 q 260 598 318 531 q 201 796 201 665 q 268 1016 201 939 q 457 1093 335 1093 q 529 1085 494 1093 q 596 1064 564 1078 l 596 990 q 464 1013 529 1013 m 432 797 q 300 763 363 797 q 432 610 304 610 q 512 635 483 610 q 540 707 540 661 q 513 774 540 750 q 432 797 485 797 z "},"⁷":{"ha":833,"x_min":210,"x_max":633,"o":"m 285 542 l 528 999 l 210 999 l 210 1082 l 633 1082 l 633 1006 l 390 542 l 285 542 z "},"⁸":{"ha":833,"x_min":200,"x_max":633,"o":"m 200 678 q 226 752 200 717 q 310 811 251 788 q 239 873 256 839 q 222 940 222 907 q 276 1051 222 1010 q 418 1093 329 1093 q 557 1053 504 1093 q 610 946 610 1013 q 585 877 610 908 q 508 825 560 846 q 572 794 547 811 q 610 760 596 778 q 628 722 624 742 q 633 685 633 703 q 575 572 633 614 q 415 531 517 531 q 258 570 317 531 q 200 678 200 610 m 376 786 q 312 742 331 767 q 293 692 293 717 q 326 628 293 650 q 418 606 360 606 q 508 627 475 606 q 540 686 540 649 q 522 731 540 711 q 444 768 504 751 l 376 786 m 314 947 q 332 892 314 914 q 396 858 350 871 l 442 846 q 501 892 483 867 q 518 946 518 918 q 492 998 518 978 q 418 1018 467 1018 q 342 999 371 1018 q 314 947 314 979 z "},"⁹":{"ha":833,"x_min":197,"x_max":629,"o":"m 228 639 q 302 616 268 622 q 372 610 336 610 q 531 776 525 610 q 460 749 497 758 q 383 739 422 739 q 247 783 297 739 q 197 906 197 828 q 213 981 197 946 q 257 1040 229 1015 q 324 1079 285 1065 q 408 1093 363 1093 q 572 1024 514 1093 q 629 825 629 956 q 565 607 629 683 q 382 531 500 531 q 228 564 300 531 l 228 639 m 404 814 q 469 822 439 814 q 532 846 499 829 l 532 854 q 501 972 532 932 q 407 1013 469 1013 q 324 985 354 1013 q 294 910 294 958 q 404 814 294 814 z "},"⁺":{"ha":833,"x_min":221,"x_max":613,"o":"m 374 615 l 374 772 l 221 772 l 221 851 l 374 851 l 374 1008 l 460 1008 l 460 851 l 613 851 l 613 772 l 460 772 l 460 615 l 374 615 z "},"⁻":{"ha":833,"x_min":221,"x_max":613,"o":"m 221 771 l 221 853 l 613 853 l 613 771 l 221 771 z "},"⁼":{"ha":833,"x_min":221,"x_max":613,"o":"m 221 869 l 221 951 l 613 951 l 613 869 l 221 869 m 221 672 l 221 754 l 613 754 l 613 672 l 221 672 z "},"⁽":{"ha":833,"x_min":283,"x_max":551,"o":"m 385 813 q 398 714 385 764 q 434 617 411 664 q 488 531 457 571 q 551 463 518 490 l 453 463 q 384 531 415 492 q 331 617 353 571 q 296 713 308 663 q 283 813 283 763 q 296 912 283 863 q 331 1007 308 961 q 384 1092 353 1053 q 453 1161 415 1132 l 551 1161 q 488 1093 518 1133 q 434 1006 457 1053 q 398 910 411 960 q 385 813 385 860 z "},"⁾":{"ha":833,"x_min":282,"x_max":550,"o":"m 449 811 q 435 909 449 858 q 398 1006 421 960 q 345 1093 375 1053 q 282 1161 315 1133 l 381 1161 q 449 1092 418 1132 q 503 1007 481 1053 q 538 911 525 961 q 550 811 550 861 q 538 712 550 761 q 503 617 525 663 q 449 531 481 571 q 381 463 418 492 l 282 463 q 345 531 315 490 q 398 617 375 571 q 435 713 421 664 q 449 811 449 763 z "},"⁄":{"ha":833,"x_min":104,"x_max":729,"o":"m 104 0 l 644 963 l 729 963 l 189 0 l 104 0 z "},"%":{"ha":833,"x_min":71,"x_max":761,"o":"m 71 783 q 122 931 71 878 q 260 983 172 983 q 398 931 347 983 q 449 783 449 878 q 398 638 449 690 q 260 585 347 585 q 122 638 172 585 q 71 783 71 690 m 174 783 q 260 672 174 672 q 346 783 346 672 q 260 896 346 896 q 174 783 174 896 m 719 551 l 113 322 l 113 411 l 719 640 l 719 551 m 383 178 q 434 325 383 272 q 572 378 485 378 q 710 325 660 378 q 761 178 761 272 q 710 32 761 85 q 572 -21 660 -21 q 434 32 485 -21 q 383 178 383 85 m 486 178 q 572 67 486 67 q 658 178 658 67 q 572 290 658 290 q 486 178 486 290 z "},"‰":{"ha":833,"x_min":42,"x_max":792,"o":"m 328 378 q 408 360 372 378 q 468 307 444 343 q 528 360 492 343 q 610 378 565 378 q 742 324 693 378 q 792 178 792 271 q 742 32 792 85 q 610 -21 693 -21 q 528 -3 565 -21 q 468 50 492 14 q 408 -3 444 14 q 328 -21 372 -21 q 195 33 244 -21 q 146 179 146 86 q 195 325 146 272 q 328 378 244 378 m 42 783 q 92 931 42 878 q 231 983 143 983 q 369 931 318 983 q 419 783 419 878 q 369 638 419 690 q 231 585 318 585 q 92 638 143 585 q 42 783 42 690 m 719 560 l 81 385 l 81 469 l 719 646 l 719 560 m 517 178 q 603 67 517 67 q 689 178 689 67 q 603 290 689 290 q 517 178 517 290 m 421 179 q 335 290 421 290 q 249 179 249 290 q 335 67 249 67 q 421 179 421 67 m 144 783 q 231 672 144 672 q 317 783 317 672 q 231 896 317 896 q 144 783 144 896 z "},"½":{"ha":833,"x_min":42,"x_max":792,"o":"m 88 0 l 628 963 l 713 963 l 172 0 l 88 0 m 482 0 l 482 69 q 576 153 538 117 q 638 216 615 189 q 672 263 661 243 q 682 301 682 283 q 665 339 682 326 q 618 351 647 351 q 554 341 583 351 q 490 308 525 331 l 490 382 q 556 415 519 403 q 636 428 593 428 q 739 396 701 428 q 776 313 776 364 q 766 263 776 288 q 733 210 756 238 q 674 150 711 183 q 586 75 638 117 l 792 75 l 792 0 l 482 0 m 258 974 l 258 556 l 171 556 l 171 888 l 42 843 l 42 913 l 176 974 l 258 974 z "},"⅓":{"ha":833,"x_min":42,"x_max":792,"o":"m 76 0 l 617 963 l 701 963 l 161 0 l 76 0 m 646 242 l 650 242 q 752 213 713 242 q 792 126 792 185 q 745 25 792 63 q 613 -12 699 -12 q 544 -6 576 -12 q 486 15 513 0 l 486 82 q 550 66 518 71 q 610 61 582 61 q 680 79 654 61 q 706 128 706 97 q 684 171 706 156 q 614 186 663 186 q 583 185 603 186 q 544 182 564 185 l 544 229 l 675 343 l 489 343 l 489 418 l 768 418 l 768 349 l 646 242 m 258 974 l 258 556 l 171 556 l 171 888 l 42 843 l 42 913 l 176 974 l 258 974 z "},"⅔":{"ha":833,"x_min":42,"x_max":792,"o":"m 108 0 l 649 963 l 733 963 l 193 0 l 108 0 m 646 242 l 650 242 q 752 213 713 242 q 792 126 792 185 q 745 25 792 63 q 613 -12 699 -12 q 544 -6 576 -12 q 486 15 513 0 l 486 82 q 550 66 518 71 q 610 61 582 61 q 680 79 654 61 q 706 128 706 97 q 684 171 706 156 q 614 186 663 186 q 583 185 603 186 q 544 182 564 185 l 544 229 l 675 343 l 489 343 l 489 418 l 768 418 l 768 349 l 646 242 m 42 556 l 42 625 q 136 708 97 672 q 198 772 175 744 q 231 819 221 799 q 242 857 242 839 q 224 894 242 882 q 178 907 207 907 q 114 897 143 907 q 50 864 85 886 l 50 938 q 116 971 79 958 q 196 983 153 983 q 299 951 261 983 q 336 868 336 919 q 326 818 336 843 q 293 766 315 793 q 234 706 271 739 q 146 631 197 672 l 351 631 l 351 556 l 42 556 z "},"¼":{"ha":833,"x_min":42,"x_max":792,"o":"m 125 0 l 665 963 l 750 963 l 210 0 l 125 0 m 674 418 l 525 146 l 661 146 l 661 263 l 731 263 l 731 146 l 792 146 l 792 81 l 731 81 l 731 0 l 661 0 l 661 81 l 443 81 l 443 142 l 594 418 l 674 418 m 258 974 l 258 556 l 171 556 l 171 888 l 42 843 l 42 913 l 176 974 l 258 974 z "},"¾":{"ha":833,"x_min":42,"x_max":792,"o":"m 119 0 l 660 963 l 744 963 l 204 0 l 119 0 m 674 418 l 525 146 l 661 146 l 661 263 l 731 263 l 731 146 l 792 146 l 792 81 l 731 81 l 731 0 l 661 0 l 661 81 l 443 81 l 443 142 l 594 418 l 674 418 m 201 797 l 206 797 q 308 769 268 797 q 347 682 347 740 q 301 581 347 618 q 168 543 254 543 q 100 549 132 543 q 42 571 68 556 l 42 638 q 106 622 74 626 q 165 617 138 617 q 235 635 210 617 q 261 683 261 653 q 240 726 261 711 q 169 742 218 742 q 139 741 158 742 q 100 738 119 740 l 100 785 l 231 899 l 44 899 l 44 974 l 324 974 l 324 904 l 201 797 z "},"⅛":{"ha":833,"x_min":42,"x_max":792,"o":"m 93 0 l 633 963 l 718 963 l 178 0 l 93 0 m 775 315 q 754 257 775 282 q 696 217 733 232 q 767 170 743 194 q 792 110 792 146 q 747 21 792 54 q 624 -12 703 -12 q 503 19 549 -12 q 458 101 458 50 q 481 169 458 140 q 546 213 504 197 q 492 255 510 232 q 475 311 475 278 q 516 396 475 364 q 628 428 557 428 q 734 397 693 428 q 775 315 775 365 m 594 192 q 539 119 539 161 q 562 69 539 88 q 625 51 585 51 q 688 67 664 51 q 711 110 711 82 q 693 144 711 129 q 644 172 675 160 l 594 192 m 697 306 q 678 349 697 333 q 626 365 660 365 q 573 351 593 365 q 553 313 553 336 q 565 278 553 290 q 606 254 578 265 l 647 238 q 684 269 671 251 q 697 306 697 286 m 258 974 l 258 556 l 171 556 l 171 888 l 42 843 l 42 913 l 176 974 l 258 974 z "},"⅜":{"ha":833,"x_min":42,"x_max":792,"o":"m 92 0 l 632 963 l 717 963 l 176 0 l 92 0 m 775 315 q 754 257 775 282 q 696 217 733 232 q 767 170 743 194 q 792 110 792 146 q 747 21 792 54 q 624 -12 703 -12 q 503 19 549 -12 q 458 101 458 50 q 481 169 458 140 q 546 213 504 197 q 492 255 510 232 q 475 311 475 278 q 516 396 475 364 q 628 428 557 428 q 734 397 693 428 q 775 315 775 365 m 594 192 q 539 119 539 161 q 562 69 539 88 q 625 51 585 51 q 688 67 664 51 q 711 110 711 82 q 693 144 711 129 q 644 172 675 160 l 594 192 m 697 306 q 678 349 697 333 q 626 365 660 365 q 573 351 593 365 q 553 313 553 336 q 565 278 553 290 q 606 254 578 265 l 647 238 q 684 269 671 251 q 697 306 697 286 m 201 797 l 206 797 q 308 769 268 797 q 347 682 347 740 q 301 581 347 618 q 168 543 254 543 q 100 549 132 543 q 42 571 68 556 l 42 638 q 106 622 74 626 q 165 617 138 617 q 235 635 210 617 q 261 683 261 653 q 240 726 261 711 q 169 742 218 742 q 139 741 158 742 q 100 738 119 740 l 100 785 l 231 899 l 44 899 l 44 974 l 324 974 l 324 904 l 201 797 z "},"⅝":{"ha":833,"x_min":42,"x_max":792,"o":"m 92 0 l 632 963 l 717 963 l 176 0 l 92 0 m 775 315 q 754 257 775 282 q 696 217 733 232 q 767 170 743 194 q 792 110 792 146 q 747 21 792 54 q 624 -12 703 -12 q 503 19 549 -12 q 458 101 458 50 q 481 169 458 140 q 546 213 504 197 q 492 255 510 232 q 475 311 475 278 q 516 396 475 364 q 628 428 557 428 q 734 397 693 428 q 775 315 775 365 m 594 192 q 539 119 539 161 q 562 69 539 88 q 625 51 585 51 q 688 67 664 51 q 711 110 711 82 q 693 144 711 129 q 644 172 675 160 l 594 192 m 697 306 q 678 349 697 333 q 626 365 660 365 q 573 351 593 365 q 553 313 553 336 q 565 278 553 290 q 606 254 578 265 l 647 238 q 684 269 671 251 q 697 306 697 286 m 140 899 l 135 799 q 193 807 161 807 q 304 775 263 807 q 346 683 346 743 q 299 581 346 619 q 168 543 253 543 q 101 549 132 543 q 42 568 71 554 l 42 635 q 110 620 81 624 q 171 617 140 617 q 237 636 214 617 q 260 683 260 656 q 167 742 260 742 q 110 739 138 742 q 58 732 82 736 l 58 790 l 69 974 l 322 974 l 322 899 l 140 899 z "},"⅞":{"ha":833,"x_min":42,"x_max":792,"o":"m 63 0 l 603 963 l 688 963 l 147 0 l 63 0 m 775 315 q 754 257 775 282 q 696 217 733 232 q 767 170 743 194 q 792 110 792 146 q 747 21 792 54 q 624 -12 703 -12 q 503 19 549 -12 q 458 101 458 50 q 481 169 458 140 q 546 213 504 197 q 492 255 510 232 q 475 311 475 278 q 516 396 475 364 q 628 428 557 428 q 734 397 693 428 q 775 315 775 365 m 594 192 q 539 119 539 161 q 562 69 539 88 q 625 51 585 51 q 688 67 664 51 q 711 110 711 82 q 693 144 711 129 q 644 172 675 160 l 594 192 m 697 306 q 678 349 697 333 q 626 365 660 365 q 573 351 593 365 q 553 313 553 336 q 565 278 553 290 q 606 254 578 265 l 647 238 q 684 269 671 251 q 697 306 697 286 m 107 556 l 292 899 l 42 899 l 42 974 l 379 974 l 379 899 l 199 556 l 107 556 z "},"$":{"ha":833,"x_min":106,"x_max":726,"o":"m 369 -11 q 230 17 296 -4 q 111 71 164 39 l 111 172 q 240 115 178 138 q 369 88 301 93 l 369 440 l 314 461 q 153 563 201 504 q 106 708 106 621 q 122 803 106 758 q 172 882 139 847 q 255 939 206 917 q 369 967 304 961 l 369 1135 l 458 1135 l 458 967 q 573 939 517 960 q 669 892 629 918 l 669 792 q 567 839 621 818 q 458 867 514 860 l 458 525 l 517 503 q 675 407 624 463 q 726 256 726 351 q 709 160 726 206 q 658 79 692 115 q 574 19 624 43 q 458 -10 524 -4 l 458 -181 l 369 -181 l 369 -11 m 615 251 q 608 306 615 282 q 582 348 600 329 q 534 383 564 367 q 458 417 504 399 l 458 89 q 577 147 539 100 q 615 251 615 193 m 215 710 q 223 658 215 681 q 249 616 231 635 q 297 582 267 597 q 369 550 326 567 l 369 868 q 251 815 288 858 q 215 710 215 772 z "},"¢":{"ha":833,"x_min":144,"x_max":697,"o":"m 438 -181 l 438 28 q 217 134 290 43 q 144 390 144 225 q 219 643 144 550 q 438 753 294 736 l 438 963 l 519 963 l 519 754 q 608 742 564 751 q 690 715 653 733 l 690 625 q 603 646 650 638 q 519 654 557 654 l 519 128 q 697 160 597 128 l 697 69 q 519 26 615 31 l 519 -181 l 438 -181 m 268 382 q 309 210 268 271 q 438 133 350 150 l 438 647 q 308 571 349 631 q 268 400 268 511 l 268 382 z "},"£":{"ha":833,"x_min":106,"x_max":753,"o":"m 365 432 q 371 388 368 408 q 374 347 374 367 q 350 217 374 276 q 274 106 326 158 l 753 106 l 753 0 l 139 0 l 139 97 q 224 209 197 146 q 251 349 251 272 q 250 392 251 371 q 246 432 249 413 l 106 432 l 106 531 l 228 531 q 207 619 217 576 q 197 711 197 663 q 219 822 197 772 q 281 908 240 872 q 376 963 321 943 q 501 982 432 982 q 630 965 568 982 q 739 917 692 949 l 739 815 q 621 860 676 846 q 513 874 565 874 q 370 830 419 874 q 321 696 321 786 q 328 621 321 664 q 346 531 336 578 l 639 531 l 639 432 l 365 432 z "},"¥":{"ha":833,"x_min":39,"x_max":794,"o":"m 356 0 l 356 219 l 111 219 l 111 306 l 356 306 l 356 351 l 314 431 l 111 431 l 111 517 l 271 517 l 39 963 l 178 963 l 418 456 l 661 963 l 794 963 l 563 517 l 724 517 l 724 431 l 518 431 l 476 350 l 476 306 l 722 306 l 722 219 l 476 219 l 476 0 l 356 0 z "},"€":{"ha":833,"x_min":58,"x_max":782,"o":"m 154 415 q 153 442 153 429 q 153 471 153 456 q 153 506 153 489 q 156 539 154 522 l 58 539 l 58 626 l 165 626 q 223 788 183 722 q 317 896 263 854 q 437 956 371 938 q 574 975 503 975 q 776 936 688 975 l 776 838 q 679 860 725 853 q 589 867 633 867 q 482 855 531 867 q 394 815 433 843 q 329 740 356 786 q 289 626 303 694 l 686 626 l 661 539 l 278 539 q 276 506 276 522 q 276 471 276 489 q 276 442 276 456 q 278 415 276 428 l 633 415 l 608 328 l 289 328 q 330 213 303 258 q 394 141 357 168 q 477 103 432 114 q 572 92 522 92 q 674 100 621 92 q 782 125 728 108 l 782 26 q 563 -17 681 -17 q 425 1 490 -17 q 307 58 360 18 q 217 165 254 99 q 163 328 179 231 l 58 328 l 58 415 l 154 415 z "},"₺":{"ha":833,"x_min":58,"x_max":767,"o":"m 304 354 l 304 107 l 335 107 q 576 175 501 107 q 650 390 650 243 l 650 407 l 767 407 l 767 383 q 652 101 767 201 q 326 0 538 0 l 183 0 l 183 297 l 58 239 l 58 332 l 183 392 l 183 532 l 58 474 l 58 567 l 183 625 l 183 963 l 304 963 l 304 682 l 564 804 l 564 711 l 304 588 l 304 447 l 564 569 l 564 478 l 304 354 z "},"₹":{"ha":833,"x_min":131,"x_max":786,"o":"m 508 0 l 131 388 l 131 478 l 272 478 q 521 632 499 478 l 132 632 l 132 717 l 521 717 q 281 869 496 869 l 131 869 l 131 963 l 786 963 l 768 869 l 536 869 q 635 717 619 819 l 740 717 l 722 632 l 636 632 q 530 450 621 514 q 283 386 439 386 l 275 386 l 665 0 l 508 0 z "},"¤":{"ha":833,"x_min":61,"x_max":772,"o":"m 417 256 q 610 472 610 256 q 417 689 610 689 q 224 472 224 689 q 417 256 224 256 m 417 161 q 247 207 321 161 l 138 90 l 61 160 l 171 272 q 126 361 143 311 q 110 472 110 411 q 126 583 110 533 q 171 672 143 633 l 61 785 l 138 854 l 247 738 q 417 783 321 783 q 586 738 513 783 l 696 854 l 772 785 l 661 672 q 707 583 690 633 q 724 472 724 532 q 707 361 724 411 q 663 272 690 311 l 772 160 l 696 90 l 586 207 q 417 161 513 161 z "},"^":{"ha":833,"x_min":83,"x_max":750,"o":"m 626 426 l 417 853 l 204 426 l 83 426 l 364 963 l 469 963 l 750 426 l 626 426 z "},"+":{"ha":833,"x_min":106,"x_max":728,"o":"m 363 165 l 363 433 l 106 433 l 106 535 l 363 535 l 363 803 l 471 803 l 471 535 l 728 535 l 728 433 l 471 433 l 471 165 l 363 165 z "},"−":{"ha":833,"x_min":106,"x_max":728,"o":"m 106 433 l 106 535 l 728 535 l 728 433 l 106 433 z "},"±":{"ha":833,"x_min":106,"x_max":728,"o":"m 363 218 l 363 486 l 106 486 l 106 588 l 363 588 l 363 856 l 471 856 l 471 588 l 728 588 l 728 486 l 471 486 l 471 218 l 363 218 m 106 0 l 106 101 l 728 101 l 728 0 l 106 0 z "},"=":{"ha":833,"x_min":106,"x_max":728,"o":"m 106 588 l 106 689 l 728 689 l 728 588 l 106 588 m 106 281 l 106 382 l 728 382 l 728 281 l 106 281 z "},"≠":{"ha":833,"x_min":106,"x_max":728,"o":"m 176 149 l 250 281 l 106 281 l 106 382 l 308 382 l 425 588 l 106 588 l 106 689 l 481 689 l 557 822 l 660 822 l 583 689 l 728 689 l 728 588 l 525 588 l 408 382 l 728 382 l 728 281 l 353 281 l 278 149 l 176 149 z "},"÷":{"ha":833,"x_min":106,"x_max":728,"o":"m 417 161 q 363 182 383 161 q 342 236 342 203 q 363 292 342 271 q 417 314 383 314 q 471 293 450 314 q 492 236 492 272 q 471 182 492 203 q 417 161 450 161 m 106 433 l 106 535 l 728 535 l 728 433 l 106 433 m 417 654 q 363 676 383 654 q 342 731 342 697 q 363 786 342 765 q 417 807 383 807 q 471 786 450 807 q 492 731 492 765 q 471 675 492 696 q 417 654 450 654 z "},"<":{"ha":833,"x_min":117,"x_max":717,"o":"m 117 435 l 117 535 l 717 803 l 717 689 l 236 486 l 717 283 l 717 167 l 117 435 z "},">":{"ha":833,"x_min":117,"x_max":717,"o":"m 717 535 l 717 435 l 117 167 l 117 281 l 597 483 l 117 686 l 117 803 l 717 535 z "},"≤":{"ha":833,"x_min":106,"x_max":728,"o":"m 106 0 l 106 101 l 728 101 l 728 0 l 106 0 m 117 488 l 117 588 l 717 856 l 717 742 l 236 539 l 717 336 l 717 219 l 117 488 z "},"≥":{"ha":833,"x_min":106,"x_max":728,"o":"m 106 0 l 106 101 l 728 101 l 728 0 l 106 0 m 717 588 l 717 488 l 117 219 l 117 333 l 597 536 l 117 739 l 117 856 l 717 588 z "},"~":{"ha":833,"x_min":86,"x_max":747,"o":"m 90 371 q 86 432 86 396 q 131 559 86 514 q 254 604 175 604 q 432 531 333 604 q 481 496 461 510 q 517 474 501 482 q 545 464 532 467 q 574 461 558 461 q 627 483 610 461 q 649 550 644 504 l 653 596 l 743 596 q 747 536 747 572 q 703 409 747 454 q 579 364 658 364 q 495 381 539 364 q 401 436 451 399 q 352 472 372 458 q 317 492 332 485 q 288 503 301 500 q 260 506 275 506 q 206 485 224 506 q 185 418 189 464 l 181 371 l 90 371 z "},"≈":{"ha":833,"x_min":86,"x_max":747,"o":"m 90 531 q 86 592 86 556 q 131 719 86 674 q 254 764 175 764 q 432 690 333 764 q 481 656 461 669 q 517 634 501 642 q 545 624 532 626 q 574 621 558 621 q 627 642 610 621 q 649 710 644 664 l 653 756 l 743 756 q 747 696 747 732 q 703 569 747 614 q 579 524 658 524 q 495 541 539 524 q 401 596 451 558 q 352 631 372 618 q 317 652 332 644 q 288 663 301 660 q 260 665 275 665 q 206 644 224 665 q 185 578 189 624 l 181 531 l 90 531 m 90 213 q 86 274 86 238 q 131 401 86 356 q 254 446 175 446 q 432 372 333 446 q 481 338 461 351 q 517 316 501 324 q 545 306 532 308 q 574 303 558 303 q 627 324 610 303 q 649 392 644 346 l 653 438 l 743 438 q 747 378 747 414 q 703 251 747 296 q 579 206 658 206 q 495 223 539 206 q 401 278 451 240 q 352 313 372 300 q 317 334 332 326 q 288 344 301 342 q 260 347 275 347 q 206 326 224 347 q 185 260 189 306 l 181 213 l 90 213 z "},"×":{"ha":833,"x_min":138,"x_max":696,"o":"m 417 403 l 208 182 l 138 256 l 347 474 l 138 692 l 210 765 l 417 544 l 624 765 l 696 692 l 486 474 l 696 256 l 625 182 l 417 403 z "},"_":{"ha":833,"x_min":0,"x_max":833,"o":"m 0 -210 l 0 -92 l 833 -92 l 833 -210 l 0 -210 z "},"§":{"ha":833,"x_min":97,"x_max":715,"o":"m 125 785 q 199 930 125 876 q 414 983 274 983 q 495 978 456 983 q 569 965 535 972 q 633 947 604 957 q 678 929 661 938 l 678 835 q 549 867 621 854 q 414 881 476 881 q 284 853 324 881 q 244 788 244 826 q 251 753 244 768 q 274 727 258 739 q 317 704 290 715 q 381 679 343 693 l 504 636 q 664 552 613 599 q 715 424 715 506 q 676 314 715 358 q 574 246 636 269 q 665 174 636 214 q 693 72 693 135 q 611 -78 693 -22 q 386 -133 529 -133 q 211 -112 285 -133 q 97 -69 138 -92 l 97 28 q 221 -12 146 7 q 388 -31 296 -31 q 525 -6 479 -31 q 571 64 571 19 q 565 100 571 85 q 545 128 560 115 q 504 152 531 140 q 438 178 478 164 l 315 221 q 154 312 206 260 q 103 440 103 364 q 140 547 103 504 q 239 614 176 590 q 150 687 175 647 q 125 785 125 726 m 593 414 q 563 481 593 458 q 460 531 532 504 l 338 574 l 328 576 q 222 458 222 533 q 228 415 222 433 q 250 381 235 396 q 292 353 265 367 q 358 326 318 340 l 481 283 q 563 338 532 304 q 593 414 593 372 z "},"°":{"ha":833,"x_min":192,"x_max":642,"o":"m 294 749 q 325 649 294 686 q 418 613 356 613 q 508 649 476 613 q 539 749 539 686 q 508 848 539 811 q 418 885 476 885 q 325 848 356 885 q 294 749 294 811 m 192 749 q 253 913 192 853 q 418 972 314 972 q 581 913 519 972 q 642 749 642 853 q 581 585 642 644 q 418 525 519 525 q 253 585 314 525 q 192 749 192 644 z "},"µ":{"ha":833,"x_min":108,"x_max":804,"o":"m 108 704 l 232 704 l 232 233 q 376 82 232 82 q 479 101 432 82 q 578 161 526 121 l 578 704 l 701 704 l 701 150 q 716 106 701 118 q 758 94 731 94 q 804 99 779 94 l 804 8 q 762 -3 785 1 q 717 -7 739 -7 q 590 83 618 -7 q 482 7 542 35 q 358 -21 422 -21 q 226 22 272 -21 l 226 -286 l 108 -286 l 108 704 z "},"¶":{"ha":833,"x_min":86,"x_max":746,"o":"m 639 -144 l 639 867 l 475 867 l 475 -286 l 368 -286 l 368 344 q 159 439 232 363 q 86 639 86 515 q 184 878 86 793 q 460 963 282 963 l 746 963 l 746 -144 l 639 -144 z "},"#":{"ha":833,"x_min":69,"x_max":764,"o":"m 369 710 l 535 710 l 575 963 l 672 963 l 632 710 l 764 710 l 764 619 l 618 619 l 575 349 l 722 349 l 722 258 l 561 258 l 521 0 l 424 0 l 464 258 l 299 258 l 258 0 l 161 0 l 201 258 l 69 258 l 69 349 l 215 349 l 258 619 l 111 619 l 111 710 l 272 710 l 313 963 l 410 963 l 369 710 m 313 349 l 478 349 l 521 619 l 356 619 l 313 349 z "},"|":{"ha":833,"x_min":351,"x_max":482,"o":"m 351 -286 l 351 1047 l 482 1047 l 482 -286 l 351 -286 z "},"¦":{"ha":833,"x_min":351,"x_max":482,"o":"m 351 -286 l 351 210 l 482 210 l 482 -286 l 351 -286 m 351 551 l 351 1047 l 482 1047 l 482 551 l 351 551 z "},"†":{"ha":833,"x_min":110,"x_max":722,"o":"m 475 628 l 485 -175 l 347 -175 l 357 628 l 110 621 l 110 729 l 357 721 l 347 1028 l 485 1028 l 475 721 l 722 729 l 722 621 l 475 628 z "},"‡":{"ha":833,"x_min":110,"x_max":722,"o":"m 347 -175 l 357 132 l 110 124 l 110 232 l 357 224 l 347 426 l 357 629 l 110 621 l 110 729 l 357 721 l 347 1028 l 485 1028 l 475 721 l 722 729 l 722 621 l 475 629 l 485 426 l 475 224 l 722 232 l 722 124 l 475 132 l 485 -175 l 347 -175 z "},"¬":{"ha":833,"x_min":106,"x_max":728,"o":"m 619 314 l 619 556 l 106 556 l 106 657 l 728 657 l 728 314 l 619 314 z "},"⁒":{"ha":833,"x_min":106,"x_max":726,"o":"m 199 861 q 132 887 158 861 q 106 956 106 913 q 132 1026 106 1000 q 199 1051 158 1051 q 265 1025 239 1051 q 292 956 292 999 q 265 887 292 913 q 199 861 239 861 m 119 -200 l 590 1047 l 714 1047 l 243 -200 l 119 -200 m 633 -204 q 567 -178 593 -204 q 542 -108 542 -151 q 567 -40 542 -65 q 633 -14 593 -14 q 700 -40 674 -14 q 726 -108 726 -65 q 700 -178 726 -153 q 633 -204 674 -204 z "},"&":{"ha":833,"x_min":54,"x_max":792,"o":"m 54 246 q 100 405 54 331 q 221 526 146 479 q 173 599 192 568 q 143 657 154 631 q 127 708 132 683 q 122 761 122 732 q 138 851 122 811 q 184 921 154 892 q 256 965 214 950 q 350 981 299 981 q 506 927 446 981 q 567 781 567 874 q 527 647 567 708 q 400 526 488 585 l 371 506 l 561 233 q 598 346 585 282 q 611 485 611 410 l 611 532 l 718 532 l 718 485 q 694 295 718 381 q 625 143 669 210 q 670 103 649 114 q 726 93 692 93 q 756 94 742 93 q 792 99 771 96 l 792 8 q 752 -4 775 1 q 706 -10 729 -10 q 627 3 664 -10 q 550 61 590 17 q 449 1 504 22 q 331 -19 393 -19 q 215 0 267 -19 q 128 54 164 19 q 74 138 93 89 q 54 246 54 188 m 336 83 q 490 139 426 83 l 269 457 q 197 369 221 424 q 174 256 174 315 q 217 131 174 179 q 336 83 260 83 m 240 761 q 244 722 240 740 q 256 684 247 704 q 281 639 265 664 q 319 578 296 614 l 354 603 q 426 678 403 638 q 449 771 449 718 q 424 855 449 824 q 350 886 399 886 q 269 853 299 886 q 240 761 240 819 z "},"*":{"ha":833,"x_min":161,"x_max":671,"o":"m 301 435 q 206 507 236 446 l 347 671 l 164 715 q 162 728 163 722 q 161 739 161 735 q 199 829 161 789 l 374 747 l 353 953 q 415 967 385 967 q 479 953 444 967 l 458 747 l 633 829 q 671 739 671 788 q 670 728 671 735 q 668 715 669 722 l 483 671 l 626 507 q 586 459 611 478 q 529 435 561 440 l 415 631 l 301 435 z "},"-":{"ha":833,"x_min":181,"x_max":653,"o":"m 181 422 l 653 422 l 653 297 l 181 297 l 181 422 z "},"–":{"ha":833,"x_min":111,"x_max":722,"o":"m 111 300 l 111 418 l 722 418 l 722 300 l 111 300 z "},"—":{"ha":833,"x_min":0,"x_max":833,"o":"m 0 300 l 0 418 l 833 418 l 833 300 l 0 300 z "},"(":{"ha":833,"x_min":192,"x_max":628,"o":"m 192 424 q 211 600 192 513 q 268 769 231 688 q 361 922 306 850 q 489 1047 417 993 l 628 1047 q 497 917 554 989 q 401 765 440 846 q 342 598 363 685 q 322 424 322 511 q 342 249 322 336 q 401 82 363 163 q 497 -70 440 1 q 628 -200 554 -142 l 489 -200 q 361 -74 417 -146 q 268 78 306 -3 q 211 247 231 160 q 192 424 192 335 z "},")":{"ha":833,"x_min":206,"x_max":642,"o":"m 642 424 q 622 247 642 335 q 565 78 603 160 q 472 -74 528 -3 q 344 -200 417 -146 l 206 -200 q 336 -70 279 -142 q 432 82 393 1 q 491 249 471 163 q 511 424 511 336 q 491 598 511 511 q 432 765 471 685 q 336 917 393 846 q 206 1047 279 989 l 344 1047 q 472 922 417 993 q 565 769 528 850 q 622 600 603 688 q 642 424 642 513 z "},"/":{"ha":833,"x_min":7,"x_max":826,"o":"m 7 -200 l 696 1047 l 826 1047 l 139 -200 l 7 -200 z "},"\\":{"ha":833,"x_min":7,"x_max":826,"o":"m 694 -200 l 7 1047 l 139 1047 l 826 -200 l 694 -200 z "},"[":{"ha":833,"x_min":253,"x_max":696,"o":"m 253 -200 l 253 1047 l 696 1047 l 696 943 l 381 943 l 381 -96 l 696 -96 l 696 -200 l 253 -200 z "},"]":{"ha":833,"x_min":138,"x_max":581,"o":"m 581 1047 l 581 -200 l 138 -200 l 138 -96 l 453 -96 l 453 943 l 138 943 l 138 1047 l 581 1047 z "},"{":{"ha":833,"x_min":150,"x_max":718,"o":"m 315 242 q 287 344 315 318 q 201 371 258 371 l 150 371 l 150 476 l 201 476 q 251 482 231 476 q 287 502 272 488 q 308 542 301 517 q 315 606 315 567 l 315 819 q 379 1003 315 949 q 567 1058 443 1058 q 655 1049 611 1058 q 718 1028 699 1039 l 718 935 q 657 949 696 942 q 578 957 618 957 q 477 928 511 957 q 443 825 443 900 l 443 610 q 342 424 443 457 q 443 238 443 388 l 443 22 q 477 -81 443 -53 q 578 -110 511 -110 q 657 -102 618 -110 q 718 -87 696 -94 l 718 -181 q 655 -201 699 -192 q 567 -211 611 -211 q 379 -156 443 -211 q 315 28 315 -101 l 315 242 z "},"}":{"ha":833,"x_min":115,"x_max":683,"o":"m 518 606 q 525 542 518 567 q 547 502 532 517 q 582 482 561 488 q 632 476 603 476 l 683 476 l 683 371 l 632 371 q 547 344 575 371 q 518 242 518 318 l 518 28 q 453 -156 518 -101 q 267 -211 389 -211 q 178 -201 222 -211 q 115 -181 135 -192 l 115 -87 q 176 -102 138 -94 q 256 -110 215 -110 q 356 -81 322 -110 q 390 22 390 -53 l 390 238 q 490 424 390 388 q 390 610 390 457 l 390 825 q 356 928 390 900 q 256 957 322 957 q 176 949 215 957 q 115 935 138 942 l 115 1028 q 178 1049 135 1039 q 267 1058 222 1058 q 453 1003 389 1058 q 518 819 518 949 l 518 606 z "},"•":{"ha":833,"x_min":224,"x_max":610,"o":"m 417 167 q 340 181 375 167 q 279 222 306 196 q 238 283 253 247 q 224 360 224 318 q 238 436 224 401 q 279 497 253 471 q 340 537 306 522 q 417 551 375 551 q 493 537 458 551 q 554 497 528 522 q 595 436 581 471 q 610 360 610 401 q 595 283 610 318 q 554 222 581 247 q 493 181 528 196 q 417 167 458 167 z "},"‹":{"ha":833,"x_min":211,"x_max":622,"o":"m 485 71 l 211 360 l 485 649 l 622 649 l 358 360 l 622 71 l 485 71 z "},"›":{"ha":833,"x_min":211,"x_max":622,"o":"m 349 649 l 622 360 l 349 71 l 211 71 l 475 360 l 211 649 l 349 649 z "},"«":{"ha":833,"x_min":97,"x_max":736,"o":"m 736 649 l 560 360 l 736 71 l 615 71 l 426 360 l 615 649 l 736 649 m 407 649 l 231 360 l 407 71 l 286 71 l 97 360 l 286 649 l 407 649 z "},"»":{"ha":833,"x_min":97,"x_max":736,"o":"m 218 649 l 407 360 l 218 71 l 97 71 l 274 360 l 97 649 l 218 649 m 547 649 l 736 360 l 547 71 l 426 71 l 603 360 l 426 649 l 547 649 z "},"@":{"ha":833,"x_min":56,"x_max":775,"o":"m 483 129 q 356 180 404 129 q 307 317 307 231 q 367 463 307 408 q 525 518 426 518 q 590 513 556 518 q 657 500 625 508 l 657 513 q 608 671 657 625 q 464 717 560 717 q 246 619 317 717 q 175 331 175 521 q 203 122 175 201 q 278 -3 232 42 q 383 -63 325 -47 q 503 -79 442 -79 q 623 -68 565 -79 q 714 -43 681 -57 l 714 -142 q 623 -172 682 -157 q 499 -186 564 -186 q 336 -162 415 -186 q 194 -81 257 -139 q 94 77 132 -22 q 56 329 56 176 q 78 522 56 432 q 151 679 101 613 q 279 785 201 746 q 467 824 357 824 q 582 809 526 824 q 681 760 638 794 q 749 665 724 725 q 775 517 775 606 l 775 144 l 671 144 l 663 199 q 571 146 618 163 q 483 129 524 129 m 553 432 q 431 324 431 432 q 515 222 431 222 q 580 235 546 222 q 657 279 614 247 l 657 418 q 607 428 633 425 q 553 432 581 432 z "},"·":{"ha":833,"x_min":306,"x_max":528,"o":"m 417 269 q 336 300 367 269 q 306 381 306 331 q 336 460 306 429 q 417 490 367 490 q 497 460 467 490 q 528 381 528 429 q 497 300 528 331 q 417 269 467 269 z "},"‐":{"ha":833,"x_min":181,"x_max":653,"o":"m 181 422 l 653 422 l 653 297 l 181 297 l 181 422 z "},"‒":{"ha":833,"x_min":111,"x_max":722,"o":"m 111 431 l 111 549 l 722 549 l 722 431 l 111 431 z "},"―":{"ha":833,"x_min":0,"x_max":833,"o":"m 0 300 l 0 418 l 833 418 l 833 300 l 0 300 z "},"­":{"ha":833,"x_min":181,"x_max":653,"o":"m 181 422 l 653 422 l 653 297 l 181 297 l 181 422 z "},"⟨":{"ha":833,"x_min":201,"x_max":632,"o":"m 497 -200 l 201 424 l 497 1047 l 632 1047 l 338 424 l 632 -200 l 497 -200 z "},"⟩":{"ha":833,"x_min":201,"x_max":632,"o":"m 336 1047 l 632 424 l 336 -200 l 201 -200 l 496 424 l 201 1047 l 336 1047 z "},"A":{"ha":833,"x_min":33,"x_max":799,"o":"m 346 963 l 486 963 l 799 0 l 669 0 l 592 254 l 235 254 l 158 0 l 33 0 l 346 963 m 265 358 l 560 358 l 413 844 l 265 358 z "},"B":{"ha":833,"x_min":110,"x_max":758,"o":"m 110 0 l 110 963 l 408 963 q 528 945 474 963 q 622 895 582 928 q 683 815 661 863 q 704 708 704 768 q 671 583 704 633 q 575 504 638 532 q 710 419 663 479 q 758 268 758 360 q 735 156 758 206 q 672 72 713 106 q 574 19 631 38 q 447 0 517 0 l 110 0 m 231 443 l 231 100 l 444 100 q 629 272 629 100 q 582 401 629 358 q 443 443 535 443 l 231 443 m 231 863 l 231 540 l 397 540 q 576 701 576 540 q 400 863 576 863 l 231 863 z "},"C":{"ha":833,"x_min":82,"x_max":735,"o":"m 735 35 q 631 -1 690 11 q 514 -14 572 -14 q 191 105 300 -14 q 82 478 82 224 q 193 853 82 732 q 514 974 304 974 q 624 963 568 974 q 724 931 679 951 l 724 828 q 619 855 672 847 q 524 863 567 863 q 292 774 371 863 q 214 496 214 686 l 214 463 q 294 186 214 275 q 526 97 374 97 q 632 107 578 97 q 735 138 686 117 l 735 35 z "},"D":{"ha":833,"x_min":103,"x_max":764,"o":"m 103 963 l 329 963 q 514 935 433 963 q 650 848 594 907 q 735 698 706 789 q 764 481 764 607 q 733 262 764 353 q 645 113 703 171 q 506 27 588 54 q 324 0 425 0 l 103 0 l 103 963 m 231 861 l 231 101 l 310 101 q 551 188 469 101 q 632 465 632 274 l 632 497 q 552 774 632 686 q 310 861 472 861 l 231 861 z "},"E":{"ha":833,"x_min":140,"x_max":722,"o":"m 140 963 l 722 963 l 722 858 l 268 858 l 268 549 l 643 549 l 643 444 l 268 444 l 268 104 l 722 104 l 722 0 l 140 0 l 140 963 z "},"F":{"ha":833,"x_min":160,"x_max":757,"o":"m 160 0 l 160 963 l 757 963 l 757 858 l 288 858 l 288 535 l 676 535 l 676 431 l 288 431 l 288 0 l 160 0 z "},"G":{"ha":833,"x_min":81,"x_max":749,"o":"m 482 96 q 631 119 563 96 l 631 403 l 436 403 l 436 507 l 749 507 l 749 50 q 689 23 722 35 q 619 3 656 11 q 544 -10 582 -6 q 471 -15 506 -15 q 181 107 282 -15 q 81 475 81 229 q 185 848 81 721 q 481 975 290 975 q 605 961 543 975 q 715 919 667 947 l 715 817 q 600 852 658 840 q 494 864 542 864 q 285 774 357 864 q 213 493 213 683 l 213 463 q 281 182 213 268 q 482 96 350 96 z "},"H":{"ha":833,"x_min":103,"x_max":731,"o":"m 103 963 l 231 963 l 231 544 l 603 544 l 603 963 l 731 963 l 731 0 l 603 0 l 603 440 l 231 440 l 231 0 l 103 0 l 103 963 z "},"I":{"ha":833,"x_min":144,"x_max":689,"o":"m 479 858 l 479 104 l 689 104 l 689 0 l 144 0 l 144 104 l 354 104 l 354 858 l 144 858 l 144 963 l 689 963 l 689 858 l 479 858 z "},"J":{"ha":833,"x_min":96,"x_max":649,"o":"m 339 88 q 417 96 383 88 q 474 126 451 104 q 509 184 497 147 q 521 279 521 221 l 521 858 l 188 858 l 188 963 l 649 963 l 649 285 q 575 52 649 128 q 339 -24 501 -24 q 197 -7 264 -24 q 96 29 131 10 l 96 132 q 201 102 135 117 q 339 88 267 88 z "},"K":{"ha":833,"x_min":125,"x_max":793,"o":"m 253 531 l 606 963 l 756 963 l 369 499 l 793 0 l 633 0 l 253 457 l 253 0 l 125 0 l 125 963 l 253 963 l 253 531 z "},"L":{"ha":833,"x_min":139,"x_max":728,"o":"m 139 0 l 139 963 l 267 963 l 267 107 l 728 107 l 728 0 l 139 0 z "},"M":{"ha":833,"x_min":90,"x_max":743,"o":"m 626 0 l 626 814 l 468 363 l 367 363 l 207 785 l 207 0 l 90 0 l 90 963 l 239 963 l 418 469 l 585 963 l 743 963 l 743 0 l 626 0 z "},"N":{"ha":833,"x_min":97,"x_max":738,"o":"m 214 769 l 214 0 l 97 0 l 97 963 l 217 963 l 621 193 l 621 963 l 738 963 l 738 0 l 617 0 l 214 769 z "},"O":{"ha":833,"x_min":69,"x_max":764,"o":"m 417 872 q 253 774 306 872 q 201 481 201 675 q 253 187 201 286 q 417 88 306 88 q 580 186 528 88 q 632 479 632 285 q 580 773 632 674 q 417 872 528 872 m 417 983 q 567 949 501 983 q 676 851 632 915 q 742 692 719 786 q 764 479 764 599 q 675 108 764 239 q 417 -24 586 -24 q 158 108 247 -24 q 69 481 69 240 q 92 694 69 600 q 158 852 114 788 q 267 950 201 917 q 417 983 332 983 z "},"P":{"ha":833,"x_min":135,"x_max":768,"o":"m 258 376 l 258 0 l 135 0 l 135 963 l 465 963 q 590 942 533 963 q 685 884 646 922 q 747 792 725 846 q 768 669 768 738 q 747 549 768 603 q 685 456 725 494 q 590 397 646 418 q 465 376 533 376 l 258 376 m 258 481 l 456 481 q 592 528 546 481 q 639 669 639 575 q 592 813 639 765 q 456 860 546 860 l 258 860 l 258 481 z "},"Q":{"ha":833,"x_min":69,"x_max":764,"o":"m 417 983 q 567 949 501 983 q 676 851 632 915 q 742 692 719 786 q 764 479 764 599 q 701 152 764 276 q 517 -8 639 28 q 617 -71 556 -44 q 753 -106 678 -97 l 753 -224 q 552 -153 639 -210 q 401 -24 465 -96 q 153 114 238 -17 q 69 481 69 244 q 92 694 69 600 q 158 852 114 788 q 267 950 201 917 q 417 983 332 983 m 417 872 q 253 774 306 872 q 201 481 201 675 q 253 187 201 286 q 417 88 306 88 q 580 186 528 88 q 632 479 632 285 q 580 773 632 674 q 417 872 528 872 z "},"R":{"ha":833,"x_min":119,"x_max":772,"o":"m 243 383 l 243 0 l 119 0 l 119 963 l 425 963 q 548 943 492 963 q 644 887 604 924 q 706 797 683 850 q 728 676 728 743 q 718 601 728 639 q 688 528 708 563 q 636 465 668 494 q 560 417 604 436 l 772 0 l 633 0 l 444 386 q 414 384 429 385 q 382 383 399 383 l 243 383 m 243 486 l 408 486 q 549 533 500 486 q 599 676 599 581 q 553 813 599 767 q 415 860 507 860 l 243 860 l 243 486 z "},"S":{"ha":833,"x_min":97,"x_max":735,"o":"m 522 517 q 685 417 635 476 q 735 256 735 358 q 710 144 735 194 q 640 57 686 93 q 526 0 593 21 q 375 -21 460 -21 q 218 -1 288 -21 q 104 43 149 18 l 104 143 q 231 101 168 117 q 375 86 293 86 q 546 132 485 86 q 607 254 607 178 q 601 306 607 283 q 578 348 594 329 q 534 383 563 367 q 463 415 506 399 l 347 457 q 231 509 278 482 q 153 568 183 536 q 110 640 124 600 q 97 729 97 679 q 121 834 97 788 q 187 914 144 881 q 290 965 229 947 q 424 983 350 983 q 559 969 496 983 q 678 928 622 954 l 678 828 q 551 863 613 850 q 424 876 489 876 q 276 839 328 876 q 225 731 225 801 q 234 675 225 699 q 264 632 243 651 q 319 594 285 613 q 407 558 354 576 l 522 517 z "},"T":{"ha":833,"x_min":63,"x_max":771,"o":"m 353 0 l 353 856 l 63 856 l 63 963 l 771 963 l 771 856 l 481 856 l 481 0 l 353 0 z "},"U":{"ha":833,"x_min":88,"x_max":746,"o":"m 618 963 l 746 963 l 746 343 q 663 69 746 161 q 417 -22 581 -22 q 170 69 253 -22 q 88 343 88 161 l 88 963 l 215 963 l 215 328 q 267 149 215 208 q 417 89 318 89 q 567 149 515 89 q 618 328 618 208 l 618 963 z "},"V":{"ha":833,"x_min":47,"x_max":786,"o":"m 349 0 l 47 963 l 181 963 l 419 118 l 660 963 l 786 963 l 486 0 l 349 0 z "},"W":{"ha":833,"x_min":3,"x_max":831,"o":"m 417 599 l 303 0 l 158 0 l 3 963 l 132 963 l 238 131 l 356 744 l 485 744 l 600 118 l 708 963 l 831 963 l 675 0 l 531 0 l 417 599 z "},"X":{"ha":833,"x_min":44,"x_max":788,"o":"m 414 404 l 182 0 l 44 0 l 349 496 l 65 963 l 203 963 l 415 592 l 632 963 l 769 963 l 482 501 l 788 0 l 649 0 l 414 404 z "},"Y":{"ha":833,"x_min":21,"x_max":813,"o":"m 353 0 l 353 347 l 21 963 l 163 963 l 418 451 l 675 963 l 813 963 l 481 358 l 481 0 l 353 0 z "},"Z":{"ha":833,"x_min":76,"x_max":729,"o":"m 76 0 l 76 101 l 594 856 l 108 856 l 108 963 l 729 963 l 729 861 l 211 107 l 728 107 l 728 0 l 76 0 z "},"a":{"ha":833,"x_min":115,"x_max":690,"o":"m 335 -18 q 175 38 235 -18 q 115 188 115 94 q 188 350 115 290 q 385 410 261 410 q 476 402 429 410 q 572 382 524 394 l 572 483 q 535 592 572 561 q 410 622 499 622 q 290 611 354 622 q 163 579 226 600 l 163 671 q 219 693 188 683 q 287 710 251 703 q 359 720 322 717 q 431 724 396 724 q 627 670 564 724 q 690 506 690 617 l 690 0 l 588 0 l 576 74 q 460 6 522 29 q 335 -18 397 -18 m 363 78 q 464 97 410 78 q 572 150 518 115 l 572 306 q 410 325 486 325 q 238 193 238 325 q 269 108 238 138 q 363 78 301 78 z "},"b":{"ha":833,"x_min":119,"x_max":753,"o":"m 453 -21 q 340 -3 394 -21 q 233 56 285 15 l 225 0 l 119 0 l 119 1028 l 243 1028 l 243 638 q 460 724 343 724 q 581 699 526 724 q 673 626 635 674 q 732 513 711 579 q 753 361 753 446 q 731 205 753 275 q 671 85 710 135 q 576 7 632 35 q 453 -21 521 -21 m 429 622 q 243 554 332 622 l 243 140 q 333 94 288 108 q 426 81 378 81 q 576 150 526 81 q 626 354 626 219 q 576 555 626 488 q 429 622 525 622 z "},"c":{"ha":833,"x_min":115,"x_max":714,"o":"m 242 344 q 306 146 242 206 q 506 86 371 86 q 607 99 553 86 q 714 136 661 111 l 714 43 q 612 1 671 17 q 483 -15 553 -15 q 204 77 293 -15 q 115 347 115 169 q 210 624 115 529 q 482 718 304 718 q 612 701 551 718 q 707 663 672 685 l 707 571 q 614 601 671 586 q 494 617 557 617 q 305 556 368 617 q 242 358 242 496 l 242 344 z "},"d":{"ha":833,"x_min":81,"x_max":714,"o":"m 378 -21 q 160 77 239 -21 q 81 347 81 175 q 101 503 81 433 q 162 622 122 572 q 256 697 201 671 q 381 724 311 724 q 493 703 443 724 q 590 642 543 682 l 590 1028 l 714 1028 l 714 0 l 604 0 l 593 67 q 490 1 544 22 q 378 -21 435 -21 m 414 81 q 590 150 496 81 l 590 553 q 501 606 544 589 q 406 622 458 622 q 207 353 207 622 q 260 151 207 222 q 414 81 313 81 z "},"e":{"ha":833,"x_min":97,"x_max":721,"o":"m 454 -21 q 189 73 281 -21 q 97 353 97 167 q 186 627 97 531 q 433 724 275 724 q 644 651 568 724 q 721 440 721 578 q 718 379 721 411 q 711 325 715 347 l 217 325 q 285 138 224 194 q 469 81 346 81 q 592 92 529 81 q 707 124 654 103 l 707 33 q 595 -6 661 8 q 454 -21 529 -21 m 431 628 q 281 574 335 628 q 217 411 226 521 l 608 411 q 610 432 610 422 q 610 450 610 442 q 563 584 610 540 q 431 628 515 628 z "},"f":{"ha":833,"x_min":79,"x_max":765,"o":"m 79 690 l 288 703 l 288 775 q 351 983 288 918 q 557 1047 415 1047 q 678 1034 621 1047 q 765 1008 736 1021 l 765 915 q 676 936 729 926 q 571 946 624 946 q 493 937 524 946 q 444 908 463 928 q 419 857 426 889 q 411 779 411 825 l 411 704 l 718 704 l 718 606 l 411 606 l 411 0 l 288 0 l 288 606 l 79 606 l 79 690 z "},"g":{"ha":833,"x_min":82,"x_max":713,"o":"m 376 -303 q 139 -247 244 -303 l 139 -157 q 367 -201 264 -201 q 537 -146 483 -201 q 590 33 590 -90 l 590 97 q 489 34 546 57 q 374 11 432 11 q 251 35 306 11 q 160 106 197 60 q 102 216 122 151 q 82 361 82 281 q 103 512 82 444 q 162 626 124 579 q 254 698 200 672 q 376 724 308 724 q 597 635 501 724 l 608 704 l 713 704 l 713 40 q 626 -215 713 -126 q 376 -303 539 -303 m 407 113 q 494 129 447 113 q 590 182 542 146 l 590 554 q 499 607 544 590 q 400 624 453 624 q 208 367 208 624 q 260 177 208 242 q 407 113 311 113 z "},"h":{"ha":833,"x_min":114,"x_max":719,"o":"m 114 1028 l 238 1028 l 238 629 q 372 699 303 674 q 513 724 442 724 q 666 670 613 724 q 719 514 719 617 l 719 0 l 596 0 l 596 471 q 565 585 596 550 q 465 621 533 621 q 349 602 406 621 q 238 547 292 583 l 238 0 l 114 0 l 114 1028 z "},"i":{"ha":833,"x_min":107,"x_max":735,"o":"m 107 99 l 367 99 l 367 606 l 154 606 l 154 704 l 490 704 l 490 99 l 735 99 l 735 0 l 107 0 l 107 99 m 406 828 q 340 852 365 828 q 315 917 315 876 q 340 983 315 958 q 406 1007 365 1007 q 472 983 447 1007 q 497 917 497 958 q 472 852 497 876 q 406 828 447 828 z "},"j":{"ha":833,"x_min":94,"x_max":582,"o":"m 94 -176 q 192 -194 139 -187 q 288 -201 244 -201 q 356 -194 325 -201 q 408 -166 386 -186 q 440 -112 429 -146 q 451 -29 451 -79 l 451 606 l 169 606 l 169 704 l 575 704 l 575 -28 q 558 -157 575 -104 q 507 -242 542 -210 q 419 -288 472 -274 q 294 -303 367 -303 q 194 -295 249 -303 q 94 -269 139 -287 l 94 -176 m 490 828 q 425 852 450 828 q 400 917 400 876 q 425 983 400 958 q 490 1007 450 1007 q 557 983 532 1007 q 582 917 582 958 q 557 852 582 876 q 490 828 532 828 z "},"k":{"ha":833,"x_min":143,"x_max":778,"o":"m 143 1028 l 267 1028 l 267 400 l 600 704 l 756 704 l 389 378 l 778 0 l 619 0 l 267 347 l 267 0 l 143 0 l 143 1028 z "},"l":{"ha":833,"x_min":96,"x_max":724,"o":"m 96 99 l 356 99 l 356 929 l 131 929 l 131 1028 l 479 1028 l 479 99 l 724 99 l 724 0 l 96 0 l 96 99 z "},"m":{"ha":833,"x_min":51,"x_max":788,"o":"m 671 521 q 654 604 671 579 q 593 629 638 629 q 533 619 565 629 q 472 588 500 608 q 478 521 478 561 l 478 0 l 361 0 l 361 519 q 344 603 361 578 q 286 629 328 629 q 224 619 256 629 q 168 592 193 608 l 168 0 l 51 0 l 51 704 l 147 704 l 157 654 q 231 705 189 686 q 317 724 272 724 q 451 653 415 724 q 534 706 488 688 q 631 724 581 724 q 749 676 710 724 q 788 526 788 629 l 788 0 l 671 0 l 671 521 z "},"n":{"ha":833,"x_min":118,"x_max":724,"o":"m 118 704 l 222 704 l 235 624 q 517 724 371 724 q 670 669 617 724 q 724 513 724 615 l 724 0 l 600 0 l 600 469 q 569 586 600 549 q 469 624 538 624 q 353 603 410 624 q 242 547 296 583 l 242 0 l 118 0 l 118 704 z "},"o":{"ha":833,"x_min":79,"x_max":754,"o":"m 417 -21 q 169 76 258 -21 q 79 351 79 174 q 169 627 79 531 q 417 724 258 724 q 665 627 575 724 q 754 351 754 531 q 665 76 754 174 q 417 -21 575 -21 m 417 81 q 574 147 521 81 q 628 351 628 214 q 574 556 628 490 q 417 622 521 622 q 259 556 313 622 q 206 351 206 490 q 259 147 206 214 q 417 81 313 81 z "},"p":{"ha":833,"x_min":119,"x_max":753,"o":"m 451 -21 q 344 -4 396 -21 q 243 49 292 13 l 243 -286 l 119 -286 l 119 704 l 224 704 l 235 631 q 336 697 281 671 q 460 724 392 724 q 675 627 597 724 q 753 361 753 531 q 732 206 753 276 q 672 85 711 136 q 577 7 633 35 q 451 -21 521 -21 m 431 622 q 243 551 335 622 l 243 140 q 333 94 288 108 q 426 81 378 81 q 576 149 525 81 q 626 354 626 218 q 576 557 626 492 q 431 622 525 622 z "},"q":{"ha":833,"x_min":81,"x_max":714,"o":"m 378 -21 q 253 5 308 -21 q 160 78 199 31 q 101 194 121 126 q 81 347 81 263 q 101 503 81 433 q 162 622 122 572 q 256 697 201 671 q 381 724 311 724 q 498 701 446 724 q 599 635 550 679 l 608 704 l 714 704 l 714 -286 l 590 -286 l 590 64 q 488 0 542 21 q 378 -21 433 -21 m 414 81 q 590 150 496 81 l 590 553 q 501 606 544 589 q 406 622 458 622 q 207 353 207 622 q 260 151 207 221 q 414 81 313 81 z "},"r":{"ha":833,"x_min":113,"x_max":740,"o":"m 113 0 l 113 99 l 289 99 l 289 606 l 114 606 l 114 704 l 393 704 l 408 601 q 506 681 453 653 q 639 710 558 710 q 696 706 667 710 q 740 694 725 701 l 740 583 q 689 594 718 590 q 628 597 660 597 q 514 582 565 597 q 413 518 463 567 l 413 99 l 643 99 l 643 0 l 113 0 z "},"s":{"ha":833,"x_min":119,"x_max":715,"o":"m 338 319 q 174 397 222 346 q 125 522 125 449 q 201 671 125 618 q 414 724 276 724 q 495 718 456 724 q 569 705 535 713 q 633 688 604 697 q 678 669 661 678 l 678 575 q 549 608 621 594 q 414 621 476 621 q 289 597 333 621 q 244 525 244 572 q 277 463 244 483 q 381 425 310 442 l 504 396 q 666 321 617 369 q 715 192 715 272 q 633 38 715 96 q 408 -21 551 -21 q 233 0 307 -21 q 119 43 160 21 l 119 140 q 243 101 168 119 q 410 82 318 82 q 547 110 501 82 q 593 188 593 139 q 563 249 593 226 q 460 290 533 272 l 338 319 z "},"t":{"ha":833,"x_min":78,"x_max":706,"o":"m 78 690 l 256 703 l 275 922 l 376 922 l 376 704 l 699 704 l 699 606 l 376 606 l 376 224 q 405 117 376 147 q 504 88 433 88 q 611 97 557 88 q 706 121 665 107 l 706 31 q 610 0 672 14 q 476 -14 549 -14 q 303 42 353 -14 q 253 211 253 97 l 253 606 l 78 606 l 78 690 z "},"u":{"ha":833,"x_min":114,"x_max":719,"o":"m 719 0 l 615 0 l 603 79 q 321 -21 467 -21 q 167 33 221 -21 q 114 189 114 86 l 114 704 l 238 704 l 238 232 q 269 117 238 153 q 368 82 300 82 q 485 101 428 82 q 596 156 542 119 l 596 704 l 719 704 l 719 0 z "},"v":{"ha":833,"x_min":65,"x_max":768,"o":"m 65 704 l 196 704 l 418 101 l 640 704 l 768 704 l 482 0 l 351 0 l 65 704 z "},"w":{"ha":833,"x_min":28,"x_max":806,"o":"m 532 0 l 415 454 l 299 0 l 174 0 l 28 704 l 154 704 l 247 133 l 365 571 l 474 571 l 590 117 l 683 704 l 806 704 l 657 0 l 532 0 z "},"x":{"ha":833,"x_min":97,"x_max":736,"o":"m 600 0 l 413 281 l 229 0 l 97 0 l 350 363 l 115 704 l 250 704 l 419 447 l 589 704 l 719 704 l 485 367 l 736 0 l 600 0 z "},"y":{"ha":833,"x_min":65,"x_max":768,"o":"m 197 -203 q 278 -178 249 -203 q 331 -89 307 -154 l 357 -17 l 65 704 l 196 704 l 417 96 l 640 704 l 768 704 l 431 -128 q 345 -262 393 -221 q 221 -303 297 -303 q 118 -283 165 -303 l 118 -194 q 197 -203 157 -203 z "},"z":{"ha":833,"x_min":115,"x_max":721,"o":"m 115 97 l 575 606 l 129 606 l 129 704 l 717 704 l 717 607 l 256 99 l 721 99 l 721 0 l 115 0 l 115 97 z "},"™":{"ha":833,"x_min":35,"x_max":785,"o":"m 785 963 l 785 599 l 707 599 l 707 864 l 628 685 l 557 685 l 478 864 l 478 599 l 400 599 l 400 963 l 499 963 l 593 746 l 689 963 l 785 963 m 147 599 l 147 890 l 35 890 l 35 963 l 349 963 l 349 890 l 236 890 l 236 599 l 147 599 z "},"ⁿ":{"ha":833,"x_min":171,"x_max":664,"o":"m 664 542 l 564 542 l 564 896 q 540 985 564 958 q 467 1011 515 1011 q 365 994 415 1011 q 271 950 315 978 l 271 542 l 171 542 l 171 1082 l 256 1082 l 265 1013 q 379 1074 319 1053 q 497 1094 439 1094 q 622 1053 579 1094 q 664 919 664 1011 l 664 542 z "},"ª":{"ha":833,"x_min":210,"x_max":622,"o":"m 536 481 l 526 531 q 361 467 446 467 q 251 506 292 467 q 210 608 210 544 q 262 721 210 681 q 406 761 314 761 q 522 746 464 761 l 522 807 q 500 878 522 857 q 421 899 478 899 q 244 867 338 899 l 244 936 q 335 967 285 957 q 439 978 385 978 q 578 940 533 978 q 622 822 622 901 l 622 481 l 536 481 m 622 383 l 622 306 l 219 306 l 219 383 l 622 383 m 389 542 q 522 586 450 542 l 522 685 q 472 692 499 689 q 421 694 446 694 q 308 614 308 694 q 389 542 308 542 z "},"º":{"ha":833,"x_min":185,"x_max":649,"o":"m 636 383 l 636 306 l 200 306 l 200 383 l 636 383 m 417 464 q 246 531 307 464 q 185 721 185 599 q 247 910 185 842 q 417 978 308 978 q 587 910 525 978 q 649 721 649 842 q 588 532 649 600 q 417 464 526 464 m 417 546 q 515 589 483 546 q 546 721 546 632 q 515 852 546 808 q 417 896 483 896 q 319 852 350 896 q 289 721 289 808 q 319 588 289 631 q 417 546 350 546 z "},"℅":{"ha":833,"x_min":47,"x_max":800,"o":"m 331 594 q 284 581 308 586 q 233 575 260 575 q 96 626 144 575 q 47 775 47 678 q 97 924 47 871 q 235 976 147 976 q 282 971 257 976 q 326 958 307 965 l 326 890 q 283 897 303 894 q 244 900 264 900 q 168 871 193 900 q 143 788 143 842 l 143 767 q 168 682 143 711 q 249 653 193 653 q 287 657 264 653 q 331 667 310 661 l 331 594 m 615 -18 q 480 34 528 -18 q 432 182 432 86 q 480 328 432 274 q 615 383 528 383 q 751 331 703 383 q 800 183 800 278 q 751 36 800 90 q 615 -18 703 -18 m 615 54 q 707 182 707 54 q 684 280 707 249 q 615 311 661 311 q 524 183 524 311 q 546 85 524 117 q 615 54 568 54 m 79 0 l 651 963 l 740 963 l 168 0 l 79 0 z "},"©":{"ha":833,"x_min":83,"x_max":750,"o":"m 417 149 q 282 173 343 149 q 176 241 221 197 q 108 346 132 285 q 83 479 83 407 q 108 614 83 553 q 176 719 132 675 q 282 788 221 764 q 417 813 343 813 q 551 788 490 813 q 657 719 613 764 q 726 614 701 675 q 750 481 750 553 q 726 347 750 407 q 657 242 701 286 q 551 173 613 197 q 417 149 490 149 m 417 206 q 526 225 476 206 q 610 281 575 244 q 665 367 646 317 q 683 481 683 418 q 665 594 683 543 q 611 681 646 644 q 527 736 576 717 q 417 756 478 756 q 307 736 356 756 q 223 681 258 717 q 169 593 188 644 q 150 479 150 542 q 169 367 150 417 q 222 281 188 317 q 306 225 257 244 q 417 206 356 206 m 260 481 q 306 619 260 569 q 436 669 353 669 q 524 651 485 669 l 524 599 q 438 611 486 611 q 361 580 389 611 q 333 489 333 549 l 333 472 q 361 383 333 415 q 438 350 389 350 q 485 354 461 350 q 529 365 510 358 l 529 313 q 485 298 511 304 q 436 292 460 292 q 306 340 353 292 q 260 481 260 389 z "},"®":{"ha":833,"x_min":83,"x_max":750,"o":"m 417 383 q 282 408 343 383 q 176 476 221 432 q 108 581 132 519 q 83 714 83 642 q 108 849 83 788 q 176 954 132 910 q 282 1023 221 999 q 417 1047 343 1047 q 551 1023 490 1047 q 657 954 613 999 q 726 849 701 910 q 750 715 750 788 q 726 581 750 642 q 657 476 701 521 q 551 408 613 432 q 417 383 490 383 m 417 440 q 526 460 476 440 q 610 515 575 479 q 665 602 646 551 q 683 715 683 653 q 665 828 683 778 q 611 915 646 879 q 527 971 576 951 q 417 990 478 990 q 307 971 356 990 q 223 915 258 951 q 169 828 188 879 q 150 714 150 776 q 169 601 150 651 q 222 515 188 551 q 306 460 257 479 q 417 440 356 440 m 297 536 l 297 900 l 432 900 q 523 870 490 900 q 556 786 556 840 q 537 724 556 750 q 485 688 518 699 l 581 536 l 504 536 l 422 676 l 365 676 l 365 536 l 297 536 m 365 729 l 419 729 q 485 785 485 729 q 469 829 485 813 q 429 846 454 846 l 365 846 l 365 729 z "},"℗":{"ha":833,"x_min":83,"x_max":750,"o":"m 306 301 l 306 665 l 438 665 q 531 634 497 665 q 565 546 565 603 q 531 461 565 492 q 438 431 497 431 l 374 431 l 374 301 l 306 301 m 374 485 l 431 485 q 493 549 493 485 q 431 611 493 611 l 374 611 l 374 485 m 417 149 q 282 173 343 149 q 176 241 221 197 q 108 346 132 285 q 83 479 83 407 q 108 614 83 553 q 176 719 132 675 q 282 788 221 764 q 417 813 343 813 q 551 788 490 813 q 657 719 613 764 q 726 614 701 675 q 750 481 750 553 q 726 347 750 407 q 657 242 701 286 q 551 173 613 197 q 417 149 490 149 m 417 206 q 526 225 476 206 q 610 281 575 244 q 665 367 646 317 q 683 481 683 418 q 665 594 683 543 q 611 681 646 644 q 527 736 576 717 q 417 756 478 756 q 307 736 356 756 q 223 681 258 717 q 169 593 188 644 q 150 479 150 542 q 169 367 150 417 q 222 281 188 317 q 306 225 257 244 q 417 206 356 206 z "},"∂":{"ha":833,"x_min":74,"x_max":760,"o":"m 438 983 q 678 876 597 983 q 760 571 760 768 q 658 130 760 281 q 364 -21 557 -21 q 149 56 225 -21 q 74 260 74 132 q 98 390 74 331 q 167 491 122 449 q 272 557 211 533 q 406 581 332 581 q 529 559 468 581 q 638 501 590 538 q 640 535 639 518 q 640 571 640 553 q 419 878 640 878 q 193 799 318 878 l 193 903 q 438 983 307 983 m 372 83 q 542 166 476 83 q 629 408 607 249 q 531 464 583 444 q 419 483 478 483 q 257 426 315 483 q 199 268 199 368 q 244 130 199 176 q 372 83 289 83 z "},"∏":{"ha":833,"x_min":110,"x_max":724,"o":"m 596 -167 l 596 858 l 238 858 l 238 -167 l 110 -167 l 110 963 l 724 963 l 724 -167 l 596 -167 z "},"∑":{"ha":833,"x_min":56,"x_max":776,"o":"m 56 -167 l 56 -62 l 365 401 l 68 858 l 68 963 l 735 963 l 735 858 l 201 858 l 500 400 l 188 -62 l 776 -62 l 776 -167 l 56 -167 z "},"∕":{"ha":833,"x_min":104,"x_max":729,"o":"m 104 0 l 644 963 l 729 963 l 189 0 l 104 0 z "},"∙":{"ha":833,"x_min":306,"x_max":528,"o":"m 417 358 q 336 389 367 358 q 306 469 306 419 q 336 549 306 518 q 417 579 367 579 q 497 549 467 579 q 528 469 528 518 q 497 389 528 419 q 417 358 467 358 z "},"√":{"ha":833,"x_min":38,"x_max":794,"o":"m 676 1028 l 794 1028 l 439 0 l 304 0 l 144 406 l 38 406 l 38 503 l 229 503 l 371 118 l 676 1028 z "},"∞":{"ha":833,"x_min":26,"x_max":807,"o":"m 615 272 q 508 303 556 272 q 414 404 461 333 q 317 301 364 329 q 213 272 271 272 q 78 329 129 272 q 26 476 26 386 q 41 559 26 521 q 81 625 56 597 q 141 668 106 653 q 218 683 176 683 q 324 653 276 683 q 417 547 371 622 q 513 653 465 622 q 621 683 560 683 q 756 626 704 683 q 807 476 807 568 q 792 394 807 432 q 752 330 778 357 q 692 288 726 303 q 615 272 657 272 m 613 596 q 535 570 568 596 q 458 475 501 544 q 532 385 496 410 q 613 360 568 360 q 683 392 656 360 q 710 476 710 425 q 683 563 710 529 q 613 596 657 596 m 221 360 q 299 385 265 360 q 374 475 333 410 q 300 569 335 543 q 221 596 265 596 q 150 563 176 596 q 124 476 124 529 q 151 392 124 425 q 221 360 178 360 z "},"∫":{"ha":833,"x_min":151,"x_max":681,"o":"m 274 -303 q 208 -297 242 -303 q 151 -282 175 -292 l 151 -190 q 203 -199 179 -197 q 246 -201 226 -201 q 329 -174 304 -201 q 354 -97 354 -147 l 354 826 q 408 989 354 931 q 560 1047 463 1047 q 624 1042 590 1047 q 681 1026 657 1036 l 681 935 q 629 944 653 942 q 586 946 606 946 q 503 919 528 946 q 478 842 478 892 l 478 -82 q 424 -244 478 -186 q 274 -303 369 -303 z "},"◊":{"ha":833,"x_min":67,"x_max":767,"o":"m 356 0 l 67 481 l 356 963 l 478 963 l 767 481 l 478 0 l 356 0 m 640 481 l 417 857 l 193 481 l 417 106 l 640 481 z "},"∆":{"ha":833,"x_min":65,"x_max":767,"o":"m 343 963 l 489 963 l 767 107 l 767 0 l 65 0 l 65 107 l 343 963 m 190 107 l 636 107 l 413 846 l 190 107 z "},"ℓ":{"ha":833,"x_min":69,"x_max":708,"o":"m 450 -24 q 262 33 322 -24 q 201 215 201 89 l 201 229 q 85 183 144 204 l 69 178 l 69 282 l 85 288 q 145 310 117 299 q 201 335 174 322 l 201 700 q 269 959 201 871 q 468 1047 338 1047 q 644 983 581 1047 q 708 806 708 918 q 610 530 708 664 q 317 288 513 396 l 317 228 q 350 108 317 140 q 464 75 383 75 q 567 85 513 75 q 665 113 621 96 l 665 24 q 565 -10 621 3 q 450 -24 508 -24 m 317 396 q 445 492 392 442 q 533 593 499 542 q 582 697 567 644 q 597 800 597 749 q 563 910 597 869 q 465 951 529 951 q 353 894 389 951 q 317 694 317 836 l 317 396 z "},"№":{"ha":833,"x_min":56,"x_max":806,"o":"m 149 783 l 149 0 l 56 0 l 56 963 l 179 963 l 396 196 l 396 963 l 488 963 l 488 0 l 364 0 l 149 783 m 676 601 q 583 645 617 601 q 549 789 549 689 q 583 930 549 886 q 676 974 617 974 q 772 930 739 974 q 806 789 806 886 q 772 645 806 689 q 676 601 739 601 m 676 668 q 719 700 708 668 q 729 789 729 732 q 719 876 729 843 q 676 908 708 908 q 635 876 644 908 q 625 789 625 843 q 635 700 625 732 q 676 668 644 668 m 794 557 l 794 483 l 560 483 l 560 557 l 794 557 z "},"℮":{"ha":833,"x_min":40,"x_max":793,"o":"m 649 506 q 654 513 654 506 l 654 672 q 646 697 654 686 q 542 765 601 742 q 415 789 482 789 q 188 693 274 789 q 181 669 181 683 l 181 513 q 186 506 181 506 l 649 506 m 725 278 q 590 169 669 204 q 417 135 511 135 q 265 160 333 135 q 146 231 196 185 q 68 340 96 276 q 40 479 40 403 q 68 618 40 554 q 146 728 96 682 q 265 801 196 775 q 415 828 333 828 q 568 802 499 828 q 688 731 638 776 q 765 624 738 686 q 793 486 793 561 l 793 471 l 186 471 q 181 465 181 471 l 181 288 q 189 267 181 275 q 417 174 269 174 q 551 201 489 174 q 656 278 614 228 l 725 278 z "},"‘":{"ha":833,"x_min":275,"x_max":553,"o":"m 553 963 l 403 590 l 333 590 q 275 632 275 590 q 294 692 275 657 q 336 764 314 728 l 458 963 l 553 963 z "},"’":{"ha":833,"x_min":278,"x_max":556,"o":"m 278 590 l 428 963 l 497 963 q 556 921 556 963 q 536 860 556 896 q 494 789 517 825 l 372 590 l 278 590 z "},"‚":{"ha":833,"x_min":257,"x_max":535,"o":"m 257 -232 l 407 140 l 476 140 q 535 99 535 140 q 515 38 535 74 q 474 -33 496 3 l 351 -232 l 257 -232 z "},"“":{"ha":833,"x_min":126,"x_max":701,"o":"m 404 963 l 254 590 l 185 590 q 126 632 126 590 q 146 692 126 657 q 188 764 165 728 l 310 963 l 404 963 m 701 963 l 551 590 l 482 590 q 424 632 424 590 q 443 692 424 657 q 485 764 463 728 l 607 963 l 701 963 z "},"”":{"ha":833,"x_min":115,"x_max":690,"o":"m 413 590 l 563 963 l 632 963 q 690 921 690 963 q 671 860 690 896 q 629 789 651 825 l 507 590 l 413 590 m 115 590 l 265 963 l 335 963 q 393 921 393 963 q 374 860 393 896 q 332 789 354 825 l 210 590 l 115 590 z "},"„":{"ha":833,"x_min":99,"x_max":674,"o":"m 396 -232 l 546 140 l 615 140 q 674 99 674 140 q 654 38 674 74 q 613 -33 635 3 l 490 -232 l 396 -232 m 99 -232 l 249 140 l 318 140 q 376 99 376 140 q 357 38 376 74 q 315 -33 338 3 l 193 -232 l 99 -232 z "},"‛":{"ha":833,"x_min":275,"x_max":553,"o":"m 458 590 l 336 789 q 294 860 314 825 q 275 921 275 896 q 333 963 275 963 l 403 963 l 553 590 l 458 590 z "},"‟":{"ha":833,"x_min":126,"x_max":701,"o":"m 607 590 l 485 789 q 443 860 463 825 q 424 921 424 896 q 482 963 424 963 l 551 963 l 701 590 l 607 590 m 310 590 l 188 789 q 146 860 165 825 q 126 921 126 896 q 185 963 126 963 l 254 963 l 404 590 l 310 590 z "},"ʻ":{"ha":833,"x_min":303,"x_max":582,"o":"m 582 926 q 476 765 517 851 q 435 576 436 678 l 390 576 q 324 592 344 576 q 303 640 303 607 q 322 728 303 682 q 371 818 340 774 q 441 902 401 863 q 522 972 481 942 l 582 926 z "},"ʼ":{"ha":833,"x_min":251,"x_max":531,"o":"m 251 613 q 357 774 317 688 q 399 963 397 861 l 443 963 q 510 947 489 963 q 531 899 531 932 q 512 811 531 857 q 463 721 493 765 q 392 637 432 676 q 311 567 353 597 l 251 613 z "},"′":{"ha":833,"x_min":256,"x_max":565,"o":"m 354 590 l 256 590 l 403 961 q 440 978 419 972 q 482 983 461 983 q 565 961 529 983 l 354 590 z "},"″":{"ha":833,"x_min":119,"x_max":717,"o":"m 218 590 l 119 590 l 267 961 q 304 978 283 972 q 346 983 325 983 q 429 961 393 983 l 218 590 m 506 590 l 407 590 l 554 961 q 592 978 571 972 q 633 983 613 983 q 717 961 681 983 l 506 590 z "},"ʹ":{"ha":833,"x_min":256,"x_max":565,"o":"m 354 590 l 256 590 l 403 961 q 440 978 419 972 q 482 983 461 983 q 565 961 529 983 l 354 590 z "},"ʺ":{"ha":833,"x_min":119,"x_max":717,"o":"m 218 590 l 119 590 l 267 961 q 304 978 283 972 q 346 983 325 983 q 429 961 393 983 l 218 590 m 506 590 l 407 590 l 554 961 q 592 978 571 972 q 633 983 613 983 q 717 961 681 983 l 506 590 z "},"ı":{"ha":833,"x_min":107,"x_max":735,"o":"m 107 99 l 367 99 l 367 606 l 154 606 l 154 704 l 490 704 l 490 99 l 735 99 l 735 0 l 107 0 l 107 99 z "},"ȷ":{"ha":833,"x_min":94,"x_max":575,"o":"m 94 -176 q 192 -194 139 -187 q 288 -201 244 -201 q 356 -194 325 -201 q 408 -166 386 -186 q 440 -112 429 -146 q 451 -29 451 -79 l 451 606 l 169 606 l 169 704 l 575 704 l 575 -28 q 558 -157 575 -104 q 507 -242 542 -210 q 419 -288 472 -274 q 294 -303 367 -303 q 194 -295 249 -303 q 94 -269 139 -287 l 94 -176 z "},"Ĳ":{"ha":833,"x_min":103,"x_max":731,"o":"m 103 0 l 103 963 l 231 963 l 231 0 l 103 0 m 353 113 q 413 94 379 100 q 475 88 446 88 q 533 96 508 88 q 572 126 557 104 q 595 185 588 149 q 603 279 603 222 l 603 963 l 731 963 l 731 281 q 673 50 731 124 q 492 -24 615 -24 q 422 -17 456 -24 q 353 8 389 -11 l 353 113 z "},"Ŀ":{"ha":833,"x_min":139,"x_max":728,"o":"m 139 0 l 139 963 l 267 963 l 267 107 l 728 107 l 728 0 l 139 0 m 579 443 q 519 465 543 443 q 496 524 496 488 q 519 582 496 560 q 579 604 543 604 q 639 582 615 604 q 663 524 663 560 q 639 465 663 488 q 579 443 615 443 z "},"ĳ":{"ha":833,"x_min":139,"x_max":694,"o":"m 553 704 l 676 704 l 676 -118 q 501 -303 676 -303 q 442 -299 469 -303 q 383 -285 415 -294 l 383 -186 q 426 -190 401 -189 q 472 -192 450 -192 q 533 -177 513 -192 q 553 -129 553 -162 l 553 704 m 608 829 q 545 851 568 829 q 522 913 522 874 q 545 974 522 951 q 608 996 568 996 q 672 974 649 996 q 694 913 694 951 q 672 851 694 874 q 608 829 649 829 m 163 0 l 163 704 l 286 704 l 286 0 l 163 0 m 225 829 q 162 851 185 829 q 139 913 139 874 q 162 974 139 951 q 225 996 185 996 q 288 974 265 996 q 311 913 311 951 q 288 851 311 874 q 225 829 265 829 z "},"ŀ":{"ha":833,"x_min":96,"x_max":875,"o":"m 96 99 l 356 99 l 356 929 l 131 929 l 131 1028 l 479 1028 l 479 99 l 724 99 l 724 0 l 96 0 l 96 99 m 792 426 q 732 449 756 426 q 708 507 708 471 q 732 565 708 543 q 792 588 756 588 q 851 565 828 588 q 875 507 875 543 q 851 449 875 471 q 792 426 828 426 z "},"ŉ":{"ha":833,"x_min":0,"x_max":724,"o":"m 118 704 l 222 704 l 235 624 q 517 724 371 724 q 670 669 617 724 q 724 513 724 615 l 724 0 l 600 0 l 600 469 q 569 586 600 549 q 469 624 538 624 q 353 603 410 624 q 242 547 296 583 l 242 0 l 118 0 l 118 704 m 0 765 l 39 1069 l 93 1069 q 155 1056 136 1069 q 174 1018 174 1043 q 170 989 174 1007 q 156 942 167 971 l 92 765 l 0 765 z "},"Þ":{"ha":833,"x_min":135,"x_max":768,"o":"m 258 963 l 258 786 l 465 786 q 590 766 533 786 q 685 708 646 746 q 747 615 725 669 q 768 493 768 561 q 747 372 768 426 q 685 280 725 318 q 590 221 646 242 q 465 200 533 200 l 258 200 l 258 0 l 135 0 l 135 963 l 258 963 m 258 683 l 258 304 l 456 304 q 592 351 546 304 q 639 493 639 399 q 592 636 639 589 q 456 683 546 683 l 258 683 z "},"Æ":{"ha":833,"x_min":3,"x_max":799,"o":"m 406 0 l 406 240 l 196 240 l 126 0 l 3 0 l 301 963 l 799 963 l 799 858 l 528 858 l 528 549 l 719 549 l 719 444 l 528 444 l 528 104 l 799 104 l 799 0 l 406 0 m 226 344 l 406 344 l 406 858 l 378 858 l 226 344 z "},"Œ":{"ha":833,"x_min":42,"x_max":799,"o":"m 363 0 q 206 36 268 0 q 107 136 143 72 q 56 289 71 200 q 42 483 42 378 q 60 688 42 599 q 117 839 78 778 q 218 931 156 900 q 368 963 281 963 l 799 963 l 799 858 l 528 858 l 528 549 l 719 549 l 719 444 l 528 444 l 528 104 l 799 104 l 799 0 l 363 0 m 406 104 l 406 858 l 371 858 q 215 769 263 858 q 168 482 168 681 q 215 197 168 289 q 367 104 263 106 l 406 104 z "},"ẞ":{"ha":833,"x_min":103,"x_max":756,"o":"m 469 -21 q 398 -12 433 -21 q 331 14 363 -4 l 331 117 q 388 99 353 107 q 461 90 424 90 q 626 275 626 90 q 588 401 626 360 q 478 442 549 442 q 438 440 458 442 q 394 435 418 438 l 394 524 l 561 840 q 490 865 526 857 q 417 872 454 872 q 276 808 321 872 q 231 607 231 744 l 231 0 l 103 0 l 103 601 q 181 884 103 785 q 415 983 260 983 q 551 963 485 983 q 664 907 618 942 l 664 814 l 517 544 l 526 544 q 692 472 629 544 q 756 276 756 400 q 735 153 756 208 q 678 60 715 99 q 588 0 640 21 q 469 -21 535 -21 z "},"þ":{"ha":833,"x_min":119,"x_max":753,"o":"m 453 -21 q 344 -4 396 -21 q 243 49 292 13 l 243 -286 l 119 -286 l 119 1028 l 243 1028 l 243 638 q 460 724 343 724 q 581 699 526 724 q 673 626 635 674 q 732 513 711 579 q 753 361 753 446 q 731 205 753 275 q 671 85 710 135 q 576 7 632 35 q 453 -21 521 -21 m 429 622 q 243 554 332 622 l 243 140 q 333 94 288 108 q 426 81 378 81 q 576 150 526 81 q 626 354 626 219 q 576 555 626 488 q 429 622 525 622 z "},"æ":{"ha":833,"x_min":38,"x_max":799,"o":"m 253 724 q 359 701 317 724 q 422 619 401 678 q 500 699 453 674 q 600 724 547 724 q 749 651 700 724 q 799 439 799 579 q 796 381 799 413 q 788 325 793 350 l 458 325 q 505 143 464 203 q 632 83 546 83 q 705 94 664 83 q 786 126 746 104 l 786 35 q 703 -5 751 8 q 610 -18 656 -18 q 428 64 494 -18 q 341 5 390 28 q 231 -18 292 -18 q 91 35 144 -18 q 38 190 38 89 q 56 287 38 246 q 107 355 75 328 q 182 396 139 382 q 274 410 225 410 q 347 403 308 410 l 347 464 q 319 587 347 551 q 231 622 292 622 q 160 613 199 622 q 85 583 121 603 l 85 675 q 159 709 115 694 q 253 724 203 724 m 388 128 q 347 324 351 211 q 328 324 338 324 q 310 325 319 325 q 198 299 236 325 q 160 196 160 272 q 263 78 160 78 q 388 128 326 78 m 592 628 q 501 573 535 628 q 460 411 467 518 l 685 411 q 687 435 686 426 q 688 450 688 443 q 592 628 688 628 z "},"œ":{"ha":833,"x_min":42,"x_max":799,"o":"m 488 325 q 522 141 490 199 q 636 83 554 83 q 707 94 668 83 q 786 126 746 104 l 786 35 q 706 -5 751 8 q 614 -18 660 -18 q 501 13 547 -18 q 429 97 456 44 q 260 -18 378 -18 q 93 77 144 -18 q 42 353 42 172 q 55 506 42 438 q 95 623 68 575 q 164 697 122 671 q 263 724 206 724 q 435 592 388 724 q 468 654 449 629 q 510 694 488 679 q 556 717 532 710 q 603 724 579 724 q 751 651 703 724 q 799 439 799 579 q 796 381 799 413 q 788 325 793 350 l 488 325 m 161 353 q 169 224 161 276 q 192 141 178 172 q 227 97 207 110 q 271 83 247 83 q 314 97 294 83 q 347 141 333 110 q 369 224 361 172 q 376 353 376 276 q 369 481 376 429 q 347 565 361 533 q 314 609 333 596 q 271 622 294 622 q 227 609 247 622 q 192 565 207 596 q 169 481 178 533 q 161 353 161 429 m 594 628 q 516 573 540 628 q 488 411 492 518 l 685 411 q 687 435 686 426 q 688 450 688 443 q 594 628 688 628 z "},"ß":{"ha":833,"x_min":117,"x_max":757,"o":"m 499 689 q 542 756 531 726 q 553 822 553 786 q 511 919 553 890 q 410 949 469 949 q 275 888 313 949 q 238 700 238 826 l 238 0 l 117 0 l 117 697 q 188 958 117 869 q 411 1047 260 1047 q 601 989 531 1047 q 672 828 672 931 q 667 772 672 797 q 649 724 661 747 q 621 676 638 700 q 582 625 604 653 q 539 570 554 590 q 524 524 524 550 q 542 476 524 496 q 610 422 561 456 l 628 410 q 723 317 689 368 q 757 190 757 265 q 694 38 757 96 q 514 -21 631 -21 q 438 -11 481 -21 q 357 18 394 -1 l 357 114 q 443 86 400 94 q 515 78 486 78 q 609 110 578 78 q 640 189 640 142 q 619 263 640 233 q 543 331 597 293 l 525 343 q 438 422 465 385 q 410 513 410 458 q 436 602 410 560 q 499 689 463 644 z "},"ſ":{"ha":833,"x_min":288,"x_max":765,"o":"m 288 775 q 351 983 288 918 q 557 1047 415 1047 q 678 1034 621 1047 q 765 1008 736 1021 l 765 915 q 676 936 729 926 q 571 946 624 946 q 493 937 524 946 q 444 908 463 928 q 419 857 426 889 q 411 779 411 825 l 411 0 l 288 0 l 288 775 z "},"ĸ":{"ha":833,"x_min":143,"x_max":778,"o":"m 143 704 l 267 704 l 267 386 l 600 704 l 756 704 l 389 365 l 778 0 l 619 0 l 267 333 l 267 0 l 143 0 l 143 704 z "},"Ŋ":{"ha":833,"x_min":97,"x_max":738,"o":"m 478 -193 q 531 -187 506 -193 q 574 -165 556 -182 q 602 -119 592 -149 q 613 -43 613 -90 l 613 7 l 214 788 l 214 0 l 97 0 l 97 963 l 231 963 l 621 203 l 621 963 l 738 963 l 738 -26 q 678 -240 738 -178 q 501 -303 618 -303 q 417 -295 453 -303 q 351 -275 381 -287 l 351 -175 q 406 -187 372 -182 q 478 -193 440 -193 z "},"ƒ":{"ha":833,"x_min":42,"x_max":793,"o":"m 628 946 q 505 910 544 946 q 465 779 465 874 l 465 704 l 746 704 l 746 606 l 465 606 l 465 -33 q 449 -160 465 -108 q 401 -244 433 -212 q 319 -289 368 -275 q 206 -303 271 -303 q 115 -293 160 -303 q 42 -271 69 -283 l 42 -178 q 118 -194 74 -187 q 204 -201 163 -201 q 306 -165 271 -201 q 342 -35 342 -128 l 342 606 l 149 606 l 149 690 l 342 701 l 342 775 q 360 901 342 850 q 415 985 379 953 q 502 1033 451 1018 q 618 1047 553 1047 q 717 1037 669 1047 q 793 1014 764 1026 l 793 921 q 713 939 757 932 q 628 946 668 946 z "},"ŋ":{"ha":833,"x_min":118,"x_max":724,"o":"m 600 469 q 569 586 600 549 q 469 624 538 624 q 353 603 410 624 q 242 547 296 583 l 242 0 l 118 0 l 118 704 l 222 704 l 235 624 q 517 724 371 724 q 670 669 617 724 q 724 513 724 615 l 724 -67 q 511 -303 724 -303 q 385 -281 446 -303 l 385 -192 q 435 -200 407 -197 q 486 -203 463 -203 q 576 -175 551 -203 q 600 -74 600 -147 l 600 469 z "},"Ð":{"ha":833,"x_min":28,"x_max":778,"o":"m 117 449 l 28 449 l 28 542 l 117 542 l 117 963 l 343 963 q 528 935 447 963 q 664 848 608 907 q 749 698 719 789 q 778 481 778 607 q 747 262 778 353 q 659 113 717 171 q 520 27 601 54 q 338 0 439 0 l 117 0 l 117 449 m 244 449 l 244 101 l 324 101 q 565 188 483 101 q 646 465 646 274 l 646 497 q 566 774 646 686 q 324 861 486 861 l 244 861 l 244 542 l 450 542 l 450 449 l 244 449 z "},"Đ":{"ha":833,"x_min":28,"x_max":778,"o":"m 117 449 l 28 449 l 28 542 l 117 542 l 117 963 l 343 963 q 528 935 447 963 q 664 848 608 907 q 749 698 719 789 q 778 481 778 607 q 747 262 778 353 q 659 113 717 171 q 520 27 601 54 q 338 0 439 0 l 117 0 l 117 449 m 244 449 l 244 101 l 324 101 q 565 188 483 101 q 646 465 646 274 l 646 497 q 566 774 646 686 q 324 861 486 861 l 244 861 l 244 542 l 450 542 l 450 449 l 244 449 z "},"Ħ":{"ha":833,"x_min":14,"x_max":819,"o":"m 103 696 l 14 696 l 14 789 l 103 789 l 103 963 l 231 963 l 231 789 l 603 789 l 603 963 l 731 963 l 731 789 l 819 789 l 819 696 l 731 696 l 731 0 l 603 0 l 603 440 l 231 440 l 231 0 l 103 0 l 103 696 m 603 544 l 603 696 l 231 696 l 231 544 l 603 544 z "},"Ŧ":{"ha":833,"x_min":63,"x_max":771,"o":"m 353 0 l 353 439 l 157 439 l 157 532 l 353 532 l 353 856 l 63 856 l 63 963 l 771 963 l 771 856 l 481 856 l 481 532 l 676 532 l 676 439 l 481 439 l 481 0 l 353 0 z "},"Ł":{"ha":833,"x_min":42,"x_max":756,"o":"m 167 0 l 167 357 l 42 285 l 42 388 l 167 460 l 167 963 l 294 963 l 294 533 l 557 686 l 557 582 l 294 431 l 294 107 l 756 107 l 756 0 l 167 0 z "},"Ø":{"ha":833,"x_min":69,"x_max":764,"o":"m 417 983 q 621 911 540 983 l 686 1019 l 764 971 l 683 838 q 764 479 764 706 q 675 108 764 239 q 417 -24 586 -24 q 211 47 292 -24 l 147 -60 l 69 -11 l 149 122 q 69 481 69 249 q 92 694 69 600 q 158 852 114 788 q 267 950 201 917 q 417 983 332 983 m 417 872 q 253 774 306 872 q 201 481 201 675 q 228 253 201 340 l 558 806 q 417 872 504 872 m 632 479 q 625 604 632 547 q 606 706 618 661 l 275 154 q 417 88 326 88 q 580 186 528 88 q 632 479 632 285 z "},"ð":{"ha":833,"x_min":67,"x_max":717,"o":"m 225 793 l 339 899 q 267 926 306 914 q 185 947 228 938 l 185 1047 q 310 1017 253 1036 q 417 971 368 997 l 542 1086 l 596 1022 l 488 924 q 597 808 553 872 q 668 672 642 743 q 706 526 694 600 q 717 381 717 451 q 635 81 717 182 q 393 -21 554 -21 q 258 3 318 -21 q 155 72 197 26 q 90 181 113 117 q 67 326 67 244 q 89 469 67 406 q 151 576 111 532 q 249 644 192 621 q 375 668 306 668 q 428 664 400 668 q 486 649 457 660 q 543 619 515 638 q 594 569 571 600 q 415 856 546 767 l 279 731 l 225 793 m 390 81 q 596 322 596 81 q 542 506 596 444 q 389 567 488 567 q 242 508 290 567 q 193 324 193 449 q 243 139 193 197 q 390 81 293 81 z "},"đ":{"ha":833,"x_min":81,"x_max":811,"o":"m 378 -21 q 160 77 239 -21 q 81 347 81 175 q 101 503 81 433 q 162 622 122 572 q 256 697 201 671 q 381 724 311 724 q 493 703 443 724 q 590 642 543 682 l 590 826 l 344 826 l 344 915 l 590 915 l 590 1028 l 714 1028 l 714 915 l 811 915 l 811 826 l 714 826 l 714 0 l 604 0 l 593 67 q 490 1 544 22 q 378 -21 435 -21 m 414 81 q 590 150 496 81 l 590 553 q 501 606 544 589 q 406 622 458 622 q 207 353 207 622 q 260 151 207 222 q 414 81 313 81 z "},"ħ":{"ha":833,"x_min":15,"x_max":719,"o":"m 15 915 l 114 915 l 114 1028 l 238 1028 l 238 915 l 494 915 l 494 826 l 238 826 l 238 629 q 372 699 303 674 q 513 724 442 724 q 666 670 613 724 q 719 514 719 617 l 719 0 l 596 0 l 596 471 q 565 585 596 550 q 465 621 533 621 q 349 602 406 621 q 238 547 292 583 l 238 0 l 114 0 l 114 826 l 15 826 l 15 915 z "},"ŧ":{"ha":833,"x_min":78,"x_max":706,"o":"m 78 690 l 256 703 l 275 922 l 376 922 l 376 704 l 699 704 l 699 606 l 376 606 l 376 411 l 699 411 l 699 324 l 376 324 l 376 224 q 405 117 376 147 q 504 88 433 88 q 611 97 557 88 q 706 121 665 107 l 706 31 q 610 0 672 14 q 476 -14 549 -14 q 303 42 353 -14 q 253 211 253 97 l 253 324 l 78 324 l 78 411 l 253 411 l 253 606 l 78 606 l 78 690 z "},"ł":{"ha":833,"x_min":96,"x_max":724,"o":"m 96 99 l 356 99 l 356 426 l 150 325 l 150 429 l 356 531 l 356 929 l 131 929 l 131 1028 l 479 1028 l 479 592 l 685 693 l 685 589 l 479 488 l 479 99 l 724 99 l 724 0 l 96 0 l 96 99 z "},"ø":{"ha":833,"x_min":79,"x_max":754,"o":"m 89 8 l 156 92 q 79 351 79 188 q 169 627 79 531 q 417 724 258 724 q 615 668 535 724 l 679 747 l 744 694 l 678 611 q 734 499 714 564 q 754 351 754 433 q 665 76 754 174 q 417 -21 575 -21 q 217 35 300 -21 l 154 -44 l 89 8 m 206 351 q 233 189 206 253 l 547 582 q 417 622 496 622 q 259 556 313 622 q 206 351 206 490 m 417 81 q 574 147 521 81 q 628 351 628 214 q 599 513 628 450 l 286 121 q 417 81 335 81 z "},"̧":{"ha":833,"x_min":308,"x_max":525,"o":"m 400 -89 q 492 -116 458 -89 q 525 -187 525 -143 q 485 -292 525 -240 q 363 -387 446 -343 l 308 -342 q 396 -269 367 -304 q 425 -206 425 -233 q 371 -168 425 -168 q 318 -172 347 -168 l 318 -100 q 400 -89 358 -89 z "},"¸":{"ha":833,"x_min":308,"x_max":525,"o":"m 400 -89 q 492 -116 458 -89 q 525 -187 525 -143 q 485 -292 525 -240 q 363 -387 446 -343 l 308 -342 q 396 -269 367 -304 q 425 -206 425 -233 q 371 -168 425 -168 q 318 -172 347 -168 l 318 -100 q 400 -89 358 -89 z "},"̦":{"ha":833,"x_min":338,"x_max":496,"o":"m 338 -383 l 385 -92 l 426 -92 q 496 -135 496 -92 q 490 -165 496 -146 q 475 -211 485 -185 l 417 -383 l 338 -383 z "},"̒":{"ha":833,"x_min":336,"x_max":496,"o":"m 496 1119 l 447 817 l 407 817 q 336 860 336 817 q 342 892 336 871 q 357 938 349 913 l 417 1119 l 496 1119 z "},"̨":{"ha":833,"x_min":297,"x_max":536,"o":"m 518 0 q 430 -88 460 -44 q 400 -174 400 -132 q 476 -229 400 -229 q 503 -228 489 -229 q 536 -222 517 -226 l 536 -294 q 447 -310 500 -310 q 336 -279 375 -310 q 297 -192 297 -249 q 335 -80 297 -133 q 444 17 374 -26 l 518 0 z "},"˛":{"ha":833,"x_min":297,"x_max":536,"o":"m 518 0 q 430 -88 460 -44 q 400 -174 400 -132 q 476 -229 400 -229 q 503 -228 489 -229 q 536 -222 517 -226 l 536 -294 q 447 -310 500 -310 q 336 -279 375 -310 q 297 -192 297 -249 q 335 -80 297 -133 q 444 17 374 -26 l 518 0 z "},"Ç":{"ha":833,"x_min":82,"x_max":735,"o":"m 735 35 q 631 -1 690 11 q 514 -14 572 -14 q 191 105 300 -14 q 82 478 82 224 q 193 853 82 732 q 514 974 304 974 q 624 963 568 974 q 724 931 679 951 l 724 828 q 619 855 672 847 q 524 863 567 863 q 292 774 371 863 q 214 496 214 686 l 214 463 q 294 186 214 275 q 526 97 374 97 q 632 107 578 97 q 735 138 686 117 l 735 35 m 465 -89 q 556 -116 524 -89 q 589 -187 589 -143 q 549 -292 589 -240 q 426 -387 510 -343 l 371 -339 q 458 -268 429 -303 q 488 -207 488 -233 q 433 -171 488 -171 q 382 -175 411 -171 l 382 -100 q 422 -92 401 -94 q 465 -89 442 -89 z "},"Ş":{"ha":833,"x_min":97,"x_max":735,"o":"m 522 517 q 685 417 635 476 q 735 256 735 358 q 710 144 735 194 q 640 57 686 93 q 526 0 593 21 q 375 -21 460 -21 q 218 -1 288 -21 q 104 43 149 18 l 104 143 q 231 101 168 117 q 375 86 293 86 q 546 132 485 86 q 607 254 607 178 q 601 306 607 283 q 578 348 594 329 q 534 383 563 367 q 463 415 506 399 l 347 457 q 231 509 278 482 q 153 568 183 536 q 110 640 124 600 q 97 729 97 679 q 121 834 97 788 q 187 914 144 881 q 290 965 229 947 q 424 983 350 983 q 559 969 496 983 q 678 928 622 954 l 678 828 q 551 863 613 850 q 424 876 489 876 q 276 839 328 876 q 225 731 225 801 q 234 675 225 699 q 264 632 243 651 q 319 594 285 613 q 407 558 354 576 l 522 517 m 368 -89 q 459 -116 426 -89 q 492 -187 492 -143 q 452 -292 492 -240 q 329 -387 413 -343 l 274 -339 q 361 -268 332 -303 q 390 -207 390 -233 q 336 -171 390 -171 q 285 -175 314 -171 l 285 -100 q 324 -92 304 -94 q 368 -89 344 -89 z "},"Ţ":{"ha":833,"x_min":63,"x_max":771,"o":"m 353 0 l 353 856 l 63 856 l 63 963 l 771 963 l 771 856 l 481 856 l 481 0 l 353 0 m 400 -89 q 491 -116 458 -89 q 524 -187 524 -143 q 484 -292 524 -240 q 361 -387 444 -343 l 306 -339 q 393 -268 364 -303 q 422 -207 422 -233 q 368 -171 422 -171 q 317 -175 346 -171 l 317 -100 q 356 -92 336 -94 q 400 -89 376 -89 z "},"ģ":{"ha":833,"x_min":82,"x_max":713,"o":"m 376 -303 q 139 -247 244 -303 l 139 -157 q 367 -201 264 -201 q 537 -146 483 -201 q 590 33 590 -90 l 590 97 q 489 34 546 57 q 374 11 432 11 q 251 35 306 11 q 160 106 197 60 q 102 216 122 151 q 82 361 82 281 q 103 512 82 444 q 162 626 124 579 q 254 698 200 672 q 376 724 308 724 q 597 635 501 724 l 608 704 l 713 704 l 713 40 q 626 -215 713 -126 q 376 -303 539 -303 m 407 113 q 494 129 447 113 q 590 182 542 146 l 590 554 q 499 607 544 590 q 400 624 453 624 q 208 367 208 624 q 260 177 208 242 q 407 113 311 113 m 518 1119 l 469 817 l 429 817 q 358 860 358 817 q 365 892 358 871 q 379 938 371 913 l 439 1119 l 518 1119 z "},"ķ":{"ha":833,"x_min":143,"x_max":778,"o":"m 143 1028 l 267 1028 l 267 400 l 600 704 l 756 704 l 389 378 l 778 0 l 619 0 l 267 347 l 267 0 l 143 0 l 143 1028 m 331 -383 l 378 -92 l 419 -92 q 489 -135 489 -92 q 483 -165 489 -146 q 468 -211 478 -185 l 410 -383 l 331 -383 z "},"ļ":{"ha":833,"x_min":96,"x_max":724,"o":"m 96 99 l 356 99 l 356 929 l 131 929 l 131 1028 l 479 1028 l 479 99 l 724 99 l 724 0 l 96 0 l 96 99 m 318 -383 l 365 -92 l 407 -92 q 476 -135 476 -92 q 471 -165 476 -146 q 456 -211 465 -185 l 397 -383 l 318 -383 z "},"ņ":{"ha":833,"x_min":118,"x_max":724,"o":"m 118 704 l 222 704 l 235 624 q 517 724 371 724 q 670 669 617 724 q 724 513 724 615 l 724 0 l 600 0 l 600 469 q 569 586 600 549 q 469 624 538 624 q 353 603 410 624 q 242 547 296 583 l 242 0 l 118 0 l 118 704 m 321 -383 l 368 -92 l 410 -92 q 479 -135 479 -92 q 474 -165 479 -146 q 458 -211 468 -185 l 400 -383 l 321 -383 z "},"ŗ":{"ha":833,"x_min":113,"x_max":740,"o":"m 113 0 l 113 99 l 289 99 l 289 606 l 114 606 l 114 704 l 393 704 l 408 601 q 506 681 453 653 q 639 710 558 710 q 696 706 667 710 q 740 694 725 701 l 740 583 q 689 594 718 590 q 628 597 660 597 q 514 582 565 597 q 413 518 463 567 l 413 99 l 643 99 l 643 0 l 113 0 m 251 -383 l 299 -92 l 340 -92 q 410 -135 410 -92 q 404 -165 410 -146 q 389 -211 399 -185 l 331 -383 l 251 -383 z "},"ș":{"ha":833,"x_min":119,"x_max":715,"o":"m 338 319 q 174 397 222 346 q 125 522 125 449 q 201 671 125 618 q 414 724 276 724 q 495 718 456 724 q 569 705 535 713 q 633 688 604 697 q 678 669 661 678 l 678 575 q 549 608 621 594 q 414 621 476 621 q 289 597 333 621 q 244 525 244 572 q 277 463 244 483 q 381 425 310 442 l 504 396 q 666 321 617 369 q 715 192 715 272 q 633 38 715 96 q 408 -21 551 -21 q 233 0 307 -21 q 119 43 160 21 l 119 140 q 243 101 168 119 q 410 82 318 82 q 547 110 501 82 q 593 188 593 139 q 563 249 593 226 q 460 290 533 272 l 338 319 m 310 -383 l 357 -92 l 399 -92 q 468 -135 468 -92 q 463 -165 468 -146 q 447 -211 457 -185 l 389 -383 l 310 -383 z "},"ț":{"ha":833,"x_min":78,"x_max":706,"o":"m 78 690 l 256 703 l 275 922 l 376 922 l 376 704 l 699 704 l 699 606 l 376 606 l 376 224 q 405 117 376 147 q 504 88 433 88 q 611 97 557 88 q 706 121 665 107 l 706 31 q 610 0 672 14 q 476 -14 549 -14 q 303 42 353 -14 q 253 211 253 97 l 253 606 l 78 606 l 78 690 m 386 -383 l 433 -92 l 475 -92 q 544 -135 544 -92 q 539 -165 544 -146 q 524 -211 533 -185 l 465 -383 l 386 -383 z "},"Ą":{"ha":833,"x_min":33,"x_max":814,"o":"m 346 963 l 486 963 l 799 0 l 669 0 l 592 254 l 235 254 l 158 0 l 33 0 l 346 963 m 265 358 l 560 358 l 413 844 l 265 358 m 799 0 q 711 -88 742 -44 q 681 -174 681 -132 q 754 -226 681 -226 q 781 -225 767 -226 q 814 -219 794 -224 l 814 -294 q 725 -310 778 -310 q 614 -279 653 -310 q 575 -192 575 -249 q 613 -80 575 -133 q 722 17 651 -26 l 799 0 z "},"Ę":{"ha":833,"x_min":140,"x_max":738,"o":"m 140 963 l 722 963 l 722 858 l 268 858 l 268 549 l 643 549 l 643 444 l 268 444 l 268 104 l 722 104 l 722 0 l 140 0 l 140 963 m 722 0 q 635 -88 665 -44 q 604 -174 604 -132 q 678 -226 604 -226 q 704 -225 690 -226 q 738 -219 718 -224 l 738 -294 q 649 -310 701 -310 q 538 -279 576 -310 q 499 -192 499 -249 q 537 -80 499 -133 q 646 17 575 -26 l 722 0 z "},"Į":{"ha":833,"x_min":144,"x_max":704,"o":"m 479 858 l 479 104 l 689 104 l 689 0 l 144 0 l 144 104 l 354 104 l 354 858 l 144 858 l 144 963 l 689 963 l 689 858 l 479 858 m 689 0 q 601 -88 632 -44 q 571 -174 571 -132 q 644 -226 571 -226 q 671 -225 657 -226 q 704 -219 685 -224 l 704 -294 q 615 -310 668 -310 q 504 -279 543 -310 q 465 -192 465 -249 q 503 -80 465 -133 q 613 17 542 -26 l 689 0 z "},"Ų":{"ha":833,"x_min":88,"x_max":746,"o":"m 618 963 l 746 963 l 746 343 q 663 69 746 161 q 417 -22 581 -22 q 170 69 253 -22 q 88 343 88 161 l 88 963 l 215 963 l 215 328 q 267 149 215 208 q 417 89 318 89 q 567 149 515 89 q 618 328 618 208 l 618 963 m 582 11 q 477 -70 515 -19 q 439 -169 439 -121 q 513 -226 439 -226 q 540 -225 526 -226 q 572 -219 553 -224 l 572 -294 q 483 -310 532 -310 q 372 -278 408 -310 q 335 -189 335 -247 q 397 -50 335 -118 q 582 67 460 18 l 582 11 z "},"ç":{"ha":833,"x_min":115,"x_max":714,"o":"m 242 344 q 306 146 242 206 q 506 86 371 86 q 607 99 553 86 q 714 136 661 111 l 714 43 q 612 1 671 17 q 483 -15 553 -15 q 204 77 293 -15 q 115 347 115 169 q 210 624 115 529 q 482 718 304 718 q 612 701 551 718 q 707 663 672 685 l 707 571 q 614 601 671 586 q 494 617 557 617 q 305 556 368 617 q 242 358 242 496 l 242 344 m 460 -89 q 551 -116 518 -89 q 585 -187 585 -143 q 545 -292 585 -240 q 422 -387 506 -343 l 368 -342 q 456 -269 426 -304 q 485 -206 485 -233 q 431 -168 485 -168 q 378 -172 407 -168 l 378 -100 q 460 -89 418 -89 z "},"ş":{"ha":833,"x_min":119,"x_max":715,"o":"m 338 319 q 174 397 222 346 q 125 522 125 449 q 201 671 125 618 q 414 724 276 724 q 495 718 456 724 q 569 705 535 713 q 633 688 604 697 q 678 669 661 678 l 678 575 q 549 608 621 594 q 414 621 476 621 q 289 597 333 621 q 244 525 244 572 q 277 463 244 483 q 381 425 310 442 l 504 396 q 666 321 617 369 q 715 192 715 272 q 633 38 715 96 q 408 -21 551 -21 q 233 0 307 -21 q 119 43 160 21 l 119 140 q 243 101 168 119 q 410 82 318 82 q 547 110 501 82 q 593 188 593 139 q 563 249 593 226 q 460 290 533 272 l 338 319 m 381 -89 q 472 -116 439 -89 q 506 -187 506 -143 q 466 -292 506 -240 q 343 -387 426 -343 l 289 -342 q 376 -269 347 -304 q 406 -206 406 -233 q 351 -168 406 -168 q 299 -172 328 -168 l 299 -100 q 381 -89 339 -89 z "},"ţ":{"ha":833,"x_min":78,"x_max":706,"o":"m 78 690 l 256 703 l 275 922 l 376 922 l 376 704 l 699 704 l 699 606 l 376 606 l 376 224 q 405 117 376 147 q 504 88 433 88 q 611 97 557 88 q 706 121 665 107 l 706 31 q 610 0 672 14 q 476 -14 549 -14 q 303 42 353 -14 q 253 211 253 97 l 253 606 l 78 606 l 78 690 m 457 -89 q 549 -116 515 -89 q 582 -187 582 -143 q 542 -292 582 -240 q 419 -387 503 -343 l 365 -342 q 453 -269 424 -304 q 482 -206 482 -233 q 428 -168 482 -168 q 375 -172 404 -168 l 375 -100 q 457 -89 415 -89 z "},"Ģ":{"ha":833,"x_min":81,"x_max":749,"o":"m 482 96 q 631 119 563 96 l 631 403 l 436 403 l 436 507 l 749 507 l 749 50 q 689 23 722 35 q 619 3 656 11 q 544 -10 582 -6 q 471 -15 506 -15 q 181 107 282 -15 q 81 475 81 229 q 185 848 81 721 q 481 975 290 975 q 605 961 543 975 q 715 919 667 947 l 715 817 q 600 852 658 840 q 494 864 542 864 q 285 774 357 864 q 213 493 213 683 l 213 463 q 281 182 213 268 q 482 96 350 96 m 369 -383 l 417 -92 l 463 -92 q 532 -135 532 -92 q 526 -165 532 -146 q 511 -211 521 -185 l 450 -383 l 369 -383 z "},"Ķ":{"ha":833,"x_min":125,"x_max":793,"o":"m 253 531 l 606 963 l 756 963 l 369 499 l 793 0 l 633 0 l 253 457 l 253 0 l 125 0 l 125 963 l 253 963 l 253 531 m 331 -383 l 378 -92 l 424 -92 q 493 -135 493 -92 q 488 -165 493 -146 q 472 -211 482 -185 l 411 -383 l 331 -383 z "},"Ļ":{"ha":833,"x_min":139,"x_max":728,"o":"m 139 0 l 139 963 l 267 963 l 267 107 l 728 107 l 728 0 l 139 0 m 328 -383 l 375 -92 l 421 -92 q 490 -135 490 -92 q 485 -165 490 -146 q 469 -211 479 -185 l 408 -383 l 328 -383 z "},"Ņ":{"ha":833,"x_min":97,"x_max":738,"o":"m 214 769 l 214 0 l 97 0 l 97 963 l 217 963 l 621 193 l 621 963 l 738 963 l 738 0 l 617 0 l 214 769 m 315 -383 l 363 -92 l 408 -92 q 478 -135 478 -92 q 472 -165 478 -146 q 457 -211 467 -185 l 396 -383 l 315 -383 z "},"Ŗ":{"ha":833,"x_min":119,"x_max":772,"o":"m 243 383 l 243 0 l 119 0 l 119 963 l 425 963 q 548 943 492 963 q 644 887 604 924 q 706 797 683 850 q 728 676 728 743 q 718 601 728 639 q 688 528 708 563 q 636 465 668 494 q 560 417 604 436 l 772 0 l 633 0 l 444 386 q 414 384 429 385 q 382 383 399 383 l 243 383 m 243 486 l 408 486 q 549 533 500 486 q 599 676 599 581 q 553 813 599 767 q 415 860 507 860 l 243 860 l 243 486 m 319 -383 l 367 -92 l 413 -92 q 482 -135 482 -92 q 476 -165 482 -146 q 461 -211 471 -185 l 400 -383 l 319 -383 z "},"Ș":{"ha":833,"x_min":97,"x_max":735,"o":"m 522 517 q 685 417 635 476 q 735 256 735 358 q 710 144 735 194 q 640 57 686 93 q 526 0 593 21 q 375 -21 460 -21 q 218 -1 288 -21 q 104 43 149 18 l 104 143 q 231 101 168 117 q 375 86 293 86 q 546 132 485 86 q 607 254 607 178 q 601 306 607 283 q 578 348 594 329 q 534 383 563 367 q 463 415 506 399 l 347 457 q 231 509 278 482 q 153 568 183 536 q 110 640 124 600 q 97 729 97 679 q 121 834 97 788 q 187 914 144 881 q 290 965 229 947 q 424 983 350 983 q 559 969 496 983 q 678 928 622 954 l 678 828 q 551 863 613 850 q 424 876 489 876 q 276 839 328 876 q 225 731 225 801 q 234 675 225 699 q 264 632 243 651 q 319 594 285 613 q 407 558 354 576 l 522 517 m 283 -383 l 331 -92 l 376 -92 q 446 -135 446 -92 q 440 -165 446 -146 q 425 -211 435 -185 l 364 -383 l 283 -383 z "},"Ț":{"ha":833,"x_min":63,"x_max":771,"o":"m 353 0 l 353 856 l 63 856 l 63 963 l 771 963 l 771 856 l 481 856 l 481 0 l 353 0 m 315 -383 l 363 -92 l 408 -92 q 478 -135 478 -92 q 472 -165 478 -146 q 457 -211 467 -185 l 396 -383 l 315 -383 z "},"ą":{"ha":833,"x_min":115,"x_max":708,"o":"m 335 -18 q 175 38 235 -18 q 115 188 115 94 q 188 350 115 290 q 385 410 261 410 q 476 402 429 410 q 572 382 524 394 l 572 483 q 535 592 572 561 q 410 622 499 622 q 290 611 354 622 q 163 579 226 600 l 163 671 q 219 693 188 683 q 287 710 251 703 q 359 720 322 717 q 431 724 396 724 q 627 670 564 724 q 690 506 690 617 l 690 0 l 588 0 l 576 74 q 460 6 522 29 q 335 -18 397 -18 m 363 78 q 464 97 410 78 q 572 150 518 115 l 572 306 q 410 325 486 325 q 238 193 238 325 q 269 108 238 138 q 363 78 301 78 m 690 0 q 602 -88 632 -44 q 572 -174 572 -132 q 649 -229 572 -229 q 675 -228 661 -229 q 708 -222 689 -226 l 708 -294 q 619 -310 672 -310 q 508 -279 547 -310 q 469 -192 469 -249 q 508 -80 469 -133 q 617 17 546 -26 l 690 0 z "},"ę":{"ha":833,"x_min":97,"x_max":721,"o":"m 454 -21 q 189 73 281 -21 q 97 353 97 167 q 186 627 97 531 q 433 724 275 724 q 644 651 568 724 q 721 440 721 578 q 718 379 721 411 q 711 325 715 347 l 217 325 q 285 138 224 194 q 469 81 346 81 q 592 92 529 81 q 707 124 654 103 l 707 33 q 595 -6 661 8 q 454 -21 529 -21 m 431 628 q 281 574 335 628 q 217 411 226 521 l 608 411 q 610 432 610 422 q 610 450 610 442 q 563 584 610 540 q 431 628 515 628 m 654 11 q 551 -72 588 -21 q 514 -169 514 -122 q 590 -229 514 -229 q 617 -228 603 -229 q 650 -222 631 -226 l 650 -294 q 561 -310 611 -310 q 449 -278 486 -310 q 411 -189 411 -247 q 472 -52 411 -121 q 654 65 532 17 l 654 11 z "},"į":{"ha":833,"x_min":107,"x_max":753,"o":"m 107 99 l 367 99 l 367 606 l 154 606 l 154 704 l 490 704 l 490 99 l 735 99 l 735 0 l 107 0 l 107 99 m 406 828 q 340 852 365 828 q 315 917 315 876 q 340 983 315 958 q 406 1007 365 1007 q 472 983 447 1007 q 497 917 497 958 q 472 852 497 876 q 406 828 447 828 m 735 0 q 647 -88 676 -44 q 617 -174 617 -132 q 693 -229 617 -229 q 719 -228 706 -229 q 753 -222 733 -226 l 753 -294 q 664 -310 717 -310 q 553 -279 592 -310 q 514 -192 514 -249 q 552 -80 514 -133 q 661 17 590 -26 l 735 0 z "},"ų":{"ha":833,"x_min":114,"x_max":738,"o":"m 719 0 l 615 0 l 603 79 q 321 -21 467 -21 q 167 33 221 -21 q 114 189 114 86 l 114 704 l 238 704 l 238 232 q 269 117 238 153 q 368 82 300 82 q 485 101 428 82 q 596 156 542 119 l 596 704 l 719 704 l 719 0 m 719 0 q 631 -88 661 -44 q 601 -174 601 -132 q 678 -229 601 -229 q 704 -228 690 -229 q 738 -222 718 -226 l 738 -294 q 649 -310 701 -310 q 538 -279 576 -310 q 499 -192 499 -249 q 537 -80 499 -133 q 646 17 575 -26 l 719 0 z "},"́":{"ha":833,"x_min":279,"x_max":554,"o":"m 279 835 l 404 1054 l 554 1054 l 379 835 l 279 835 z "},"´":{"ha":833,"x_min":279,"x_max":554,"o":"m 279 835 l 404 1054 l 554 1054 l 379 835 l 279 835 z "},"ˊ":{"ha":833,"x_min":279,"x_max":554,"o":"m 279 835 l 404 1054 l 554 1054 l 379 835 l 279 835 z "},"̋":{"ha":833,"x_min":154,"x_max":678,"o":"m 154 835 l 279 1054 l 429 1054 l 256 835 l 154 835 m 401 835 l 528 1054 l 678 1054 l 503 835 l 401 835 z "},"˝":{"ha":833,"x_min":154,"x_max":678,"o":"m 154 835 l 279 1054 l 429 1054 l 256 835 l 154 835 m 401 835 l 528 1054 l 678 1054 l 503 835 l 401 835 z "},"Á":{"ha":833,"x_min":33,"x_max":799,"o":"m 346 963 l 486 963 l 799 0 l 669 0 l 592 254 l 235 254 l 158 0 l 33 0 l 346 963 m 265 358 l 560 358 l 413 844 l 265 358 m 360 1068 l 492 1238 l 646 1238 l 471 1068 l 360 1068 z "},"Ć":{"ha":833,"x_min":82,"x_max":735,"o":"m 735 35 q 631 -1 690 11 q 514 -14 572 -14 q 191 105 300 -14 q 82 478 82 224 q 193 853 82 732 q 514 974 304 974 q 624 963 568 974 q 724 931 679 951 l 724 828 q 619 855 672 847 q 524 863 567 863 q 292 774 371 863 q 214 496 214 686 l 214 463 q 294 186 214 275 q 526 97 374 97 q 632 107 578 97 q 735 138 686 117 l 735 35 m 426 1068 l 558 1238 l 713 1238 l 538 1068 l 426 1068 z "},"É":{"ha":833,"x_min":140,"x_max":722,"o":"m 140 963 l 722 963 l 722 858 l 268 858 l 268 549 l 643 549 l 643 444 l 268 444 l 268 104 l 722 104 l 722 0 l 140 0 l 140 963 m 369 1068 l 501 1238 l 656 1238 l 481 1068 l 369 1068 z "},"Í":{"ha":833,"x_min":144,"x_max":689,"o":"m 479 858 l 479 104 l 689 104 l 689 0 l 144 0 l 144 104 l 354 104 l 354 858 l 144 858 l 144 963 l 689 963 l 689 858 l 479 858 m 361 1068 l 493 1238 l 647 1238 l 472 1068 l 361 1068 z "},"Ĺ":{"ha":833,"x_min":139,"x_max":728,"o":"m 139 0 l 139 963 l 267 963 l 267 107 l 728 107 l 728 0 l 139 0 m 147 1068 l 279 1238 l 433 1238 l 258 1068 l 147 1068 z "},"Ń":{"ha":833,"x_min":97,"x_max":738,"o":"m 214 769 l 214 0 l 97 0 l 97 963 l 217 963 l 621 193 l 621 963 l 738 963 l 738 0 l 617 0 l 214 769 m 361 1068 l 493 1238 l 647 1238 l 472 1068 l 361 1068 z "},"Ó":{"ha":833,"x_min":69,"x_max":764,"o":"m 417 872 q 253 774 306 872 q 201 481 201 675 q 253 187 201 286 q 417 88 306 88 q 580 186 528 88 q 632 479 632 285 q 580 773 632 674 q 417 872 528 872 m 417 983 q 567 949 501 983 q 676 851 632 915 q 742 692 719 786 q 764 479 764 599 q 675 108 764 239 q 417 -24 586 -24 q 158 108 247 -24 q 69 481 69 240 q 92 694 69 600 q 158 852 114 788 q 267 950 201 917 q 417 983 332 983 m 361 1068 l 493 1238 l 647 1238 l 472 1068 l 361 1068 z "},"Ŕ":{"ha":833,"x_min":119,"x_max":772,"o":"m 243 383 l 243 0 l 119 0 l 119 963 l 425 963 q 548 943 492 963 q 644 887 604 924 q 706 797 683 850 q 728 676 728 743 q 718 601 728 639 q 688 528 708 563 q 636 465 668 494 q 560 417 604 436 l 772 0 l 633 0 l 444 386 q 414 384 429 385 q 382 383 399 383 l 243 383 m 243 486 l 408 486 q 549 533 500 486 q 599 676 599 581 q 553 813 599 767 q 415 860 507 860 l 243 860 l 243 486 m 332 1068 l 464 1238 l 618 1238 l 443 1068 l 332 1068 z "},"Ś":{"ha":833,"x_min":97,"x_max":735,"o":"m 522 517 q 685 417 635 476 q 735 256 735 358 q 710 144 735 194 q 640 57 686 93 q 526 0 593 21 q 375 -21 460 -21 q 218 -1 288 -21 q 104 43 149 18 l 104 143 q 231 101 168 117 q 375 86 293 86 q 546 132 485 86 q 607 254 607 178 q 601 306 607 283 q 578 348 594 329 q 534 383 563 367 q 463 415 506 399 l 347 457 q 231 509 278 482 q 153 568 183 536 q 110 640 124 600 q 97 729 97 679 q 121 834 97 788 q 187 914 144 881 q 290 965 229 947 q 424 983 350 983 q 559 969 496 983 q 678 928 622 954 l 678 828 q 551 863 613 850 q 424 876 489 876 q 276 839 328 876 q 225 731 225 801 q 234 675 225 699 q 264 632 243 651 q 319 594 285 613 q 407 558 354 576 l 522 517 m 361 1068 l 493 1238 l 647 1238 l 472 1068 l 361 1068 z "},"Ú":{"ha":833,"x_min":88,"x_max":746,"o":"m 618 963 l 746 963 l 746 343 q 663 69 746 161 q 417 -22 581 -22 q 170 69 253 -22 q 88 343 88 161 l 88 963 l 215 963 l 215 328 q 267 149 215 208 q 417 89 318 89 q 567 149 515 89 q 618 328 618 208 l 618 963 m 361 1068 l 493 1238 l 647 1238 l 472 1068 l 361 1068 z "},"Ẃ":{"ha":833,"x_min":3,"x_max":831,"o":"m 417 599 l 303 0 l 158 0 l 3 963 l 132 963 l 238 131 l 356 744 l 485 744 l 600 118 l 708 963 l 831 963 l 675 0 l 531 0 l 417 599 m 361 1068 l 493 1238 l 647 1238 l 472 1068 l 361 1068 z "},"Ý":{"ha":833,"x_min":21,"x_max":813,"o":"m 353 0 l 353 347 l 21 963 l 163 963 l 418 451 l 675 963 l 813 963 l 481 358 l 481 0 l 353 0 m 361 1068 l 493 1238 l 647 1238 l 472 1068 l 361 1068 z "},"Ź":{"ha":833,"x_min":76,"x_max":729,"o":"m 76 0 l 76 101 l 594 856 l 108 856 l 108 963 l 729 963 l 729 861 l 211 107 l 728 107 l 728 0 l 76 0 m 371 1068 l 503 1238 l 657 1238 l 482 1068 l 371 1068 z "},"Ǽ":{"ha":833,"x_min":3,"x_max":799,"o":"m 406 0 l 406 240 l 196 240 l 126 0 l 3 0 l 301 963 l 799 963 l 799 858 l 528 858 l 528 549 l 719 549 l 719 444 l 528 444 l 528 104 l 799 104 l 799 0 l 406 0 m 226 344 l 406 344 l 406 858 l 378 858 l 226 344 m 486 1068 l 618 1238 l 772 1238 l 597 1068 l 486 1068 z "},"Ǿ":{"ha":833,"x_min":69,"x_max":764,"o":"m 417 983 q 621 911 540 983 l 686 1019 l 764 971 l 683 838 q 764 479 764 706 q 675 108 764 239 q 417 -24 586 -24 q 211 47 292 -24 l 147 -60 l 69 -11 l 149 122 q 69 481 69 249 q 92 694 69 600 q 158 852 114 788 q 267 950 201 917 q 417 983 332 983 m 417 872 q 253 774 306 872 q 201 481 201 675 q 228 253 201 340 l 558 806 q 417 872 504 872 m 632 479 q 625 604 632 547 q 606 706 618 661 l 275 154 q 417 88 326 88 q 580 186 528 88 q 632 479 632 285 m 361 1068 l 493 1238 l 647 1238 l 472 1068 l 361 1068 z "},"Ő":{"ha":833,"x_min":69,"x_max":769,"o":"m 417 872 q 253 774 306 872 q 201 481 201 675 q 253 187 201 286 q 417 88 306 88 q 580 186 528 88 q 632 479 632 285 q 580 773 632 674 q 417 872 528 872 m 417 983 q 567 949 501 983 q 676 851 632 915 q 742 692 719 786 q 764 479 764 599 q 675 108 764 239 q 417 -24 586 -24 q 158 108 247 -24 q 69 481 69 240 q 92 694 69 600 q 158 852 114 788 q 267 950 201 917 q 417 983 332 983 m 368 1238 l 522 1238 l 349 1068 l 236 1068 l 368 1238 m 614 1238 l 769 1238 l 594 1068 l 482 1068 l 614 1238 z "},"Ű":{"ha":833,"x_min":88,"x_max":769,"o":"m 618 963 l 746 963 l 746 343 q 663 69 746 161 q 417 -22 581 -22 q 170 69 253 -22 q 88 343 88 161 l 88 963 l 215 963 l 215 328 q 267 149 215 208 q 417 89 318 89 q 567 149 515 89 q 618 328 618 208 l 618 963 m 368 1238 l 522 1238 l 349 1068 l 236 1068 l 368 1238 m 614 1238 l 769 1238 l 594 1068 l 482 1068 l 614 1238 z "},"á":{"ha":833,"x_min":115,"x_max":690,"o":"m 335 -18 q 175 38 235 -18 q 115 188 115 94 q 188 350 115 290 q 385 410 261 410 q 476 402 429 410 q 572 382 524 394 l 572 483 q 535 592 572 561 q 410 622 499 622 q 290 611 354 622 q 163 579 226 600 l 163 671 q 219 693 188 683 q 287 710 251 703 q 359 720 322 717 q 431 724 396 724 q 627 670 564 724 q 690 506 690 617 l 690 0 l 588 0 l 576 74 q 460 6 522 29 q 335 -18 397 -18 m 363 78 q 464 97 410 78 q 572 150 518 115 l 572 306 q 410 325 486 325 q 238 193 238 325 q 269 108 238 138 q 363 78 301 78 m 376 835 l 501 1054 l 651 1054 l 476 835 l 376 835 z "},"ć":{"ha":833,"x_min":115,"x_max":714,"o":"m 242 344 q 306 146 242 206 q 506 86 371 86 q 607 99 553 86 q 714 136 661 111 l 714 43 q 612 1 671 17 q 483 -15 553 -15 q 204 77 293 -15 q 115 347 115 169 q 210 624 115 529 q 482 718 304 718 q 612 701 551 718 q 707 663 672 685 l 707 571 q 614 601 671 586 q 494 617 557 617 q 305 556 368 617 q 242 358 242 496 l 242 344 m 410 835 l 535 1054 l 685 1054 l 510 835 l 410 835 z "},"é":{"ha":833,"x_min":97,"x_max":721,"o":"m 454 -21 q 189 73 281 -21 q 97 353 97 167 q 186 627 97 531 q 433 724 275 724 q 644 651 568 724 q 721 440 721 578 q 718 379 721 411 q 711 325 715 347 l 217 325 q 285 138 224 194 q 469 81 346 81 q 592 92 529 81 q 707 124 654 103 l 707 33 q 595 -6 661 8 q 454 -21 529 -21 m 431 628 q 281 574 335 628 q 217 411 226 521 l 608 411 q 610 432 610 422 q 610 450 610 442 q 563 584 610 540 q 431 628 515 628 m 371 835 l 496 1054 l 646 1054 l 471 835 l 371 835 z "},"í":{"ha":833,"x_min":107,"x_max":735,"o":"m 107 99 l 367 99 l 367 606 l 154 606 l 154 704 l 490 704 l 490 99 l 735 99 l 735 0 l 107 0 l 107 99 m 318 835 l 443 1054 l 593 1054 l 418 835 l 318 835 z "},"ĺ":{"ha":833,"x_min":96,"x_max":724,"o":"m 96 99 l 356 99 l 356 929 l 131 929 l 131 1028 l 479 1028 l 479 99 l 724 99 l 724 0 l 96 0 l 96 99 m 361 1096 l 493 1265 l 647 1265 l 472 1096 l 361 1096 z "},"ń":{"ha":833,"x_min":118,"x_max":724,"o":"m 118 704 l 222 704 l 235 624 q 517 724 371 724 q 670 669 617 724 q 724 513 724 615 l 724 0 l 600 0 l 600 469 q 569 586 600 549 q 469 624 538 624 q 353 603 410 624 q 242 547 296 583 l 242 0 l 118 0 l 118 704 m 388 835 l 513 1054 l 663 1054 l 488 835 l 388 835 z "},"ó":{"ha":833,"x_min":79,"x_max":754,"o":"m 417 -21 q 169 76 258 -21 q 79 351 79 174 q 169 627 79 531 q 417 724 258 724 q 665 627 575 724 q 754 351 754 531 q 665 76 754 174 q 417 -21 575 -21 m 417 81 q 574 147 521 81 q 628 351 628 214 q 574 556 628 490 q 417 622 521 622 q 259 556 313 622 q 206 351 206 490 q 259 147 206 214 q 417 81 313 81 m 367 835 l 492 1054 l 642 1054 l 467 835 l 367 835 z "},"ŕ":{"ha":833,"x_min":113,"x_max":740,"o":"m 113 0 l 113 99 l 289 99 l 289 606 l 114 606 l 114 704 l 393 704 l 408 601 q 506 681 453 653 q 639 710 558 710 q 696 706 667 710 q 740 694 725 701 l 740 583 q 689 594 718 590 q 628 597 660 597 q 514 582 565 597 q 413 518 463 567 l 413 99 l 643 99 l 643 0 l 113 0 m 394 835 l 519 1054 l 669 1054 l 494 835 l 394 835 z "},"ś":{"ha":833,"x_min":119,"x_max":715,"o":"m 338 319 q 174 397 222 346 q 125 522 125 449 q 201 671 125 618 q 414 724 276 724 q 495 718 456 724 q 569 705 535 713 q 633 688 604 697 q 678 669 661 678 l 678 575 q 549 608 621 594 q 414 621 476 621 q 289 597 333 621 q 244 525 244 572 q 277 463 244 483 q 381 425 310 442 l 504 396 q 666 321 617 369 q 715 192 715 272 q 633 38 715 96 q 408 -21 551 -21 q 233 0 307 -21 q 119 43 160 21 l 119 140 q 243 101 168 119 q 410 82 318 82 q 547 110 501 82 q 593 188 593 139 q 563 249 593 226 q 460 290 533 272 l 338 319 m 364 835 l 489 1054 l 639 1054 l 464 835 l 364 835 z "},"ú":{"ha":833,"x_min":114,"x_max":719,"o":"m 719 0 l 615 0 l 603 79 q 321 -21 467 -21 q 167 33 221 -21 q 114 189 114 86 l 114 704 l 238 704 l 238 232 q 269 117 238 153 q 368 82 300 82 q 485 101 428 82 q 596 156 542 119 l 596 704 l 719 704 l 719 0 m 367 835 l 492 1054 l 642 1054 l 467 835 l 367 835 z "},"ẃ":{"ha":833,"x_min":28,"x_max":806,"o":"m 532 0 l 415 454 l 299 0 l 174 0 l 28 704 l 154 704 l 247 133 l 365 571 l 474 571 l 590 117 l 683 704 l 806 704 l 657 0 l 532 0 m 367 835 l 492 1054 l 642 1054 l 467 835 l 367 835 z "},"ý":{"ha":833,"x_min":65,"x_max":768,"o":"m 197 -203 q 278 -178 249 -203 q 331 -89 307 -154 l 357 -17 l 65 704 l 196 704 l 417 96 l 640 704 l 768 704 l 431 -128 q 345 -262 393 -221 q 221 -303 297 -303 q 118 -283 165 -303 l 118 -194 q 197 -203 157 -203 m 367 835 l 492 1054 l 642 1054 l 467 835 l 367 835 z "},"ź":{"ha":833,"x_min":115,"x_max":721,"o":"m 115 97 l 575 606 l 129 606 l 129 704 l 717 704 l 717 607 l 256 99 l 721 99 l 721 0 l 115 0 l 115 97 m 372 835 l 497 1054 l 647 1054 l 472 835 l 372 835 z "},"ǽ":{"ha":833,"x_min":38,"x_max":799,"o":"m 253 724 q 359 701 317 724 q 422 619 401 678 q 500 699 453 674 q 600 724 547 724 q 749 651 700 724 q 799 439 799 579 q 796 381 799 413 q 788 325 793 350 l 458 325 q 505 143 464 203 q 632 83 546 83 q 705 94 664 83 q 786 126 746 104 l 786 35 q 703 -5 751 8 q 610 -18 656 -18 q 428 64 494 -18 q 341 5 390 28 q 231 -18 292 -18 q 91 35 144 -18 q 38 190 38 89 q 56 287 38 246 q 107 355 75 328 q 182 396 139 382 q 274 410 225 410 q 347 403 308 410 l 347 464 q 319 587 347 551 q 231 622 292 622 q 160 613 199 622 q 85 583 121 603 l 85 675 q 159 709 115 694 q 253 724 203 724 m 388 128 q 347 324 351 211 q 328 324 338 324 q 310 325 319 325 q 198 299 236 325 q 160 196 160 272 q 263 78 160 78 q 388 128 326 78 m 592 628 q 501 573 535 628 q 460 411 467 518 l 685 411 q 687 435 686 426 q 688 450 688 443 q 592 628 688 628 m 364 835 l 489 1054 l 639 1054 l 464 835 l 364 835 z "},"ǿ":{"ha":833,"x_min":79,"x_max":754,"o":"m 89 8 l 156 92 q 79 351 79 188 q 169 627 79 531 q 417 724 258 724 q 615 668 535 724 l 679 747 l 744 694 l 678 611 q 734 499 714 564 q 754 351 754 433 q 665 76 754 174 q 417 -21 575 -21 q 217 35 300 -21 l 154 -44 l 89 8 m 206 351 q 233 189 206 253 l 547 582 q 417 622 496 622 q 259 556 313 622 q 206 351 206 490 m 417 81 q 574 147 521 81 q 628 351 628 214 q 599 513 628 450 l 286 121 q 417 81 335 81 m 360 835 l 485 1054 l 635 1054 l 460 835 l 360 835 z "},"ő":{"ha":833,"x_min":79,"x_max":763,"o":"m 417 -21 q 169 76 258 -21 q 79 351 79 174 q 169 627 79 531 q 417 724 258 724 q 665 627 575 724 q 754 351 754 531 q 665 76 754 174 q 417 -21 575 -21 m 417 81 q 574 147 521 81 q 628 351 628 214 q 574 556 628 490 q 417 622 521 622 q 259 556 313 622 q 206 351 206 490 q 259 147 206 214 q 417 81 313 81 m 239 835 l 364 1054 l 514 1054 l 340 835 l 239 835 m 486 835 l 613 1054 l 763 1054 l 588 835 l 486 835 z "},"ű":{"ha":833,"x_min":114,"x_max":763,"o":"m 719 0 l 615 0 l 603 79 q 321 -21 467 -21 q 167 33 221 -21 q 114 189 114 86 l 114 704 l 238 704 l 238 232 q 269 117 238 153 q 368 82 300 82 q 485 101 428 82 q 596 156 542 119 l 596 704 l 719 704 l 719 0 m 239 835 l 364 1054 l 514 1054 l 340 835 l 239 835 m 486 835 l 613 1054 l 763 1054 l 588 835 l 486 835 z "},"̀":{"ha":833,"x_min":279,"x_max":554,"o":"m 454 835 l 279 1054 l 429 1054 l 554 835 l 454 835 z "},"`":{"ha":833,"x_min":279,"x_max":554,"o":"m 454 835 l 279 1054 l 429 1054 l 554 835 l 454 835 z "},"ˋ":{"ha":833,"x_min":279,"x_max":554,"o":"m 454 835 l 279 1054 l 429 1054 l 554 835 l 454 835 z "},"À":{"ha":833,"x_min":33,"x_max":799,"o":"m 346 963 l 486 963 l 799 0 l 669 0 l 592 254 l 235 254 l 158 0 l 33 0 l 346 963 m 265 358 l 560 358 l 413 844 l 265 358 m 360 1068 l 185 1238 l 339 1238 l 471 1068 l 360 1068 z "},"È":{"ha":833,"x_min":140,"x_max":722,"o":"m 140 963 l 722 963 l 722 858 l 268 858 l 268 549 l 643 549 l 643 444 l 268 444 l 268 104 l 722 104 l 722 0 l 140 0 l 140 963 m 369 1068 l 194 1238 l 349 1238 l 481 1068 l 369 1068 z "},"Ì":{"ha":833,"x_min":144,"x_max":689,"o":"m 479 858 l 479 104 l 689 104 l 689 0 l 144 0 l 144 104 l 354 104 l 354 858 l 144 858 l 144 963 l 689 963 l 689 858 l 479 858 m 361 1068 l 186 1238 l 340 1238 l 472 1068 l 361 1068 z "},"Ò":{"ha":833,"x_min":69,"x_max":764,"o":"m 417 872 q 253 774 306 872 q 201 481 201 675 q 253 187 201 286 q 417 88 306 88 q 580 186 528 88 q 632 479 632 285 q 580 773 632 674 q 417 872 528 872 m 417 983 q 567 949 501 983 q 676 851 632 915 q 742 692 719 786 q 764 479 764 599 q 675 108 764 239 q 417 -24 586 -24 q 158 108 247 -24 q 69 481 69 240 q 92 694 69 600 q 158 852 114 788 q 267 950 201 917 q 417 983 332 983 m 361 1068 l 186 1238 l 340 1238 l 472 1068 l 361 1068 z "},"Ù":{"ha":833,"x_min":88,"x_max":746,"o":"m 618 963 l 746 963 l 746 343 q 663 69 746 161 q 417 -22 581 -22 q 170 69 253 -22 q 88 343 88 161 l 88 963 l 215 963 l 215 328 q 267 149 215 208 q 417 89 318 89 q 567 149 515 89 q 618 328 618 208 l 618 963 m 361 1068 l 186 1238 l 340 1238 l 472 1068 l 361 1068 z "},"Ẁ":{"ha":833,"x_min":3,"x_max":831,"o":"m 417 599 l 303 0 l 158 0 l 3 963 l 132 963 l 238 131 l 356 744 l 485 744 l 600 118 l 708 963 l 831 963 l 675 0 l 531 0 l 417 599 m 361 1068 l 186 1238 l 340 1238 l 472 1068 l 361 1068 z "},"Ỳ":{"ha":833,"x_min":21,"x_max":813,"o":"m 353 0 l 353 347 l 21 963 l 163 963 l 418 451 l 675 963 l 813 963 l 481 358 l 481 0 l 353 0 m 361 1068 l 186 1238 l 340 1238 l 472 1068 l 361 1068 z "},"à":{"ha":833,"x_min":115,"x_max":690,"o":"m 335 -18 q 175 38 235 -18 q 115 188 115 94 q 188 350 115 290 q 385 410 261 410 q 476 402 429 410 q 572 382 524 394 l 572 483 q 535 592 572 561 q 410 622 499 622 q 290 611 354 622 q 163 579 226 600 l 163 671 q 219 693 188 683 q 287 710 251 703 q 359 720 322 717 q 431 724 396 724 q 627 670 564 724 q 690 506 690 617 l 690 0 l 588 0 l 576 74 q 460 6 522 29 q 335 -18 397 -18 m 363 78 q 464 97 410 78 q 572 150 518 115 l 572 306 q 410 325 486 325 q 238 193 238 325 q 269 108 238 138 q 363 78 301 78 m 376 835 l 201 1054 l 351 1054 l 476 835 l 376 835 z "},"è":{"ha":833,"x_min":97,"x_max":721,"o":"m 454 -21 q 189 73 281 -21 q 97 353 97 167 q 186 627 97 531 q 433 724 275 724 q 644 651 568 724 q 721 440 721 578 q 718 379 721 411 q 711 325 715 347 l 217 325 q 285 138 224 194 q 469 81 346 81 q 592 92 529 81 q 707 124 654 103 l 707 33 q 595 -6 661 8 q 454 -21 529 -21 m 431 628 q 281 574 335 628 q 217 411 226 521 l 608 411 q 610 432 610 422 q 610 450 610 442 q 563 584 610 540 q 431 628 515 628 m 371 835 l 196 1054 l 346 1054 l 471 835 l 371 835 z "},"ì":{"ha":833,"x_min":107,"x_max":735,"o":"m 107 99 l 367 99 l 367 606 l 154 606 l 154 704 l 490 704 l 490 99 l 735 99 l 735 0 l 107 0 l 107 99 m 318 835 l 143 1054 l 293 1054 l 418 835 l 318 835 z "},"ò":{"ha":833,"x_min":79,"x_max":754,"o":"m 417 -21 q 169 76 258 -21 q 79 351 79 174 q 169 627 79 531 q 417 724 258 724 q 665 627 575 724 q 754 351 754 531 q 665 76 754 174 q 417 -21 575 -21 m 417 81 q 574 147 521 81 q 628 351 628 214 q 574 556 628 490 q 417 622 521 622 q 259 556 313 622 q 206 351 206 490 q 259 147 206 214 q 417 81 313 81 m 367 835 l 192 1054 l 342 1054 l 467 835 l 367 835 z "},"ù":{"ha":833,"x_min":114,"x_max":719,"o":"m 719 0 l 615 0 l 603 79 q 321 -21 467 -21 q 167 33 221 -21 q 114 189 114 86 l 114 704 l 238 704 l 238 232 q 269 117 238 153 q 368 82 300 82 q 485 101 428 82 q 596 156 542 119 l 596 704 l 719 704 l 719 0 m 367 835 l 192 1054 l 342 1054 l 467 835 l 367 835 z "},"ẁ":{"ha":833,"x_min":28,"x_max":806,"o":"m 532 0 l 415 454 l 299 0 l 174 0 l 28 704 l 154 704 l 247 133 l 365 571 l 474 571 l 590 117 l 683 704 l 806 704 l 657 0 l 532 0 m 367 835 l 192 1054 l 342 1054 l 467 835 l 367 835 z "},"ỳ":{"ha":833,"x_min":65,"x_max":768,"o":"m 197 -203 q 278 -178 249 -203 q 331 -89 307 -154 l 357 -17 l 65 704 l 196 704 l 417 96 l 640 704 l 768 704 l 431 -128 q 345 -262 393 -221 q 221 -303 297 -303 q 118 -283 165 -303 l 118 -194 q 197 -203 157 -203 m 367 835 l 192 1054 l 342 1054 l 467 835 l 367 835 z "},"̂":{"ha":833,"x_min":172,"x_max":661,"o":"m 550 835 l 417 981 l 283 835 l 172 835 l 354 1056 l 479 1056 l 661 835 l 550 835 z "},"ˆ":{"ha":833,"x_min":172,"x_max":661,"o":"m 550 835 l 417 981 l 283 835 l 172 835 l 354 1056 l 479 1056 l 661 835 l 550 835 z "},"̃":{"ha":833,"x_min":189,"x_max":643,"o":"m 639 1011 q 643 969 643 990 q 608 874 643 908 q 513 840 574 840 q 396 890 447 840 q 350 928 365 918 q 318 938 335 938 q 281 915 288 938 q 271 844 274 892 l 193 844 q 189 886 189 865 q 224 981 189 947 q 319 1015 258 1015 q 436 965 383 1015 q 482 928 467 938 q 514 918 497 918 q 551 941 544 918 q 561 1011 558 964 l 639 1011 z "},"˜":{"ha":833,"x_min":189,"x_max":643,"o":"m 639 1011 q 643 969 643 990 q 608 874 643 908 q 513 840 574 840 q 396 890 447 840 q 350 928 365 918 q 318 938 335 938 q 281 915 288 938 q 271 844 274 892 l 193 844 q 189 886 189 865 q 224 981 189 947 q 319 1015 258 1015 q 436 965 383 1015 q 482 928 467 938 q 514 918 497 918 q 551 941 544 918 q 561 1011 558 964 l 639 1011 z "},"Â":{"ha":833,"x_min":33,"x_max":799,"o":"m 346 963 l 486 963 l 799 0 l 669 0 l 592 254 l 235 254 l 158 0 l 33 0 l 346 963 m 265 358 l 560 358 l 413 844 l 265 358 m 538 1068 l 415 1182 l 293 1068 l 164 1068 l 350 1254 l 479 1254 l 665 1068 l 538 1068 z "},"Ĉ":{"ha":833,"x_min":82,"x_max":735,"o":"m 735 35 q 631 -1 690 11 q 514 -14 572 -14 q 191 105 300 -14 q 82 478 82 224 q 193 853 82 732 q 514 974 304 974 q 624 963 568 974 q 724 931 679 951 l 724 828 q 619 855 672 847 q 524 863 567 863 q 292 774 371 863 q 214 496 214 686 l 214 463 q 294 186 214 275 q 526 97 374 97 q 632 107 578 97 q 735 138 686 117 l 735 35 m 604 1068 l 482 1182 l 360 1068 l 231 1068 l 417 1254 l 546 1254 l 732 1068 l 604 1068 z "},"Ê":{"ha":833,"x_min":140,"x_max":722,"o":"m 140 963 l 722 963 l 722 858 l 268 858 l 268 549 l 643 549 l 643 444 l 268 444 l 268 104 l 722 104 l 722 0 l 140 0 l 140 963 m 547 1068 l 425 1182 l 303 1068 l 174 1068 l 360 1254 l 489 1254 l 675 1068 l 547 1068 z "},"Ĝ":{"ha":833,"x_min":81,"x_max":749,"o":"m 482 96 q 631 119 563 96 l 631 403 l 436 403 l 436 507 l 749 507 l 749 50 q 689 23 722 35 q 619 3 656 11 q 544 -10 582 -6 q 471 -15 506 -15 q 181 107 282 -15 q 81 475 81 229 q 185 848 81 721 q 481 975 290 975 q 605 961 543 975 q 715 919 667 947 l 715 817 q 600 852 658 840 q 494 864 542 864 q 285 774 357 864 q 213 493 213 683 l 213 463 q 281 182 213 268 q 482 96 350 96 m 590 1068 l 468 1182 l 346 1068 l 217 1068 l 403 1254 l 532 1254 l 718 1068 l 590 1068 z "},"Ĥ":{"ha":833,"x_min":103,"x_max":731,"o":"m 103 963 l 231 963 l 231 544 l 603 544 l 603 963 l 731 963 l 731 0 l 603 0 l 603 440 l 231 440 l 231 0 l 103 0 l 103 963 m 539 1068 l 417 1182 l 294 1068 l 165 1068 l 351 1254 l 481 1254 l 667 1068 l 539 1068 z "},"Î":{"ha":833,"x_min":144,"x_max":689,"o":"m 479 858 l 479 104 l 689 104 l 689 0 l 144 0 l 144 104 l 354 104 l 354 858 l 144 858 l 144 963 l 689 963 l 689 858 l 479 858 m 539 1068 l 417 1182 l 294 1068 l 165 1068 l 351 1254 l 481 1254 l 667 1068 l 539 1068 z "},"Ĵ":{"ha":833,"x_min":96,"x_max":675,"o":"m 339 88 q 417 96 383 88 q 474 126 451 104 q 509 184 497 147 q 521 279 521 221 l 521 858 l 188 858 l 188 963 l 649 963 l 649 285 q 575 52 649 128 q 339 -24 501 -24 q 197 -7 264 -24 q 96 29 131 10 l 96 132 q 201 102 135 117 q 339 88 267 88 m 547 1068 l 425 1182 l 303 1068 l 174 1068 l 360 1254 l 489 1254 l 675 1068 l 547 1068 z "},"Ô":{"ha":833,"x_min":69,"x_max":764,"o":"m 417 872 q 253 774 306 872 q 201 481 201 675 q 253 187 201 286 q 417 88 306 88 q 580 186 528 88 q 632 479 632 285 q 580 773 632 674 q 417 872 528 872 m 417 983 q 567 949 501 983 q 676 851 632 915 q 742 692 719 786 q 764 479 764 599 q 675 108 764 239 q 417 -24 586 -24 q 158 108 247 -24 q 69 481 69 240 q 92 694 69 600 q 158 852 114 788 q 267 950 201 917 q 417 983 332 983 m 539 1068 l 417 1182 l 294 1068 l 165 1068 l 351 1254 l 481 1254 l 667 1068 l 539 1068 z "},"Ŝ":{"ha":833,"x_min":97,"x_max":735,"o":"m 522 517 q 685 417 635 476 q 735 256 735 358 q 710 144 735 194 q 640 57 686 93 q 526 0 593 21 q 375 -21 460 -21 q 218 -1 288 -21 q 104 43 149 18 l 104 143 q 231 101 168 117 q 375 86 293 86 q 546 132 485 86 q 607 254 607 178 q 601 306 607 283 q 578 348 594 329 q 534 383 563 367 q 463 415 506 399 l 347 457 q 231 509 278 482 q 153 568 183 536 q 110 640 124 600 q 97 729 97 679 q 121 834 97 788 q 187 914 144 881 q 290 965 229 947 q 424 983 350 983 q 559 969 496 983 q 678 928 622 954 l 678 828 q 551 863 613 850 q 424 876 489 876 q 276 839 328 876 q 225 731 225 801 q 234 675 225 699 q 264 632 243 651 q 319 594 285 613 q 407 558 354 576 l 522 517 m 539 1068 l 417 1182 l 294 1068 l 165 1068 l 351 1254 l 481 1254 l 667 1068 l 539 1068 z "},"Û":{"ha":833,"x_min":88,"x_max":746,"o":"m 618 963 l 746 963 l 746 343 q 663 69 746 161 q 417 -22 581 -22 q 170 69 253 -22 q 88 343 88 161 l 88 963 l 215 963 l 215 328 q 267 149 215 208 q 417 89 318 89 q 567 149 515 89 q 618 328 618 208 l 618 963 m 539 1068 l 417 1182 l 294 1068 l 165 1068 l 351 1254 l 481 1254 l 667 1068 l 539 1068 z "},"Ŵ":{"ha":833,"x_min":3,"x_max":831,"o":"m 417 599 l 303 0 l 158 0 l 3 963 l 132 963 l 238 131 l 356 744 l 485 744 l 600 118 l 708 963 l 831 963 l 675 0 l 531 0 l 417 599 m 539 1068 l 417 1182 l 294 1068 l 165 1068 l 351 1254 l 481 1254 l 667 1068 l 539 1068 z "},"Ŷ":{"ha":833,"x_min":21,"x_max":813,"o":"m 353 0 l 353 347 l 21 963 l 163 963 l 418 451 l 675 963 l 813 963 l 481 358 l 481 0 l 353 0 m 539 1068 l 417 1182 l 294 1068 l 165 1068 l 351 1254 l 481 1254 l 667 1068 l 539 1068 z "},"Ã":{"ha":833,"x_min":33,"x_max":799,"o":"m 346 963 l 486 963 l 799 0 l 669 0 l 592 254 l 235 254 l 158 0 l 33 0 l 346 963 m 265 358 l 560 358 l 413 844 l 265 358 m 396 1119 q 352 1155 368 1146 q 318 1164 336 1164 q 281 1142 288 1164 q 272 1074 274 1119 l 193 1074 q 189 1115 189 1094 q 224 1212 189 1179 q 319 1244 258 1244 q 381 1233 353 1244 q 436 1194 408 1221 q 480 1159 464 1168 q 514 1150 496 1150 q 551 1172 544 1150 q 560 1240 558 1194 l 639 1240 q 643 1199 643 1219 q 608 1102 643 1135 q 513 1069 574 1069 q 396 1119 447 1069 z "},"Ĩ":{"ha":833,"x_min":144,"x_max":689,"o":"m 479 858 l 479 104 l 689 104 l 689 0 l 144 0 l 144 104 l 354 104 l 354 858 l 144 858 l 144 963 l 689 963 l 689 858 l 479 858 m 397 1119 q 353 1155 369 1146 q 319 1164 338 1164 q 282 1142 289 1164 q 274 1074 275 1119 l 194 1074 q 190 1115 190 1094 q 225 1212 190 1179 q 321 1244 260 1244 q 382 1233 354 1244 q 438 1194 410 1221 q 481 1159 465 1168 q 515 1150 497 1150 q 553 1172 546 1150 q 561 1240 560 1194 l 640 1240 q 644 1199 644 1219 q 610 1102 644 1135 q 514 1069 575 1069 q 397 1119 449 1069 z "},"Ñ":{"ha":833,"x_min":97,"x_max":738,"o":"m 214 769 l 214 0 l 97 0 l 97 963 l 217 963 l 621 193 l 621 963 l 738 963 l 738 0 l 617 0 l 214 769 m 397 1119 q 353 1155 369 1146 q 319 1164 338 1164 q 282 1142 289 1164 q 274 1074 275 1119 l 194 1074 q 190 1115 190 1094 q 225 1212 190 1179 q 321 1244 260 1244 q 382 1233 354 1244 q 438 1194 410 1221 q 481 1159 465 1168 q 515 1150 497 1150 q 553 1172 546 1150 q 561 1240 560 1194 l 640 1240 q 644 1199 644 1219 q 610 1102 644 1135 q 514 1069 575 1069 q 397 1119 449 1069 z "},"Õ":{"ha":833,"x_min":69,"x_max":764,"o":"m 417 872 q 253 774 306 872 q 201 481 201 675 q 253 187 201 286 q 417 88 306 88 q 580 186 528 88 q 632 479 632 285 q 580 773 632 674 q 417 872 528 872 m 417 983 q 567 949 501 983 q 676 851 632 915 q 742 692 719 786 q 764 479 764 599 q 675 108 764 239 q 417 -24 586 -24 q 158 108 247 -24 q 69 481 69 240 q 92 694 69 600 q 158 852 114 788 q 267 950 201 917 q 417 983 332 983 m 397 1119 q 353 1155 369 1146 q 319 1164 338 1164 q 282 1142 289 1164 q 274 1074 275 1119 l 194 1074 q 190 1115 190 1094 q 225 1212 190 1179 q 321 1244 260 1244 q 382 1233 354 1244 q 438 1194 410 1221 q 481 1159 465 1168 q 515 1150 497 1150 q 553 1172 546 1150 q 561 1240 560 1194 l 640 1240 q 644 1199 644 1219 q 610 1102 644 1135 q 514 1069 575 1069 q 397 1119 449 1069 z "},"Ũ":{"ha":833,"x_min":88,"x_max":746,"o":"m 618 963 l 746 963 l 746 343 q 663 69 746 161 q 417 -22 581 -22 q 170 69 253 -22 q 88 343 88 161 l 88 963 l 215 963 l 215 328 q 267 149 215 208 q 417 89 318 89 q 567 149 515 89 q 618 328 618 208 l 618 963 m 397 1119 q 353 1155 369 1146 q 319 1164 338 1164 q 282 1142 289 1164 q 274 1074 275 1119 l 194 1074 q 190 1115 190 1094 q 225 1212 190 1179 q 321 1244 260 1244 q 382 1233 354 1244 q 438 1194 410 1221 q 481 1159 465 1168 q 515 1150 497 1150 q 553 1172 546 1150 q 561 1240 560 1194 l 640 1240 q 644 1199 644 1219 q 610 1102 644 1135 q 514 1069 575 1069 q 397 1119 449 1069 z "},"â":{"ha":833,"x_min":115,"x_max":690,"o":"m 335 -18 q 175 38 235 -18 q 115 188 115 94 q 188 350 115 290 q 385 410 261 410 q 476 402 429 410 q 572 382 524 394 l 572 483 q 535 592 572 561 q 410 622 499 622 q 290 611 354 622 q 163 579 226 600 l 163 671 q 219 693 188 683 q 287 710 251 703 q 359 720 322 717 q 431 724 396 724 q 627 670 564 724 q 690 506 690 617 l 690 0 l 588 0 l 576 74 q 460 6 522 29 q 335 -18 397 -18 m 363 78 q 464 97 410 78 q 572 150 518 115 l 572 306 q 410 325 486 325 q 238 193 238 325 q 269 108 238 138 q 363 78 301 78 m 560 835 l 426 981 l 293 835 l 182 835 l 364 1056 l 489 1056 l 671 835 l 560 835 z "},"ĉ":{"ha":833,"x_min":115,"x_max":714,"o":"m 242 344 q 306 146 242 206 q 506 86 371 86 q 607 99 553 86 q 714 136 661 111 l 714 43 q 612 1 671 17 q 483 -15 553 -15 q 204 77 293 -15 q 115 347 115 169 q 210 624 115 529 q 482 718 304 718 q 612 701 551 718 q 707 663 672 685 l 707 571 q 614 601 671 586 q 494 617 557 617 q 305 556 368 617 q 242 358 242 496 l 242 344 m 593 835 l 460 981 l 326 835 l 215 835 l 397 1056 l 522 1056 l 704 835 l 593 835 z "},"ê":{"ha":833,"x_min":97,"x_max":721,"o":"m 454 -21 q 189 73 281 -21 q 97 353 97 167 q 186 627 97 531 q 433 724 275 724 q 644 651 568 724 q 721 440 721 578 q 718 379 721 411 q 711 325 715 347 l 217 325 q 285 138 224 194 q 469 81 346 81 q 592 92 529 81 q 707 124 654 103 l 707 33 q 595 -6 661 8 q 454 -21 529 -21 m 431 628 q 281 574 335 628 q 217 411 226 521 l 608 411 q 610 432 610 422 q 610 450 610 442 q 563 584 610 540 q 431 628 515 628 m 554 835 l 421 981 l 288 835 l 176 835 l 358 1056 l 483 1056 l 665 835 l 554 835 z "},"ĝ":{"ha":833,"x_min":82,"x_max":713,"o":"m 376 -303 q 139 -247 244 -303 l 139 -157 q 367 -201 264 -201 q 537 -146 483 -201 q 590 33 590 -90 l 590 97 q 489 34 546 57 q 374 11 432 11 q 251 35 306 11 q 160 106 197 60 q 102 216 122 151 q 82 361 82 281 q 103 512 82 444 q 162 626 124 579 q 254 698 200 672 q 376 724 308 724 q 597 635 501 724 l 608 704 l 713 704 l 713 40 q 626 -215 713 -126 q 376 -303 539 -303 m 407 113 q 494 129 447 113 q 590 182 542 146 l 590 554 q 499 607 544 590 q 400 624 453 624 q 208 367 208 624 q 260 177 208 242 q 407 113 311 113 m 554 835 l 421 981 l 288 835 l 176 835 l 358 1056 l 483 1056 l 665 835 l 554 835 z "},"ĥ":{"ha":833,"x_min":-74,"x_max":719,"o":"m 114 1028 l 238 1028 l 238 629 q 372 699 303 674 q 513 724 442 724 q 666 670 613 724 q 719 514 719 617 l 719 0 l 596 0 l 596 471 q 565 585 596 550 q 465 621 533 621 q 349 602 406 621 q 238 547 292 583 l 238 0 l 114 0 l 114 1028 m 300 1096 l 178 1210 l 56 1096 l -74 1096 l 113 1282 l 242 1282 l 428 1096 l 300 1096 z "},"î":{"ha":833,"x_min":107,"x_max":735,"o":"m 107 99 l 367 99 l 367 606 l 154 606 l 154 704 l 490 704 l 490 99 l 735 99 l 735 0 l 107 0 l 107 99 m 501 835 l 368 981 l 235 835 l 124 835 l 306 1056 l 431 1056 l 613 835 l 501 835 z "},"ĵ":{"ha":833,"x_min":94,"x_max":663,"o":"m 94 -176 q 192 -194 139 -187 q 288 -201 244 -201 q 356 -194 325 -201 q 408 -166 386 -186 q 440 -112 429 -146 q 451 -29 451 -79 l 451 606 l 169 606 l 169 704 l 575 704 l 575 -28 q 558 -157 575 -104 q 507 -242 542 -210 q 419 -288 472 -274 q 294 -303 367 -303 q 194 -295 249 -303 q 94 -269 139 -287 l 94 -176 m 551 835 l 418 981 l 285 835 l 174 835 l 356 1056 l 481 1056 l 663 835 l 551 835 z "},"ô":{"ha":833,"x_min":79,"x_max":754,"o":"m 417 -21 q 169 76 258 -21 q 79 351 79 174 q 169 627 79 531 q 417 724 258 724 q 665 627 575 724 q 754 351 754 531 q 665 76 754 174 q 417 -21 575 -21 m 417 81 q 574 147 521 81 q 628 351 628 214 q 574 556 628 490 q 417 622 521 622 q 259 556 313 622 q 206 351 206 490 q 259 147 206 214 q 417 81 313 81 m 550 835 l 417 981 l 283 835 l 172 835 l 354 1056 l 479 1056 l 661 835 l 550 835 z "},"ŝ":{"ha":833,"x_min":119,"x_max":715,"o":"m 338 319 q 174 397 222 346 q 125 522 125 449 q 201 671 125 618 q 414 724 276 724 q 495 718 456 724 q 569 705 535 713 q 633 688 604 697 q 678 669 661 678 l 678 575 q 549 608 621 594 q 414 621 476 621 q 289 597 333 621 q 244 525 244 572 q 277 463 244 483 q 381 425 310 442 l 504 396 q 666 321 617 369 q 715 192 715 272 q 633 38 715 96 q 408 -21 551 -21 q 233 0 307 -21 q 119 43 160 21 l 119 140 q 243 101 168 119 q 410 82 318 82 q 547 110 501 82 q 593 188 593 139 q 563 249 593 226 q 460 290 533 272 l 338 319 m 547 835 l 414 981 l 281 835 l 169 835 l 351 1056 l 476 1056 l 658 835 l 547 835 z "},"û":{"ha":833,"x_min":114,"x_max":719,"o":"m 719 0 l 615 0 l 603 79 q 321 -21 467 -21 q 167 33 221 -21 q 114 189 114 86 l 114 704 l 238 704 l 238 232 q 269 117 238 153 q 368 82 300 82 q 485 101 428 82 q 596 156 542 119 l 596 704 l 719 704 l 719 0 m 550 835 l 417 981 l 283 835 l 172 835 l 354 1056 l 479 1056 l 661 835 l 550 835 z "},"ŵ":{"ha":833,"x_min":28,"x_max":806,"o":"m 532 0 l 415 454 l 299 0 l 174 0 l 28 704 l 154 704 l 247 133 l 365 571 l 474 571 l 590 117 l 683 704 l 806 704 l 657 0 l 532 0 m 550 835 l 417 981 l 283 835 l 172 835 l 354 1056 l 479 1056 l 661 835 l 550 835 z "},"ŷ":{"ha":833,"x_min":65,"x_max":768,"o":"m 197 -203 q 278 -178 249 -203 q 331 -89 307 -154 l 357 -17 l 65 704 l 196 704 l 417 96 l 640 704 l 768 704 l 431 -128 q 345 -262 393 -221 q 221 -303 297 -303 q 118 -283 165 -303 l 118 -194 q 197 -203 157 -203 m 550 835 l 417 981 l 283 835 l 172 835 l 354 1056 l 479 1056 l 661 835 l 550 835 z "},"ã":{"ha":833,"x_min":115,"x_max":690,"o":"m 335 -18 q 175 38 235 -18 q 115 188 115 94 q 188 350 115 290 q 385 410 261 410 q 476 402 429 410 q 572 382 524 394 l 572 483 q 535 592 572 561 q 410 622 499 622 q 290 611 354 622 q 163 579 226 600 l 163 671 q 219 693 188 683 q 287 710 251 703 q 359 720 322 717 q 431 724 396 724 q 627 670 564 724 q 690 506 690 617 l 690 0 l 588 0 l 576 74 q 460 6 522 29 q 335 -18 397 -18 m 363 78 q 464 97 410 78 q 572 150 518 115 l 572 306 q 410 325 486 325 q 238 193 238 325 q 269 108 238 138 q 363 78 301 78 m 650 1011 q 654 969 654 990 q 619 874 654 908 q 524 840 585 840 q 407 890 458 840 q 361 928 376 918 q 329 938 346 938 q 292 915 299 938 q 282 844 285 892 l 204 844 q 200 886 200 865 q 235 981 200 947 q 331 1015 269 1015 q 447 965 394 1015 q 493 928 478 938 q 525 918 508 918 q 563 941 556 918 q 572 1011 569 964 l 650 1011 z "},"ĩ":{"ha":833,"x_min":107,"x_max":735,"o":"m 107 99 l 367 99 l 367 606 l 154 606 l 154 704 l 490 704 l 490 99 l 735 99 l 735 0 l 107 0 l 107 99 m 592 1011 q 596 969 596 990 q 561 874 596 908 q 465 840 526 840 q 349 890 400 840 q 303 928 318 918 q 271 938 288 938 q 233 915 240 938 q 224 844 226 892 l 146 844 q 142 886 142 865 q 176 981 142 947 q 272 1015 211 1015 q 389 965 336 1015 q 435 928 419 938 q 467 918 450 918 q 504 941 497 918 q 514 1011 511 964 l 592 1011 z "},"ñ":{"ha":833,"x_min":118,"x_max":724,"o":"m 118 704 l 222 704 l 235 624 q 517 724 371 724 q 670 669 617 724 q 724 513 724 615 l 724 0 l 600 0 l 600 469 q 569 586 600 549 q 469 624 538 624 q 353 603 410 624 q 242 547 296 583 l 242 0 l 118 0 l 118 704 m 661 1011 q 665 969 665 990 q 631 874 665 908 q 535 840 596 840 q 418 890 469 840 q 372 928 388 918 q 340 938 357 938 q 303 915 310 938 q 293 844 296 892 l 215 844 q 211 886 211 865 q 246 981 211 947 q 342 1015 281 1015 q 458 965 406 1015 q 504 928 489 938 q 536 918 519 918 q 574 941 567 918 q 583 1011 581 964 l 661 1011 z "},"õ":{"ha":833,"x_min":79,"x_max":754,"o":"m 417 -21 q 169 76 258 -21 q 79 351 79 174 q 169 627 79 531 q 417 724 258 724 q 665 627 575 724 q 754 351 754 531 q 665 76 754 174 q 417 -21 575 -21 m 417 81 q 574 147 521 81 q 628 351 628 214 q 574 556 628 490 q 417 622 521 622 q 259 556 313 622 q 206 351 206 490 q 259 147 206 214 q 417 81 313 81 m 640 1011 q 644 969 644 990 q 610 874 644 908 q 514 840 575 840 q 397 890 449 840 q 351 928 367 918 q 319 938 336 938 q 282 915 289 938 q 272 844 275 892 l 194 844 q 190 886 190 865 q 225 981 190 947 q 321 1015 260 1015 q 438 965 385 1015 q 483 928 468 938 q 515 918 499 918 q 553 941 546 918 q 563 1011 560 964 l 640 1011 z "},"ũ":{"ha":833,"x_min":114,"x_max":719,"o":"m 719 0 l 615 0 l 603 79 q 321 -21 467 -21 q 167 33 221 -21 q 114 189 114 86 l 114 704 l 238 704 l 238 232 q 269 117 238 153 q 368 82 300 82 q 485 101 428 82 q 596 156 542 119 l 596 704 l 719 704 l 719 0 m 640 1011 q 644 969 644 990 q 610 874 644 908 q 514 840 575 840 q 397 890 449 840 q 351 928 367 918 q 319 938 336 938 q 282 915 289 938 q 272 844 275 892 l 194 844 q 190 886 190 865 q 225 981 190 947 q 321 1015 260 1015 q 438 965 385 1015 q 483 928 468 938 q 515 918 499 918 q 553 941 546 918 q 563 1011 560 964 l 640 1011 z "},"̌":{"ha":833,"x_min":172,"x_max":661,"o":"m 356 835 l 172 1056 l 300 1056 l 417 897 l 533 1056 l 661 1056 l 478 835 l 356 835 z "},"ˇ":{"ha":833,"x_min":172,"x_max":661,"o":"m 356 835 l 172 1056 l 300 1056 l 417 897 l 533 1056 l 661 1056 l 478 835 l 356 835 z "},"̕":{"ha":833,"x_min":354,"x_max":478,"o":"m 354 760 l 354 1032 q 414 1044 379 1044 q 449 1040 432 1044 q 478 1025 465 1036 l 435 760 l 354 760 z "},"̄":{"ha":833,"x_min":196,"x_max":638,"o":"m 196 886 l 196 971 l 638 971 l 638 886 l 196 886 z "},"ˉ":{"ha":833,"x_min":196,"x_max":638,"o":"m 196 886 l 196 971 l 638 971 l 638 886 l 196 886 z "},"¯":{"ha":833,"x_min":196,"x_max":638,"o":"m 196 886 l 196 971 l 638 971 l 638 886 l 196 886 z "},"Č":{"ha":833,"x_min":82,"x_max":735,"o":"m 735 35 q 631 -1 690 11 q 514 -14 572 -14 q 191 105 300 -14 q 82 478 82 224 q 193 853 82 732 q 514 974 304 974 q 624 963 568 974 q 724 931 679 951 l 724 828 q 619 855 672 847 q 524 863 567 863 q 292 774 371 863 q 214 496 214 686 l 214 463 q 294 186 214 275 q 526 97 374 97 q 632 107 578 97 q 735 138 686 117 l 735 35 m 419 1068 l 232 1254 l 374 1254 l 482 1126 l 590 1254 l 732 1254 l 544 1068 l 419 1068 z "},"Ď":{"ha":833,"x_min":103,"x_max":764,"o":"m 103 963 l 329 963 q 514 935 433 963 q 650 848 594 907 q 735 698 706 789 q 764 481 764 607 q 733 262 764 353 q 645 113 703 171 q 506 27 588 54 q 324 0 425 0 l 103 0 l 103 963 m 231 861 l 231 101 l 310 101 q 551 188 469 101 q 632 465 632 274 l 632 497 q 552 774 632 686 q 310 861 472 861 l 231 861 m 332 1068 l 144 1254 l 286 1254 l 394 1126 l 503 1254 l 644 1254 l 457 1068 l 332 1068 z "},"Ě":{"ha":833,"x_min":140,"x_max":722,"o":"m 140 963 l 722 963 l 722 858 l 268 858 l 268 549 l 643 549 l 643 444 l 268 444 l 268 104 l 722 104 l 722 0 l 140 0 l 140 963 m 363 1068 l 175 1254 l 317 1254 l 425 1126 l 533 1254 l 675 1254 l 488 1068 l 363 1068 z "},"Ľ":{"ha":833,"x_min":139,"x_max":728,"o":"m 139 0 l 139 963 l 267 963 l 267 107 l 728 107 l 728 0 l 139 0 m 419 731 l 419 1003 q 479 1015 444 1015 q 514 1011 497 1015 q 543 996 531 1007 l 500 731 l 419 731 z "},"Ň":{"ha":833,"x_min":97,"x_max":738,"o":"m 214 769 l 214 0 l 97 0 l 97 963 l 217 963 l 621 193 l 621 963 l 738 963 l 738 0 l 617 0 l 214 769 m 354 1068 l 167 1254 l 308 1254 l 417 1126 l 525 1254 l 667 1254 l 479 1068 l 354 1068 z "},"Ř":{"ha":833,"x_min":119,"x_max":772,"o":"m 243 383 l 243 0 l 119 0 l 119 963 l 425 963 q 548 943 492 963 q 644 887 604 924 q 706 797 683 850 q 728 676 728 743 q 718 601 728 639 q 688 528 708 563 q 636 465 668 494 q 560 417 604 436 l 772 0 l 633 0 l 444 386 q 414 384 429 385 q 382 383 399 383 l 243 383 m 243 486 l 408 486 q 549 533 500 486 q 599 676 599 581 q 553 813 599 767 q 415 860 507 860 l 243 860 l 243 486 m 325 1068 l 138 1254 l 279 1254 l 388 1126 l 496 1254 l 638 1254 l 450 1068 l 325 1068 z "},"Š":{"ha":833,"x_min":97,"x_max":735,"o":"m 522 517 q 685 417 635 476 q 735 256 735 358 q 710 144 735 194 q 640 57 686 93 q 526 0 593 21 q 375 -21 460 -21 q 218 -1 288 -21 q 104 43 149 18 l 104 143 q 231 101 168 117 q 375 86 293 86 q 546 132 485 86 q 607 254 607 178 q 601 306 607 283 q 578 348 594 329 q 534 383 563 367 q 463 415 506 399 l 347 457 q 231 509 278 482 q 153 568 183 536 q 110 640 124 600 q 97 729 97 679 q 121 834 97 788 q 187 914 144 881 q 290 965 229 947 q 424 983 350 983 q 559 969 496 983 q 678 928 622 954 l 678 828 q 551 863 613 850 q 424 876 489 876 q 276 839 328 876 q 225 731 225 801 q 234 675 225 699 q 264 632 243 651 q 319 594 285 613 q 407 558 354 576 l 522 517 m 354 1068 l 167 1254 l 308 1254 l 417 1126 l 525 1254 l 667 1254 l 479 1068 l 354 1068 z "},"Ť":{"ha":833,"x_min":63,"x_max":771,"o":"m 353 0 l 353 856 l 63 856 l 63 963 l 771 963 l 771 856 l 481 856 l 481 0 l 353 0 m 354 1068 l 167 1254 l 308 1254 l 417 1126 l 525 1254 l 667 1254 l 479 1068 l 354 1068 z "},"Ǔ":{"ha":833,"x_min":88,"x_max":746,"o":"m 618 963 l 746 963 l 746 343 q 663 69 746 161 q 417 -22 581 -22 q 170 69 253 -22 q 88 343 88 161 l 88 963 l 215 963 l 215 328 q 267 149 215 208 q 417 89 318 89 q 567 149 515 89 q 618 328 618 208 l 618 963 m 354 1068 l 167 1254 l 308 1254 l 417 1126 l 525 1254 l 667 1254 l 479 1068 l 354 1068 z "},"Ž":{"ha":833,"x_min":76,"x_max":729,"o":"m 76 0 l 76 101 l 594 856 l 108 856 l 108 963 l 729 963 l 729 861 l 211 107 l 728 107 l 728 0 l 76 0 m 364 1068 l 176 1254 l 318 1254 l 426 1126 l 535 1254 l 676 1254 l 489 1068 l 364 1068 z "},"Ā":{"ha":833,"x_min":33,"x_max":799,"o":"m 346 963 l 486 963 l 799 0 l 669 0 l 592 254 l 235 254 l 158 0 l 33 0 l 346 963 m 265 358 l 560 358 l 413 844 l 265 358 m 194 1111 l 194 1200 l 636 1200 l 636 1111 l 194 1111 z "},"Ē":{"ha":833,"x_min":140,"x_max":722,"o":"m 140 963 l 722 963 l 722 858 l 268 858 l 268 549 l 643 549 l 643 444 l 268 444 l 268 104 l 722 104 l 722 0 l 140 0 l 140 963 m 204 1111 l 204 1200 l 646 1200 l 646 1111 l 204 1111 z "},"Ī":{"ha":833,"x_min":144,"x_max":689,"o":"m 479 858 l 479 104 l 689 104 l 689 0 l 144 0 l 144 104 l 354 104 l 354 858 l 144 858 l 144 963 l 689 963 l 689 858 l 479 858 m 196 1111 l 196 1200 l 638 1200 l 638 1111 l 196 1111 z "},"Ō":{"ha":833,"x_min":69,"x_max":764,"o":"m 417 872 q 253 774 306 872 q 201 481 201 675 q 253 187 201 286 q 417 88 306 88 q 580 186 528 88 q 632 479 632 285 q 580 773 632 674 q 417 872 528 872 m 417 983 q 567 949 501 983 q 676 851 632 915 q 742 692 719 786 q 764 479 764 599 q 675 108 764 239 q 417 -24 586 -24 q 158 108 247 -24 q 69 481 69 240 q 92 694 69 600 q 158 852 114 788 q 267 950 201 917 q 417 983 332 983 m 196 1111 l 196 1200 l 638 1200 l 638 1111 l 196 1111 z "},"Ū":{"ha":833,"x_min":88,"x_max":746,"o":"m 618 963 l 746 963 l 746 343 q 663 69 746 161 q 417 -22 581 -22 q 170 69 253 -22 q 88 343 88 161 l 88 963 l 215 963 l 215 328 q 267 149 215 208 q 417 89 318 89 q 567 149 515 89 q 618 328 618 208 l 618 963 m 196 1111 l 196 1200 l 638 1200 l 638 1111 l 196 1111 z "},"č":{"ha":833,"x_min":115,"x_max":714,"o":"m 242 344 q 306 146 242 206 q 506 86 371 86 q 607 99 553 86 q 714 136 661 111 l 714 43 q 612 1 671 17 q 483 -15 553 -15 q 204 77 293 -15 q 115 347 115 169 q 210 624 115 529 q 482 718 304 718 q 612 701 551 718 q 707 663 672 685 l 707 571 q 614 601 671 586 q 494 617 557 617 q 305 556 368 617 q 242 358 242 496 l 242 344 m 399 835 l 215 1056 l 343 1056 l 460 897 l 576 1056 l 704 1056 l 521 835 l 399 835 z "},"ď":{"ha":833,"x_min":44,"x_max":881,"o":"m 342 -21 q 124 77 203 -21 q 44 347 44 175 q 65 503 44 433 q 126 622 86 572 q 220 697 165 671 q 344 724 275 724 q 457 703 407 724 q 554 642 507 682 l 554 1028 l 678 1028 l 678 0 l 568 0 l 557 67 q 453 1 508 22 q 342 -21 399 -21 m 378 81 q 554 150 460 81 l 554 553 q 465 606 508 589 q 369 622 422 622 q 171 353 171 622 q 224 151 171 222 q 378 81 276 81 m 757 760 l 757 1032 q 817 1044 782 1044 q 851 1040 835 1044 q 881 1025 868 1036 l 838 760 l 757 760 z "},"ě":{"ha":833,"x_min":97,"x_max":721,"o":"m 454 -21 q 189 73 281 -21 q 97 353 97 167 q 186 627 97 531 q 433 724 275 724 q 644 651 568 724 q 721 440 721 578 q 718 379 721 411 q 711 325 715 347 l 217 325 q 285 138 224 194 q 469 81 346 81 q 592 92 529 81 q 707 124 654 103 l 707 33 q 595 -6 661 8 q 454 -21 529 -21 m 431 628 q 281 574 335 628 q 217 411 226 521 l 608 411 q 610 432 610 422 q 610 450 610 442 q 563 584 610 540 q 431 628 515 628 m 360 835 l 176 1056 l 304 1056 l 421 897 l 538 1056 l 665 1056 l 482 835 l 360 835 z "},"ľ":{"ha":833,"x_min":96,"x_max":724,"o":"m 96 99 l 356 99 l 356 929 l 131 929 l 131 1028 l 479 1028 l 479 99 l 724 99 l 724 0 l 96 0 l 96 99 m 594 760 l 594 1032 q 654 1044 619 1044 q 689 1040 672 1044 q 718 1025 706 1036 l 675 760 l 594 760 z "},"ň":{"ha":833,"x_min":118,"x_max":724,"o":"m 118 704 l 222 704 l 235 624 q 517 724 371 724 q 670 669 617 724 q 724 513 724 615 l 724 0 l 600 0 l 600 469 q 569 586 600 549 q 469 624 538 624 q 353 603 410 624 q 242 547 296 583 l 242 0 l 118 0 l 118 704 m 376 835 l 193 1056 l 321 1056 l 438 897 l 554 1056 l 682 1056 l 499 835 l 376 835 z "},"ř":{"ha":833,"x_min":113,"x_max":740,"o":"m 113 0 l 113 99 l 289 99 l 289 606 l 114 606 l 114 704 l 393 704 l 408 601 q 506 681 453 653 q 639 710 558 710 q 696 706 667 710 q 740 694 725 701 l 740 583 q 689 594 718 590 q 628 597 660 597 q 514 582 565 597 q 413 518 463 567 l 413 99 l 643 99 l 643 0 l 113 0 m 383 835 l 200 1056 l 328 1056 l 444 897 l 561 1056 l 689 1056 l 506 835 l 383 835 z "},"š":{"ha":833,"x_min":119,"x_max":715,"o":"m 338 319 q 174 397 222 346 q 125 522 125 449 q 201 671 125 618 q 414 724 276 724 q 495 718 456 724 q 569 705 535 713 q 633 688 604 697 q 678 669 661 678 l 678 575 q 549 608 621 594 q 414 621 476 621 q 289 597 333 621 q 244 525 244 572 q 277 463 244 483 q 381 425 310 442 l 504 396 q 666 321 617 369 q 715 192 715 272 q 633 38 715 96 q 408 -21 551 -21 q 233 0 307 -21 q 119 43 160 21 l 119 140 q 243 101 168 119 q 410 82 318 82 q 547 110 501 82 q 593 188 593 139 q 563 249 593 226 q 460 290 533 272 l 338 319 m 353 835 l 169 1056 l 297 1056 l 414 897 l 531 1056 l 658 1056 l 475 835 l 353 835 z "},"ť":{"ha":833,"x_min":78,"x_max":706,"o":"m 78 690 l 256 703 l 275 922 l 376 922 l 376 704 l 699 704 l 699 606 l 376 606 l 376 224 q 405 117 376 147 q 504 88 433 88 q 611 97 557 88 q 706 121 665 107 l 706 31 q 610 0 672 14 q 476 -14 549 -14 q 303 42 353 -14 q 253 211 253 97 l 253 606 l 78 606 l 78 690 m 515 799 l 515 1036 q 575 1049 540 1049 q 610 1044 593 1049 q 639 1031 626 1040 l 596 799 l 515 799 z "},"ǔ":{"ha":833,"x_min":114,"x_max":719,"o":"m 719 0 l 615 0 l 603 79 q 321 -21 467 -21 q 167 33 221 -21 q 114 189 114 86 l 114 704 l 238 704 l 238 232 q 269 117 238 153 q 368 82 300 82 q 485 101 428 82 q 596 156 542 119 l 596 704 l 719 704 l 719 0 m 356 835 l 172 1056 l 300 1056 l 417 897 l 533 1056 l 661 1056 l 478 835 l 356 835 z "},"ž":{"ha":833,"x_min":115,"x_max":721,"o":"m 115 97 l 575 606 l 129 606 l 129 704 l 717 704 l 717 607 l 256 99 l 721 99 l 721 0 l 115 0 l 115 97 m 361 835 l 178 1056 l 306 1056 l 422 897 l 539 1056 l 667 1056 l 483 835 l 361 835 z "},"ā":{"ha":833,"x_min":115,"x_max":690,"o":"m 335 -18 q 175 38 235 -18 q 115 188 115 94 q 188 350 115 290 q 385 410 261 410 q 476 402 429 410 q 572 382 524 394 l 572 483 q 535 592 572 561 q 410 622 499 622 q 290 611 354 622 q 163 579 226 600 l 163 671 q 219 693 188 683 q 287 710 251 703 q 359 720 322 717 q 431 724 396 724 q 627 670 564 724 q 690 506 690 617 l 690 0 l 588 0 l 576 74 q 460 6 522 29 q 335 -18 397 -18 m 363 78 q 464 97 410 78 q 572 150 518 115 l 572 306 q 410 325 486 325 q 238 193 238 325 q 269 108 238 138 q 363 78 301 78 m 206 886 l 206 971 l 647 971 l 647 886 l 206 886 z "},"ē":{"ha":833,"x_min":97,"x_max":721,"o":"m 454 -21 q 189 73 281 -21 q 97 353 97 167 q 186 627 97 531 q 433 724 275 724 q 644 651 568 724 q 721 440 721 578 q 718 379 721 411 q 711 325 715 347 l 217 325 q 285 138 224 194 q 469 81 346 81 q 592 92 529 81 q 707 124 654 103 l 707 33 q 595 -6 661 8 q 454 -21 529 -21 m 431 628 q 281 574 335 628 q 217 411 226 521 l 608 411 q 610 432 610 422 q 610 450 610 442 q 563 584 610 540 q 431 628 515 628 m 200 886 l 200 971 l 642 971 l 642 886 l 200 886 z "},"ī":{"ha":833,"x_min":107,"x_max":735,"o":"m 107 99 l 367 99 l 367 606 l 154 606 l 154 704 l 490 704 l 490 99 l 735 99 l 735 0 l 107 0 l 107 99 m 147 886 l 147 971 l 589 971 l 589 886 l 147 886 z "},"ō":{"ha":833,"x_min":79,"x_max":754,"o":"m 417 -21 q 169 76 258 -21 q 79 351 79 174 q 169 627 79 531 q 417 724 258 724 q 665 627 575 724 q 754 351 754 531 q 665 76 754 174 q 417 -21 575 -21 m 417 81 q 574 147 521 81 q 628 351 628 214 q 574 556 628 490 q 417 622 521 622 q 259 556 313 622 q 206 351 206 490 q 259 147 206 214 q 417 81 313 81 m 196 886 l 196 971 l 638 971 l 638 886 l 196 886 z "},"ū":{"ha":833,"x_min":114,"x_max":719,"o":"m 719 0 l 615 0 l 603 79 q 321 -21 467 -21 q 167 33 221 -21 q 114 189 114 86 l 114 704 l 238 704 l 238 232 q 269 117 238 153 q 368 82 300 82 q 485 101 428 82 q 596 156 542 119 l 596 704 l 719 704 l 719 0 m 196 886 l 196 971 l 638 971 l 638 886 l 196 886 z "},"̈":{"ha":833,"x_min":193,"x_max":640,"o":"m 269 829 q 213 850 233 829 q 193 906 193 871 q 213 960 193 940 q 269 979 233 979 q 326 960 306 979 q 346 906 346 940 q 326 850 346 871 q 269 829 306 829 m 564 829 q 508 850 528 829 q 488 906 488 871 q 508 960 488 940 q 564 979 528 979 q 620 960 600 979 q 640 906 640 940 q 620 850 640 871 q 564 829 600 829 z "},"¨":{"ha":833,"x_min":193,"x_max":640,"o":"m 269 829 q 213 850 233 829 q 193 906 193 871 q 213 960 193 940 q 269 979 233 979 q 326 960 306 979 q 346 906 346 940 q 326 850 346 871 q 269 829 306 829 m 564 829 q 508 850 528 829 q 488 906 488 871 q 508 960 488 940 q 564 979 528 979 q 620 960 600 979 q 640 906 640 940 q 620 850 640 871 q 564 829 600 829 z "},"̆":{"ha":833,"x_min":219,"x_max":614,"o":"m 417 832 q 269 877 318 832 q 219 1000 219 922 q 224 1039 219 1022 l 306 1039 l 308 1004 q 338 938 313 958 q 417 917 364 917 q 495 938 469 917 q 525 1004 521 958 l 528 1039 l 610 1039 q 614 1000 614 1022 q 565 877 614 922 q 417 832 515 832 z "},"˘":{"ha":833,"x_min":219,"x_max":614,"o":"m 417 832 q 269 877 318 832 q 219 1000 219 922 q 224 1039 219 1022 l 306 1039 l 308 1004 q 338 938 313 958 q 417 917 364 917 q 495 938 469 917 q 525 1004 521 958 l 528 1039 l 610 1039 q 614 1000 614 1022 q 565 877 614 922 q 417 832 515 832 z "},"Ä":{"ha":833,"x_min":33,"x_max":799,"o":"m 346 963 l 486 963 l 799 0 l 669 0 l 592 254 l 235 254 l 158 0 l 33 0 l 346 963 m 265 358 l 560 358 l 413 844 l 265 358 m 271 1083 q 213 1104 235 1083 q 192 1160 192 1125 q 213 1215 192 1194 q 271 1236 235 1236 q 328 1215 307 1236 q 350 1160 350 1194 q 328 1104 350 1125 q 271 1083 307 1083 m 560 1083 q 502 1104 524 1083 q 481 1160 481 1125 q 502 1215 481 1194 q 560 1236 524 1236 q 617 1215 596 1236 q 639 1160 639 1194 q 617 1104 639 1125 q 560 1083 596 1083 z "},"Ë":{"ha":833,"x_min":140,"x_max":722,"o":"m 140 963 l 722 963 l 722 858 l 268 858 l 268 549 l 643 549 l 643 444 l 268 444 l 268 104 l 722 104 l 722 0 l 140 0 l 140 963 m 281 1083 q 223 1104 244 1083 q 201 1160 201 1125 q 223 1215 201 1194 q 281 1236 244 1236 q 338 1215 317 1236 q 360 1160 360 1194 q 338 1104 360 1125 q 281 1083 317 1083 m 569 1083 q 512 1104 533 1083 q 490 1160 490 1125 q 512 1215 490 1194 q 569 1236 533 1236 q 627 1215 606 1236 q 649 1160 649 1194 q 627 1104 649 1125 q 569 1083 606 1083 z "},"Ï":{"ha":833,"x_min":144,"x_max":689,"o":"m 479 858 l 479 104 l 689 104 l 689 0 l 144 0 l 144 104 l 354 104 l 354 858 l 144 858 l 144 963 l 689 963 l 689 858 l 479 858 m 272 1083 q 215 1104 236 1083 q 193 1160 193 1125 q 215 1215 193 1194 q 272 1236 236 1236 q 330 1215 308 1236 q 351 1160 351 1194 q 330 1104 351 1125 q 272 1083 308 1083 m 561 1083 q 503 1104 525 1083 q 482 1160 482 1125 q 503 1215 482 1194 q 561 1236 525 1236 q 619 1215 597 1236 q 640 1160 640 1194 q 619 1104 640 1125 q 561 1083 597 1083 z "},"Ö":{"ha":833,"x_min":69,"x_max":764,"o":"m 417 872 q 253 774 306 872 q 201 481 201 675 q 253 187 201 286 q 417 88 306 88 q 580 186 528 88 q 632 479 632 285 q 580 773 632 674 q 417 872 528 872 m 417 983 q 567 949 501 983 q 676 851 632 915 q 742 692 719 786 q 764 479 764 599 q 675 108 764 239 q 417 -24 586 -24 q 158 108 247 -24 q 69 481 69 240 q 92 694 69 600 q 158 852 114 788 q 267 950 201 917 q 417 983 332 983 m 272 1083 q 215 1104 236 1083 q 193 1160 193 1125 q 215 1215 193 1194 q 272 1236 236 1236 q 330 1215 308 1236 q 351 1160 351 1194 q 330 1104 351 1125 q 272 1083 308 1083 m 561 1083 q 503 1104 525 1083 q 482 1160 482 1125 q 503 1215 482 1194 q 561 1236 525 1236 q 619 1215 597 1236 q 640 1160 640 1194 q 619 1104 640 1125 q 561 1083 597 1083 z "},"Ü":{"ha":833,"x_min":88,"x_max":746,"o":"m 618 963 l 746 963 l 746 343 q 663 69 746 161 q 417 -22 581 -22 q 170 69 253 -22 q 88 343 88 161 l 88 963 l 215 963 l 215 328 q 267 149 215 208 q 417 89 318 89 q 567 149 515 89 q 618 328 618 208 l 618 963 m 272 1083 q 215 1104 236 1083 q 193 1160 193 1125 q 215 1215 193 1194 q 272 1236 236 1236 q 330 1215 308 1236 q 351 1160 351 1194 q 330 1104 351 1125 q 272 1083 308 1083 m 561 1083 q 503 1104 525 1083 q 482 1160 482 1125 q 503 1215 482 1194 q 561 1236 525 1236 q 619 1215 597 1236 q 640 1160 640 1194 q 619 1104 640 1125 q 561 1083 597 1083 z "},"Ẅ":{"ha":833,"x_min":3,"x_max":831,"o":"m 417 599 l 303 0 l 158 0 l 3 963 l 132 963 l 238 131 l 356 744 l 485 744 l 600 118 l 708 963 l 831 963 l 675 0 l 531 0 l 417 599 m 272 1083 q 215 1104 236 1083 q 193 1160 193 1125 q 215 1215 193 1194 q 272 1236 236 1236 q 330 1215 308 1236 q 351 1160 351 1194 q 330 1104 351 1125 q 272 1083 308 1083 m 561 1083 q 503 1104 525 1083 q 482 1160 482 1125 q 503 1215 482 1194 q 561 1236 525 1236 q 619 1215 597 1236 q 640 1160 640 1194 q 619 1104 640 1125 q 561 1083 597 1083 z "},"Ÿ":{"ha":833,"x_min":21,"x_max":813,"o":"m 353 0 l 353 347 l 21 963 l 163 963 l 418 451 l 675 963 l 813 963 l 481 358 l 481 0 l 353 0 m 272 1083 q 215 1104 236 1083 q 193 1160 193 1125 q 215 1215 193 1194 q 272 1236 236 1236 q 330 1215 308 1236 q 351 1160 351 1194 q 330 1104 351 1125 q 272 1083 308 1083 m 561 1083 q 503 1104 525 1083 q 482 1160 482 1125 q 503 1215 482 1194 q 561 1236 525 1236 q 619 1215 597 1236 q 640 1160 640 1194 q 619 1104 640 1125 q 561 1083 597 1083 z "},"Ă":{"ha":833,"x_min":33,"x_max":799,"o":"m 346 963 l 486 963 l 799 0 l 669 0 l 592 254 l 235 254 l 158 0 l 33 0 l 346 963 m 265 358 l 560 358 l 413 844 l 265 358 m 415 1064 q 269 1104 321 1064 q 218 1217 218 1144 q 222 1246 218 1233 l 306 1246 l 307 1232 q 415 1150 315 1150 q 524 1232 515 1150 l 525 1246 l 608 1246 q 613 1217 613 1233 q 561 1104 613 1144 q 415 1064 510 1064 z "},"Ĕ":{"ha":833,"x_min":140,"x_max":722,"o":"m 140 963 l 722 963 l 722 858 l 268 858 l 268 549 l 643 549 l 643 444 l 268 444 l 268 104 l 722 104 l 722 0 l 140 0 l 140 963 m 425 1064 q 279 1104 331 1064 q 228 1217 228 1144 q 232 1246 228 1233 l 315 1246 l 317 1232 q 425 1150 325 1150 q 533 1232 525 1150 l 535 1246 l 618 1246 q 622 1217 622 1233 q 571 1104 622 1144 q 425 1064 519 1064 z "},"Ğ":{"ha":833,"x_min":81,"x_max":749,"o":"m 482 96 q 631 119 563 96 l 631 403 l 436 403 l 436 507 l 749 507 l 749 50 q 689 23 722 35 q 619 3 656 11 q 544 -10 582 -6 q 471 -15 506 -15 q 181 107 282 -15 q 81 475 81 229 q 185 848 81 721 q 481 975 290 975 q 605 961 543 975 q 715 919 667 947 l 715 817 q 600 852 658 840 q 494 864 542 864 q 285 774 357 864 q 213 493 213 683 l 213 463 q 281 182 213 268 q 482 96 350 96 m 468 1064 q 322 1104 374 1064 q 271 1217 271 1144 q 275 1246 271 1233 l 358 1246 l 360 1232 q 468 1150 368 1150 q 576 1232 568 1150 l 578 1246 l 661 1246 q 665 1217 665 1233 q 614 1104 665 1144 q 468 1064 563 1064 z "},"Ĭ":{"ha":833,"x_min":144,"x_max":689,"o":"m 479 858 l 479 104 l 689 104 l 689 0 l 144 0 l 144 104 l 354 104 l 354 858 l 144 858 l 144 963 l 689 963 l 689 858 l 479 858 m 417 1064 q 271 1104 322 1064 q 219 1217 219 1144 q 224 1246 219 1233 l 307 1246 l 308 1232 q 417 1150 317 1150 q 525 1232 517 1150 l 526 1246 l 610 1246 q 614 1217 614 1233 q 563 1104 614 1144 q 417 1064 511 1064 z "},"Ŏ":{"ha":833,"x_min":69,"x_max":764,"o":"m 417 872 q 253 774 306 872 q 201 481 201 675 q 253 187 201 286 q 417 88 306 88 q 580 186 528 88 q 632 479 632 285 q 580 773 632 674 q 417 872 528 872 m 417 983 q 567 949 501 983 q 676 851 632 915 q 742 692 719 786 q 764 479 764 599 q 675 108 764 239 q 417 -24 586 -24 q 158 108 247 -24 q 69 481 69 240 q 92 694 69 600 q 158 852 114 788 q 267 950 201 917 q 417 983 332 983 m 417 1064 q 271 1104 322 1064 q 219 1217 219 1144 q 224 1246 219 1233 l 307 1246 l 308 1232 q 417 1150 317 1150 q 525 1232 517 1150 l 526 1246 l 610 1246 q 614 1217 614 1233 q 563 1104 614 1144 q 417 1064 511 1064 z "},"Ŭ":{"ha":833,"x_min":88,"x_max":746,"o":"m 618 963 l 746 963 l 746 343 q 663 69 746 161 q 417 -22 581 -22 q 170 69 253 -22 q 88 343 88 161 l 88 963 l 215 963 l 215 328 q 267 149 215 208 q 417 89 318 89 q 567 149 515 89 q 618 328 618 208 l 618 963 m 417 1064 q 271 1104 322 1064 q 219 1217 219 1144 q 224 1246 219 1233 l 307 1246 l 308 1232 q 417 1150 317 1150 q 525 1232 517 1150 l 526 1246 l 610 1246 q 614 1217 614 1233 q 563 1104 614 1144 q 417 1064 511 1064 z "},"ä":{"ha":833,"x_min":115,"x_max":690,"o":"m 335 -18 q 175 38 235 -18 q 115 188 115 94 q 188 350 115 290 q 385 410 261 410 q 476 402 429 410 q 572 382 524 394 l 572 483 q 535 592 572 561 q 410 622 499 622 q 290 611 354 622 q 163 579 226 600 l 163 671 q 219 693 188 683 q 287 710 251 703 q 359 720 322 717 q 431 724 396 724 q 627 670 564 724 q 690 506 690 617 l 690 0 l 588 0 l 576 74 q 460 6 522 29 q 335 -18 397 -18 m 363 78 q 464 97 410 78 q 572 150 518 115 l 572 306 q 410 325 486 325 q 238 193 238 325 q 269 108 238 138 q 363 78 301 78 m 279 829 q 223 850 243 829 q 203 906 203 871 q 223 960 203 940 q 279 979 243 979 q 335 960 315 979 q 356 906 356 940 q 335 850 356 871 q 279 829 315 829 m 574 829 q 517 850 538 829 q 497 906 497 871 q 517 960 497 940 q 574 979 538 979 q 630 960 610 979 q 650 906 650 940 q 630 850 650 871 q 574 829 610 829 z "},"ë":{"ha":833,"x_min":97,"x_max":721,"o":"m 454 -21 q 189 73 281 -21 q 97 353 97 167 q 186 627 97 531 q 433 724 275 724 q 644 651 568 724 q 721 440 721 578 q 718 379 721 411 q 711 325 715 347 l 217 325 q 285 138 224 194 q 469 81 346 81 q 592 92 529 81 q 707 124 654 103 l 707 33 q 595 -6 661 8 q 454 -21 529 -21 m 431 628 q 281 574 335 628 q 217 411 226 521 l 608 411 q 610 432 610 422 q 610 450 610 442 q 563 584 610 540 q 431 628 515 628 m 274 829 q 217 850 238 829 q 197 906 197 871 q 217 960 197 940 q 274 979 238 979 q 330 960 310 979 q 350 906 350 940 q 330 850 350 871 q 274 829 310 829 m 568 829 q 512 850 532 829 q 492 906 492 871 q 512 960 492 940 q 568 979 532 979 q 624 960 604 979 q 644 906 644 940 q 624 850 644 871 q 568 829 604 829 z "},"ï":{"ha":833,"x_min":107,"x_max":735,"o":"m 107 99 l 367 99 l 367 606 l 154 606 l 154 704 l 490 704 l 490 99 l 735 99 l 735 0 l 107 0 l 107 99 m 221 829 q 165 850 185 829 q 144 906 144 871 q 165 960 144 940 q 221 979 185 979 q 277 960 257 979 q 297 906 297 940 q 277 850 297 871 q 221 829 257 829 m 515 829 q 459 850 479 829 q 439 906 439 871 q 459 960 439 940 q 515 979 479 979 q 572 960 551 979 q 592 906 592 940 q 572 850 592 871 q 515 829 551 829 z "},"ö":{"ha":833,"x_min":79,"x_max":754,"o":"m 417 -21 q 169 76 258 -21 q 79 351 79 174 q 169 627 79 531 q 417 724 258 724 q 665 627 575 724 q 754 351 754 531 q 665 76 754 174 q 417 -21 575 -21 m 417 81 q 574 147 521 81 q 628 351 628 214 q 574 556 628 490 q 417 622 521 622 q 259 556 313 622 q 206 351 206 490 q 259 147 206 214 q 417 81 313 81 m 269 829 q 213 850 233 829 q 193 906 193 871 q 213 960 193 940 q 269 979 233 979 q 326 960 306 979 q 346 906 346 940 q 326 850 346 871 q 269 829 306 829 m 564 829 q 508 850 528 829 q 488 906 488 871 q 508 960 488 940 q 564 979 528 979 q 620 960 600 979 q 640 906 640 940 q 620 850 640 871 q 564 829 600 829 z "},"ü":{"ha":833,"x_min":114,"x_max":719,"o":"m 719 0 l 615 0 l 603 79 q 321 -21 467 -21 q 167 33 221 -21 q 114 189 114 86 l 114 704 l 238 704 l 238 232 q 269 117 238 153 q 368 82 300 82 q 485 101 428 82 q 596 156 542 119 l 596 704 l 719 704 l 719 0 m 269 829 q 213 850 233 829 q 193 906 193 871 q 213 960 193 940 q 269 979 233 979 q 326 960 306 979 q 346 906 346 940 q 326 850 346 871 q 269 829 306 829 m 564 829 q 508 850 528 829 q 488 906 488 871 q 508 960 488 940 q 564 979 528 979 q 620 960 600 979 q 640 906 640 940 q 620 850 640 871 q 564 829 600 829 z "},"ẅ":{"ha":833,"x_min":28,"x_max":806,"o":"m 532 0 l 415 454 l 299 0 l 174 0 l 28 704 l 154 704 l 247 133 l 365 571 l 474 571 l 590 117 l 683 704 l 806 704 l 657 0 l 532 0 m 269 829 q 213 850 233 829 q 193 906 193 871 q 213 960 193 940 q 269 979 233 979 q 326 960 306 979 q 346 906 346 940 q 326 850 346 871 q 269 829 306 829 m 564 829 q 508 850 528 829 q 488 906 488 871 q 508 960 488 940 q 564 979 528 979 q 620 960 600 979 q 640 906 640 940 q 620 850 640 871 q 564 829 600 829 z "},"ÿ":{"ha":833,"x_min":65,"x_max":768,"o":"m 197 -203 q 278 -178 249 -203 q 331 -89 307 -154 l 357 -17 l 65 704 l 196 704 l 417 96 l 640 704 l 768 704 l 431 -128 q 345 -262 393 -221 q 221 -303 297 -303 q 118 -283 165 -303 l 118 -194 q 197 -203 157 -203 m 269 829 q 213 850 233 829 q 193 906 193 871 q 213 960 193 940 q 269 979 233 979 q 326 960 306 979 q 346 906 346 940 q 326 850 346 871 q 269 829 306 829 m 564 829 q 508 850 528 829 q 488 906 488 871 q 508 960 488 940 q 564 979 528 979 q 620 960 600 979 q 640 906 640 940 q 620 850 640 871 q 564 829 600 829 z "},"ă":{"ha":833,"x_min":115,"x_max":690,"o":"m 335 -18 q 175 38 235 -18 q 115 188 115 94 q 188 350 115 290 q 385 410 261 410 q 476 402 429 410 q 572 382 524 394 l 572 483 q 535 592 572 561 q 410 622 499 622 q 290 611 354 622 q 163 579 226 600 l 163 671 q 219 693 188 683 q 287 710 251 703 q 359 720 322 717 q 431 724 396 724 q 627 670 564 724 q 690 506 690 617 l 690 0 l 588 0 l 576 74 q 460 6 522 29 q 335 -18 397 -18 m 363 78 q 464 97 410 78 q 572 150 518 115 l 572 306 q 410 325 486 325 q 238 193 238 325 q 269 108 238 138 q 363 78 301 78 m 426 832 q 278 877 328 832 q 229 1000 229 922 q 233 1039 229 1022 l 315 1039 l 318 1004 q 348 938 322 958 q 426 917 374 917 q 505 938 479 917 q 535 1004 531 958 l 538 1039 l 619 1039 q 624 1000 624 1022 q 574 877 624 922 q 426 832 525 832 z "},"ĕ":{"ha":833,"x_min":97,"x_max":721,"o":"m 454 -21 q 189 73 281 -21 q 97 353 97 167 q 186 627 97 531 q 433 724 275 724 q 644 651 568 724 q 721 440 721 578 q 718 379 721 411 q 711 325 715 347 l 217 325 q 285 138 224 194 q 469 81 346 81 q 592 92 529 81 q 707 124 654 103 l 707 33 q 595 -6 661 8 q 454 -21 529 -21 m 431 628 q 281 574 335 628 q 217 411 226 521 l 608 411 q 610 432 610 422 q 610 450 610 442 q 563 584 610 540 q 431 628 515 628 m 421 832 q 273 877 322 832 q 224 1000 224 922 q 228 1039 224 1022 l 310 1039 l 313 1004 q 342 938 317 958 q 421 917 368 917 q 499 938 474 917 q 529 1004 525 958 l 532 1039 l 614 1039 q 618 1000 618 1022 q 569 877 618 922 q 421 832 519 832 z "},"ğ":{"ha":833,"x_min":82,"x_max":713,"o":"m 376 -303 q 139 -247 244 -303 l 139 -157 q 367 -201 264 -201 q 537 -146 483 -201 q 590 33 590 -90 l 590 97 q 489 34 546 57 q 374 11 432 11 q 251 35 306 11 q 160 106 197 60 q 102 216 122 151 q 82 361 82 281 q 103 512 82 444 q 162 626 124 579 q 254 698 200 672 q 376 724 308 724 q 597 635 501 724 l 608 704 l 713 704 l 713 40 q 626 -215 713 -126 q 376 -303 539 -303 m 407 113 q 494 129 447 113 q 590 182 542 146 l 590 554 q 499 607 544 590 q 400 624 453 624 q 208 367 208 624 q 260 177 208 242 q 407 113 311 113 m 421 832 q 273 877 322 832 q 224 1000 224 922 q 228 1039 224 1022 l 310 1039 l 313 1004 q 342 938 317 958 q 421 917 368 917 q 499 938 474 917 q 529 1004 525 958 l 532 1039 l 614 1039 q 618 1000 618 1022 q 569 877 618 922 q 421 832 519 832 z "},"ĭ":{"ha":833,"x_min":107,"x_max":735,"o":"m 107 99 l 367 99 l 367 606 l 154 606 l 154 704 l 490 704 l 490 99 l 735 99 l 735 0 l 107 0 l 107 99 m 368 832 q 220 877 269 832 q 171 1000 171 922 q 175 1039 171 1022 l 257 1039 l 260 1004 q 290 938 264 958 q 368 917 315 917 q 447 938 421 917 q 476 1004 472 958 l 479 1039 l 561 1039 q 565 1000 565 1022 q 516 877 565 922 q 368 832 467 832 z "},"ŏ":{"ha":833,"x_min":79,"x_max":754,"o":"m 417 -21 q 169 76 258 -21 q 79 351 79 174 q 169 627 79 531 q 417 724 258 724 q 665 627 575 724 q 754 351 754 531 q 665 76 754 174 q 417 -21 575 -21 m 417 81 q 574 147 521 81 q 628 351 628 214 q 574 556 628 490 q 417 622 521 622 q 259 556 313 622 q 206 351 206 490 q 259 147 206 214 q 417 81 313 81 m 417 832 q 269 877 318 832 q 219 1000 219 922 q 224 1039 219 1022 l 306 1039 l 308 1004 q 338 938 313 958 q 417 917 364 917 q 495 938 469 917 q 525 1004 521 958 l 528 1039 l 610 1039 q 614 1000 614 1022 q 565 877 614 922 q 417 832 515 832 z "},"ŭ":{"ha":833,"x_min":114,"x_max":719,"o":"m 719 0 l 615 0 l 603 79 q 321 -21 467 -21 q 167 33 221 -21 q 114 189 114 86 l 114 704 l 238 704 l 238 232 q 269 117 238 153 q 368 82 300 82 q 485 101 428 82 q 596 156 542 119 l 596 704 l 719 704 l 719 0 m 417 832 q 269 877 318 832 q 219 1000 219 922 q 224 1039 219 1022 l 306 1039 l 308 1004 q 338 938 313 958 q 417 917 364 917 q 495 938 469 917 q 525 1004 521 958 l 528 1039 l 610 1039 q 614 1000 614 1022 q 565 877 614 922 q 417 832 515 832 z "},"̇":{"ha":833,"x_min":338,"x_max":496,"o":"m 417 833 q 359 855 381 833 q 338 913 338 876 q 359 969 338 949 q 417 990 381 990 q 474 969 453 990 q 496 913 496 949 q 474 855 496 876 q 417 833 453 833 z "},"˙":{"ha":833,"x_min":338,"x_max":496,"o":"m 417 833 q 359 855 381 833 q 338 913 338 876 q 359 969 338 949 q 417 990 381 990 q 474 969 453 990 q 496 913 496 949 q 474 855 496 876 q 417 833 453 833 z "},"Ė":{"ha":833,"x_min":140,"x_max":722,"o":"m 140 963 l 722 963 l 722 858 l 268 858 l 268 549 l 643 549 l 643 444 l 268 444 l 268 104 l 722 104 l 722 0 l 140 0 l 140 963 m 425 1083 q 366 1105 388 1083 q 344 1164 344 1126 q 366 1222 344 1200 q 425 1243 388 1243 q 484 1222 463 1243 q 506 1164 506 1200 q 484 1105 506 1126 q 425 1083 463 1083 z "},"İ":{"ha":833,"x_min":144,"x_max":689,"o":"m 479 858 l 479 104 l 689 104 l 689 0 l 144 0 l 144 104 l 354 104 l 354 858 l 144 858 l 144 963 l 689 963 l 689 858 l 479 858 m 417 1083 q 358 1105 379 1083 q 336 1164 336 1126 q 358 1222 336 1200 q 417 1243 379 1243 q 476 1222 454 1243 q 497 1164 497 1200 q 476 1105 497 1126 q 417 1083 454 1083 z "},"Ċ":{"ha":833,"x_min":82,"x_max":735,"o":"m 735 35 q 631 -1 690 11 q 514 -14 572 -14 q 191 105 300 -14 q 82 478 82 224 q 193 853 82 732 q 514 974 304 974 q 624 963 568 974 q 724 931 679 951 l 724 828 q 619 855 672 847 q 524 863 567 863 q 292 774 371 863 q 214 496 214 686 l 214 463 q 294 186 214 275 q 526 97 374 97 q 632 107 578 97 q 735 138 686 117 l 735 35 m 482 1083 q 423 1105 444 1083 q 401 1164 401 1126 q 423 1222 401 1200 q 482 1243 444 1243 q 541 1222 519 1243 q 563 1164 563 1200 q 541 1105 563 1126 q 482 1083 519 1083 z "},"Ġ":{"ha":833,"x_min":81,"x_max":749,"o":"m 482 96 q 631 119 563 96 l 631 403 l 436 403 l 436 507 l 749 507 l 749 50 q 689 23 722 35 q 619 3 656 11 q 544 -10 582 -6 q 471 -15 506 -15 q 181 107 282 -15 q 81 475 81 229 q 185 848 81 721 q 481 975 290 975 q 605 961 543 975 q 715 919 667 947 l 715 817 q 600 852 658 840 q 494 864 542 864 q 285 774 357 864 q 213 493 213 683 l 213 463 q 281 182 213 268 q 482 96 350 96 m 468 1083 q 409 1105 431 1083 q 388 1164 388 1126 q 409 1222 388 1200 q 468 1243 431 1243 q 527 1222 506 1243 q 549 1164 549 1200 q 527 1105 549 1126 q 468 1083 506 1083 z "},"Ż":{"ha":833,"x_min":76,"x_max":729,"o":"m 76 0 l 76 101 l 594 856 l 108 856 l 108 963 l 729 963 l 729 861 l 211 107 l 728 107 l 728 0 l 76 0 m 426 1083 q 367 1105 389 1083 q 346 1164 346 1126 q 367 1222 346 1200 q 426 1243 389 1243 q 485 1222 464 1243 q 507 1164 507 1200 q 485 1105 507 1126 q 426 1083 464 1083 z "},"ė":{"ha":833,"x_min":97,"x_max":721,"o":"m 454 -21 q 189 73 281 -21 q 97 353 97 167 q 186 627 97 531 q 433 724 275 724 q 644 651 568 724 q 721 440 721 578 q 718 379 721 411 q 711 325 715 347 l 217 325 q 285 138 224 194 q 469 81 346 81 q 592 92 529 81 q 707 124 654 103 l 707 33 q 595 -6 661 8 q 454 -21 529 -21 m 431 628 q 281 574 335 628 q 217 411 226 521 l 608 411 q 610 432 610 422 q 610 450 610 442 q 563 584 610 540 q 431 628 515 628 m 421 833 q 363 855 385 833 q 342 913 342 876 q 363 969 342 949 q 421 990 385 990 q 478 969 457 990 q 500 913 500 949 q 478 855 500 876 q 421 833 457 833 z "},"ċ":{"ha":833,"x_min":115,"x_max":714,"o":"m 242 344 q 306 146 242 206 q 506 86 371 86 q 607 99 553 86 q 714 136 661 111 l 714 43 q 612 1 671 17 q 483 -15 553 -15 q 204 77 293 -15 q 115 347 115 169 q 210 624 115 529 q 482 718 304 718 q 612 701 551 718 q 707 663 672 685 l 707 571 q 614 601 671 586 q 494 617 557 617 q 305 556 368 617 q 242 358 242 496 l 242 344 m 460 833 q 402 855 424 833 q 381 913 381 876 q 402 969 381 949 q 460 990 424 990 q 517 969 496 990 q 539 913 539 949 q 517 855 539 876 q 460 833 496 833 z "},"ġ":{"ha":833,"x_min":82,"x_max":713,"o":"m 376 -303 q 139 -247 244 -303 l 139 -157 q 367 -201 264 -201 q 537 -146 483 -201 q 590 33 590 -90 l 590 97 q 489 34 546 57 q 374 11 432 11 q 251 35 306 11 q 160 106 197 60 q 102 216 122 151 q 82 361 82 281 q 103 512 82 444 q 162 626 124 579 q 254 698 200 672 q 376 724 308 724 q 597 635 501 724 l 608 704 l 713 704 l 713 40 q 626 -215 713 -126 q 376 -303 539 -303 m 407 113 q 494 129 447 113 q 590 182 542 146 l 590 554 q 499 607 544 590 q 400 624 453 624 q 208 367 208 624 q 260 177 208 242 q 407 113 311 113 m 421 833 q 363 855 385 833 q 342 913 342 876 q 363 969 342 949 q 421 990 385 990 q 478 969 457 990 q 500 913 500 949 q 478 855 500 876 q 421 833 457 833 z "},"ż":{"ha":833,"x_min":115,"x_max":721,"o":"m 115 97 l 575 606 l 129 606 l 129 704 l 717 704 l 717 607 l 256 99 l 721 99 l 721 0 l 115 0 l 115 97 m 422 833 q 365 855 386 833 q 343 913 343 876 q 365 969 343 949 q 422 990 386 990 q 480 969 458 990 q 501 913 501 949 q 480 855 501 876 q 422 833 458 833 z "},"̊":{"ha":833,"x_min":257,"x_max":576,"o":"m 417 813 q 303 850 349 813 q 257 958 257 888 q 303 1065 257 1028 q 417 1103 349 1103 q 531 1065 485 1103 q 576 958 576 1028 q 531 850 576 888 q 417 813 485 813 m 417 881 q 471 901 451 881 q 490 958 490 921 q 471 1015 490 994 q 417 1035 451 1035 q 363 1015 382 1035 q 343 958 343 994 q 363 901 343 921 q 417 881 382 881 z "},"˚":{"ha":833,"x_min":257,"x_max":576,"o":"m 417 813 q 303 850 349 813 q 257 958 257 888 q 303 1065 257 1028 q 417 1103 349 1103 q 531 1065 485 1103 q 576 958 576 1028 q 531 850 576 888 q 417 813 485 813 m 417 881 q 471 901 451 881 q 490 958 490 921 q 471 1015 490 994 q 417 1035 451 1035 q 363 1015 382 1035 q 343 958 343 994 q 363 901 343 921 q 417 881 382 881 z "},"Å":{"ha":833,"x_min":33,"x_max":799,"o":"m 346 963 l 486 963 l 799 0 l 669 0 l 592 254 l 235 254 l 158 0 l 33 0 l 346 963 m 265 358 l 560 358 l 413 844 l 265 358 m 415 1025 q 308 1059 351 1025 q 265 1158 265 1093 q 308 1258 265 1224 q 415 1292 351 1292 q 522 1258 479 1292 q 565 1158 565 1224 q 522 1059 565 1093 q 415 1025 479 1025 m 415 1090 q 465 1108 447 1090 q 483 1158 483 1126 q 465 1209 483 1192 q 415 1226 447 1226 q 365 1209 383 1226 q 347 1158 347 1192 q 365 1108 347 1126 q 415 1090 383 1090 z "},"Ů":{"ha":833,"x_min":88,"x_max":746,"o":"m 618 963 l 746 963 l 746 343 q 663 69 746 161 q 417 -22 581 -22 q 170 69 253 -22 q 88 343 88 161 l 88 963 l 215 963 l 215 328 q 267 149 215 208 q 417 89 318 89 q 567 149 515 89 q 618 328 618 208 l 618 963 m 417 1025 q 310 1059 353 1025 q 267 1158 267 1093 q 310 1258 267 1224 q 417 1292 353 1292 q 524 1258 481 1292 q 567 1158 567 1224 q 524 1059 567 1093 q 417 1025 481 1025 m 417 1090 q 467 1108 449 1090 q 485 1158 485 1126 q 467 1209 485 1192 q 417 1226 449 1226 q 367 1209 385 1226 q 349 1158 349 1192 q 367 1108 349 1126 q 417 1090 385 1090 z "},"Ǻ":{"ha":833,"x_min":33,"x_max":799,"o":"m 563 1000 q 548 937 563 964 q 508 892 533 910 l 799 0 l 669 0 l 592 254 l 235 254 l 158 0 l 33 0 l 322 889 q 278 933 294 906 q 263 1000 263 960 q 306 1100 263 1065 q 413 1135 349 1135 q 519 1100 476 1135 q 563 1000 563 1065 m 265 358 l 560 358 l 413 844 l 265 358 m 349 1182 l 481 1351 l 636 1351 l 461 1182 l 349 1182 m 413 932 q 463 950 444 932 q 481 1000 481 968 q 463 1051 481 1033 q 413 1068 444 1068 q 363 1051 381 1068 q 344 1000 344 1033 q 363 950 344 968 q 413 932 381 932 z "},"å":{"ha":833,"x_min":115,"x_max":690,"o":"m 335 -18 q 175 38 235 -18 q 115 188 115 94 q 188 350 115 290 q 385 410 261 410 q 476 402 429 410 q 572 382 524 394 l 572 483 q 535 592 572 561 q 410 622 499 622 q 290 611 354 622 q 163 579 226 600 l 163 671 q 219 693 188 683 q 287 710 251 703 q 359 720 322 717 q 431 724 396 724 q 627 670 564 724 q 690 506 690 617 l 690 0 l 588 0 l 576 74 q 460 6 522 29 q 335 -18 397 -18 m 363 78 q 464 97 410 78 q 572 150 518 115 l 572 306 q 410 325 486 325 q 238 193 238 325 q 269 108 238 138 q 363 78 301 78 m 426 813 q 313 850 358 813 q 267 958 267 888 q 313 1065 267 1028 q 426 1103 358 1103 q 540 1065 494 1103 q 586 958 586 1028 q 540 850 586 888 q 426 813 494 813 m 426 881 q 481 901 461 881 q 500 958 500 921 q 481 1015 500 994 q 426 1035 461 1035 q 372 1015 392 1035 q 353 958 353 994 q 372 901 353 921 q 426 881 392 881 z "},"ů":{"ha":833,"x_min":114,"x_max":719,"o":"m 719 0 l 615 0 l 603 79 q 321 -21 467 -21 q 167 33 221 -21 q 114 189 114 86 l 114 704 l 238 704 l 238 232 q 269 117 238 153 q 368 82 300 82 q 485 101 428 82 q 596 156 542 119 l 596 704 l 719 704 l 719 0 m 417 813 q 303 850 349 813 q 257 958 257 888 q 303 1065 257 1028 q 417 1103 349 1103 q 531 1065 485 1103 q 576 958 576 1028 q 531 850 576 888 q 417 813 485 813 m 417 881 q 471 901 451 881 q 490 958 490 921 q 471 1015 490 994 q 417 1035 451 1035 q 363 1015 382 1035 q 343 958 343 994 q 363 901 343 921 q 417 881 382 881 z "},"ǻ":{"ha":833,"x_min":115,"x_max":690,"o":"m 335 -18 q 175 38 235 -18 q 115 188 115 94 q 188 350 115 290 q 385 410 261 410 q 476 402 429 410 q 572 382 524 394 l 572 483 q 535 592 572 561 q 410 622 499 622 q 290 611 354 622 q 163 579 226 600 l 163 671 q 219 693 188 683 q 287 710 251 703 q 359 720 322 717 q 431 724 396 724 q 627 670 564 724 q 690 506 690 617 l 690 0 l 588 0 l 576 74 q 460 6 522 29 q 335 -18 397 -18 m 363 78 q 464 97 410 78 q 572 150 518 115 l 572 306 q 410 325 486 325 q 238 193 238 325 q 269 108 238 138 q 363 78 301 78 m 426 808 q 319 843 363 808 q 276 943 276 878 q 319 1042 276 1008 q 426 1076 363 1076 q 533 1042 490 1076 q 576 943 576 1008 q 533 843 576 878 q 426 808 490 808 m 426 875 q 476 892 458 875 q 494 943 494 910 q 476 993 494 975 q 426 1011 458 1011 q 376 993 394 1011 q 358 943 358 975 q 376 892 358 910 q 426 875 394 875 m 363 1125 l 494 1293 l 650 1293 l 475 1125 l 363 1125 z "},"А":{"ha":833,"x_min":33,"x_max":799,"o":"m 346 963 l 486 963 l 799 0 l 669 0 l 592 254 l 235 254 l 158 0 l 33 0 l 346 963 m 265 358 l 560 358 l 413 844 l 265 358 z "},"Б":{"ha":833,"x_min":131,"x_max":743,"o":"m 131 963 l 675 963 l 675 856 l 256 856 l 256 565 l 433 565 q 659 492 575 565 q 743 282 743 418 q 659 73 743 146 q 433 0 575 0 l 131 0 l 131 963 m 256 465 l 256 101 l 431 101 q 568 144 522 101 q 614 282 614 188 q 568 421 614 376 q 431 465 522 465 l 256 465 z "},"В":{"ha":833,"x_min":110,"x_max":758,"o":"m 110 0 l 110 963 l 408 963 q 528 945 474 963 q 622 895 582 928 q 683 815 661 863 q 704 708 704 768 q 671 583 704 633 q 575 504 638 532 q 710 419 663 479 q 758 268 758 360 q 735 156 758 206 q 672 72 713 106 q 574 19 631 38 q 447 0 517 0 l 110 0 m 231 443 l 231 100 l 444 100 q 629 272 629 100 q 582 401 629 358 q 443 443 535 443 l 231 443 m 231 863 l 231 540 l 397 540 q 576 701 576 540 q 400 863 576 863 l 231 863 z "},"Г":{"ha":833,"x_min":167,"x_max":722,"o":"m 167 0 l 167 963 l 722 963 l 722 856 l 294 856 l 294 0 l 167 0 z "},"Д":{"ha":833,"x_min":46,"x_max":772,"o":"m 249 876 l 256 963 l 681 963 l 681 106 l 772 106 l 772 -244 l 660 -244 l 660 0 l 158 0 l 158 -244 l 46 -244 l 46 106 l 94 106 q 149 216 126 153 q 190 369 172 279 q 222 584 208 460 q 249 876 235 708 m 211 106 l 556 106 l 556 858 l 367 858 l 367 847 q 338 540 351 663 q 307 335 324 417 q 267 201 290 253 q 211 106 244 149 z "},"Е":{"ha":833,"x_min":140,"x_max":722,"o":"m 140 963 l 722 963 l 722 858 l 268 858 l 268 549 l 643 549 l 643 444 l 268 444 l 268 104 l 722 104 l 722 0 l 140 0 l 140 963 z "},"Ж":{"ha":833,"x_min":13,"x_max":821,"o":"m 13 0 l 258 503 l 33 963 l 161 963 l 358 515 l 358 963 l 475 963 l 475 515 l 672 963 l 800 963 l 575 503 l 821 0 l 688 0 l 475 475 l 475 0 l 358 0 l 358 475 l 146 0 l 13 0 z "},"З":{"ha":833,"x_min":89,"x_max":736,"o":"m 356 -19 q 219 -6 288 -19 q 89 32 151 7 l 89 135 q 233 101 172 111 q 353 90 294 90 q 607 271 607 90 q 555 399 607 358 q 394 439 503 439 l 228 439 l 228 544 l 357 544 q 581 708 581 544 q 525 832 581 792 q 363 872 469 872 q 249 863 306 872 q 113 826 193 853 l 113 928 q 241 968 172 954 q 376 982 310 982 q 513 964 451 982 q 617 912 574 946 q 685 828 661 878 q 708 717 708 779 q 669 585 708 639 q 560 504 631 532 q 690 417 643 478 q 736 263 736 356 q 708 144 736 197 q 631 56 681 92 q 510 0 581 19 q 356 -19 440 -19 z "},"И":{"ha":833,"x_min":97,"x_max":738,"o":"m 218 0 l 97 0 l 97 963 l 214 963 l 214 193 l 618 963 l 738 963 l 738 0 l 621 0 l 621 769 l 218 0 z "},"К":{"ha":833,"x_min":125,"x_max":793,"o":"m 253 531 l 606 963 l 756 963 l 371 497 l 793 0 l 636 0 l 253 457 l 253 0 l 125 0 l 125 963 l 253 963 l 253 531 z "},"Л":{"ha":833,"x_min":26,"x_max":731,"o":"m 603 0 l 603 858 l 374 858 q 347 547 361 681 q 317 317 333 414 q 279 158 300 221 q 231 58 258 94 q 168 6 203 21 q 89 -10 133 -10 q 26 -1 56 -10 l 26 103 q 42 101 33 101 q 58 100 50 100 q 129 137 100 100 q 180 263 158 174 q 219 501 201 351 q 254 876 236 650 l 261 963 l 731 963 l 731 0 l 603 0 z "},"М":{"ha":833,"x_min":90,"x_max":743,"o":"m 626 0 l 626 814 l 468 363 l 367 363 l 207 785 l 207 0 l 90 0 l 90 963 l 239 963 l 418 469 l 585 963 l 743 963 l 743 0 l 626 0 z "},"Н":{"ha":833,"x_min":103,"x_max":731,"o":"m 103 963 l 231 963 l 231 544 l 603 544 l 603 963 l 731 963 l 731 0 l 603 0 l 603 440 l 231 440 l 231 0 l 103 0 l 103 963 z "},"О":{"ha":833,"x_min":69,"x_max":764,"o":"m 417 872 q 253 774 306 872 q 201 481 201 675 q 253 187 201 286 q 417 88 306 88 q 580 186 528 88 q 632 479 632 285 q 580 773 632 674 q 417 872 528 872 m 417 983 q 567 949 501 983 q 676 851 632 915 q 742 692 719 786 q 764 479 764 599 q 675 108 764 239 q 417 -24 586 -24 q 158 108 247 -24 q 69 481 69 240 q 92 694 69 600 q 158 852 114 788 q 267 950 201 917 q 417 983 332 983 z "},"П":{"ha":833,"x_min":110,"x_max":724,"o":"m 596 0 l 596 858 l 238 858 l 238 0 l 110 0 l 110 963 l 724 963 l 724 0 l 596 0 z "},"Р":{"ha":833,"x_min":135,"x_max":768,"o":"m 258 376 l 258 0 l 135 0 l 135 963 l 465 963 q 590 942 533 963 q 685 884 646 922 q 747 792 725 846 q 768 669 768 738 q 747 549 768 603 q 685 456 725 494 q 590 397 646 418 q 465 376 533 376 l 258 376 m 258 481 l 456 481 q 592 528 546 481 q 639 669 639 575 q 592 813 639 765 q 456 860 546 860 l 258 860 l 258 481 z "},"С":{"ha":833,"x_min":82,"x_max":735,"o":"m 735 35 q 631 -1 690 11 q 514 -14 572 -14 q 191 105 300 -14 q 82 478 82 224 q 193 853 82 732 q 514 974 304 974 q 624 963 568 974 q 724 931 679 951 l 724 828 q 619 855 672 847 q 524 863 567 863 q 292 774 371 863 q 214 496 214 686 l 214 463 q 294 186 214 275 q 526 97 374 97 q 632 107 578 97 q 735 138 686 117 l 735 35 z "},"Т":{"ha":833,"x_min":63,"x_max":771,"o":"m 353 0 l 353 856 l 63 856 l 63 963 l 771 963 l 771 856 l 481 856 l 481 0 l 353 0 z "},"У":{"ha":833,"x_min":24,"x_max":810,"o":"m 165 963 l 442 357 l 672 963 l 810 963 l 490 193 q 377 27 442 75 q 218 -21 313 -21 q 144 -12 183 -21 l 144 93 q 181 90 167 90 q 206 90 194 90 q 308 117 263 90 q 386 226 353 143 l 24 963 l 165 963 z "},"Ф":{"ha":833,"x_min":29,"x_max":801,"o":"m 358 76 q 219 113 281 82 q 116 197 158 144 q 51 322 74 250 q 29 482 29 394 q 51 642 29 569 q 116 767 74 714 q 219 851 158 819 q 358 888 281 882 l 358 1004 l 472 1004 l 472 888 q 611 851 550 882 q 715 767 672 819 q 779 642 757 714 q 801 482 801 569 q 779 322 801 394 q 715 197 757 250 q 611 113 672 144 q 472 76 550 82 l 472 -42 l 358 -42 l 358 76 m 676 482 q 626 699 676 618 q 472 792 576 781 l 472 172 q 626 265 576 183 q 676 482 676 346 m 358 792 q 204 699 254 781 q 154 482 154 618 q 204 265 154 347 q 358 172 254 183 l 358 792 z "},"Х":{"ha":833,"x_min":44,"x_max":788,"o":"m 414 404 l 182 0 l 44 0 l 349 496 l 65 963 l 203 963 l 415 592 l 632 963 l 769 963 l 482 501 l 788 0 l 649 0 l 414 404 z "},"Ц":{"ha":833,"x_min":108,"x_max":789,"o":"m 675 -244 l 675 0 l 108 0 l 108 963 l 236 963 l 236 106 l 569 106 l 569 963 l 697 963 l 697 106 l 789 106 l 789 -244 l 675 -244 z "},"Ч":{"ha":833,"x_min":88,"x_max":726,"o":"m 599 392 q 490 369 544 376 q 382 363 435 363 q 163 425 239 363 q 88 608 88 488 l 88 963 l 215 963 l 215 636 q 263 508 215 547 q 414 468 310 468 q 599 490 510 468 l 599 963 l 726 963 l 726 0 l 599 0 l 599 392 z "},"Ш":{"ha":833,"x_min":49,"x_max":785,"o":"m 49 0 l 49 963 l 168 963 l 168 103 l 357 103 l 357 963 l 476 963 l 476 103 l 665 103 l 665 963 l 785 963 l 785 0 l 49 0 z "},"Щ":{"ha":833,"x_min":79,"x_max":815,"o":"m 707 -244 l 707 0 l 79 0 l 79 963 l 196 963 l 196 100 l 351 100 l 351 963 l 468 963 l 468 100 l 624 100 l 624 963 l 740 963 l 740 100 l 815 100 l 815 -244 l 707 -244 z "},"Ъ":{"ha":833,"x_min":21,"x_max":782,"o":"m 254 856 l 21 856 l 21 963 l 382 963 l 382 575 l 524 575 q 713 498 644 575 q 782 288 782 421 q 713 77 782 154 q 524 0 644 0 l 254 0 l 254 856 m 382 104 l 514 104 q 619 149 585 104 q 653 288 653 193 q 514 471 653 471 l 382 471 l 382 104 z "},"Ы":{"ha":833,"x_min":49,"x_max":785,"o":"m 49 963 l 176 963 l 176 575 l 283 575 q 473 498 404 575 q 542 288 542 421 q 473 77 542 154 q 283 0 404 0 l 49 0 l 49 963 m 657 963 l 785 963 l 785 0 l 657 0 l 657 963 m 176 471 l 176 104 l 274 104 q 378 149 344 104 q 413 288 413 193 q 274 471 413 471 l 176 471 z "},"Ь":{"ha":833,"x_min":100,"x_max":763,"o":"m 228 572 l 451 572 q 578 553 521 572 q 676 498 635 535 q 740 408 717 461 q 763 286 763 354 q 740 164 763 217 q 676 74 717 111 q 578 19 635 38 q 451 0 521 0 l 100 0 l 100 963 l 228 963 l 228 572 m 228 471 l 228 101 l 446 101 q 587 146 540 101 q 633 286 633 190 q 587 426 633 382 q 446 471 540 471 l 228 471 z "},"Э":{"ha":833,"x_min":81,"x_max":753,"o":"m 319 -17 q 81 29 189 -17 l 81 132 q 307 97 207 97 q 542 178 467 97 q 619 439 617 258 l 210 439 l 210 544 l 618 544 q 534 787 611 711 q 300 863 457 863 q 96 831 204 863 l 96 933 q 201 965 142 953 q 314 976 261 976 q 644 851 535 976 q 753 479 753 726 q 319 -17 753 -17 z "},"Ю":{"ha":833,"x_min":58,"x_max":799,"o":"m 556 -21 q 451 4 496 -21 q 376 85 407 29 q 330 228 346 140 q 313 442 314 317 l 178 442 l 178 0 l 58 0 l 58 963 l 178 963 l 178 542 l 313 542 q 333 744 317 660 q 380 880 350 828 q 453 956 410 932 q 556 981 497 981 q 663 953 617 981 q 738 867 708 926 q 783 712 768 807 q 799 481 799 617 q 783 249 799 344 q 738 93 768 153 q 663 6 708 33 q 556 -21 617 -21 m 554 878 q 497 856 521 878 q 459 787 474 835 q 438 663 444 739 q 431 479 431 588 q 438 296 431 371 q 459 173 444 221 q 497 103 474 125 q 554 82 521 82 q 611 103 588 82 q 649 173 635 125 q 671 297 664 221 q 678 481 678 372 q 671 664 678 589 q 649 787 664 739 q 611 856 635 835 q 554 878 588 878 z "},"Я":{"ha":833,"x_min":53,"x_max":706,"o":"m 453 383 q 418 383 435 383 q 386 386 401 383 l 192 0 l 53 0 l 272 418 q 197 467 228 438 q 145 530 165 496 q 116 601 125 564 q 107 676 107 639 q 129 797 107 743 q 191 887 151 850 q 287 943 231 924 q 410 963 343 963 l 706 963 l 706 0 l 582 0 l 582 383 l 453 383 m 582 860 l 419 860 q 282 813 328 860 q 236 676 236 767 q 285 533 236 581 q 426 486 335 486 l 582 486 l 582 860 z "},"а":{"ha":833,"x_min":115,"x_max":690,"o":"m 335 -18 q 175 38 235 -18 q 115 188 115 94 q 188 350 115 290 q 385 410 261 410 q 476 402 429 410 q 572 382 524 394 l 572 483 q 535 592 572 561 q 410 622 499 622 q 290 611 354 622 q 163 579 226 600 l 163 671 q 219 693 188 683 q 287 710 251 703 q 359 720 322 717 q 431 724 396 724 q 627 670 564 724 q 690 506 690 617 l 690 0 l 588 0 l 576 74 q 460 6 522 29 q 335 -18 397 -18 m 363 78 q 464 97 410 78 q 572 150 518 115 l 572 306 q 410 325 486 325 q 238 193 238 325 q 269 108 238 138 q 363 78 301 78 z "},"б":{"ha":833,"x_min":92,"x_max":757,"o":"m 429 -21 q 174 83 256 -21 q 92 408 92 186 q 113 655 92 551 q 179 828 133 758 q 298 939 225 899 q 475 997 371 979 l 703 1036 l 703 924 l 481 888 q 367 858 414 876 q 290 806 319 840 q 243 715 260 772 q 221 571 226 658 q 343 633 274 608 q 475 657 413 657 q 757 325 757 657 q 734 181 757 244 q 669 72 711 117 q 565 3 626 26 q 429 -21 504 -21 m 453 558 q 331 538 394 558 q 217 485 268 518 l 217 407 q 269 157 217 233 q 429 81 321 81 q 576 145 521 81 q 631 325 631 210 q 585 503 631 447 q 453 558 540 558 z "},"в":{"ha":833,"x_min":150,"x_max":733,"o":"m 150 704 l 475 704 q 566 691 525 704 q 636 653 607 678 q 682 593 665 628 q 699 517 699 558 q 673 426 699 464 q 601 368 647 388 q 699 306 664 349 q 733 197 733 264 q 667 53 733 106 q 490 0 600 0 l 150 0 l 150 704 m 271 314 l 271 94 l 485 94 q 610 206 610 94 q 578 288 610 263 q 485 314 547 314 l 271 314 m 271 610 l 271 404 l 460 404 q 575 507 575 404 q 461 610 575 610 l 271 610 z "},"г":{"ha":833,"x_min":194,"x_max":714,"o":"m 194 0 l 194 704 l 714 704 l 714 601 l 318 601 l 318 0 l 194 0 z "},"д":{"ha":833,"x_min":67,"x_max":744,"o":"m 67 100 l 115 100 q 160 166 139 126 q 200 266 182 206 q 233 410 218 326 q 257 608 247 494 l 265 704 l 657 704 l 657 100 l 744 100 l 744 -228 l 636 -228 l 636 0 l 175 0 l 175 -228 l 67 -228 l 67 100 m 369 606 q 344 401 358 486 q 313 258 331 317 q 276 161 296 199 q 236 100 257 124 l 535 100 l 535 606 l 369 606 z "},"е":{"ha":833,"x_min":97,"x_max":721,"o":"m 454 -21 q 189 73 281 -21 q 97 353 97 167 q 186 627 97 531 q 433 724 275 724 q 644 651 568 724 q 721 440 721 578 q 718 379 721 411 q 711 325 715 347 l 217 325 q 285 138 224 194 q 469 81 346 81 q 592 92 529 81 q 707 124 654 103 l 707 33 q 595 -6 661 8 q 454 -21 529 -21 m 431 628 q 281 574 335 628 q 217 411 226 521 l 608 411 q 610 432 610 422 q 610 450 610 442 q 563 584 610 540 q 431 628 515 628 z "},"ж":{"ha":833,"x_min":10,"x_max":824,"o":"m 10 0 l 261 358 l 28 704 l 156 704 l 360 372 l 360 704 l 474 704 l 474 372 l 678 704 l 806 704 l 571 358 l 824 0 l 690 0 l 474 333 l 474 0 l 360 0 l 360 333 l 143 0 l 10 0 z "},"з":{"ha":833,"x_min":117,"x_max":704,"o":"m 681 524 q 654 435 681 478 q 563 368 628 392 q 672 298 639 347 q 704 192 704 249 q 614 35 704 92 q 367 -21 524 -21 q 238 -8 301 -21 q 117 31 174 6 l 117 121 q 253 88 197 97 q 364 78 308 78 q 531 108 478 78 q 585 201 585 139 q 538 286 585 258 q 382 314 490 314 l 247 314 l 247 403 l 360 403 q 514 431 467 403 q 561 514 561 460 q 516 599 561 572 q 368 625 471 625 q 260 615 314 625 q 140 585 206 604 l 140 675 q 259 711 194 699 q 383 724 324 724 q 603 672 526 724 q 681 524 681 619 z "},"и":{"ha":833,"x_min":111,"x_max":722,"o":"m 231 164 l 601 704 l 722 704 l 722 0 l 603 0 l 603 540 l 232 0 l 111 0 l 111 704 l 231 704 l 231 164 z "},"к":{"ha":833,"x_min":143,"x_max":779,"o":"m 143 0 l 143 704 l 267 704 l 267 381 l 603 704 l 757 704 l 390 356 l 779 0 l 611 0 l 267 325 l 267 0 l 143 0 z "},"л":{"ha":833,"x_min":63,"x_max":703,"o":"m 579 0 l 579 606 l 347 606 q 317 313 335 431 q 272 124 299 196 q 205 21 244 51 q 111 -10 165 -10 q 89 -9 100 -10 q 63 -7 78 -8 l 63 97 l 81 97 q 135 121 111 97 q 178 206 160 144 q 210 373 197 268 q 235 640 224 478 l 239 704 l 703 704 l 703 0 l 579 0 z "},"м":{"ha":833,"x_min":88,"x_max":746,"o":"m 636 0 l 636 543 l 468 144 l 365 144 l 197 543 l 197 0 l 88 0 l 88 704 l 225 704 l 418 247 l 613 704 l 746 704 l 746 0 l 636 0 z "},"н":{"ha":833,"x_min":114,"x_max":718,"o":"m 594 0 l 594 311 l 238 311 l 238 0 l 114 0 l 114 704 l 238 704 l 238 410 l 594 410 l 594 704 l 718 704 l 718 0 l 594 0 z "},"о":{"ha":833,"x_min":79,"x_max":754,"o":"m 417 -21 q 169 76 258 -21 q 79 351 79 174 q 169 627 79 531 q 417 724 258 724 q 665 627 575 724 q 754 351 754 531 q 665 76 754 174 q 417 -21 575 -21 m 417 81 q 574 147 521 81 q 628 351 628 214 q 574 556 628 490 q 417 622 521 622 q 259 556 313 622 q 206 351 206 490 q 259 147 206 214 q 417 81 313 81 z "},"п":{"ha":833,"x_min":122,"x_max":711,"o":"m 588 0 l 588 606 l 246 606 l 246 0 l 122 0 l 122 704 l 711 704 l 711 0 l 588 0 z "},"р":{"ha":833,"x_min":114,"x_max":747,"o":"m 446 -21 q 338 -4 390 -21 q 238 49 286 13 l 238 -286 l 114 -286 l 114 704 l 218 704 l 229 631 q 331 697 275 671 q 454 724 386 724 q 669 627 592 724 q 747 361 747 531 q 726 206 747 276 q 667 85 706 136 q 572 7 628 35 q 446 -21 515 -21 m 425 622 q 238 551 329 622 l 238 140 q 327 94 282 108 q 421 81 372 81 q 570 149 519 81 q 621 354 621 218 q 570 557 621 492 q 425 622 519 622 z "},"с":{"ha":833,"x_min":115,"x_max":714,"o":"m 242 344 q 306 146 242 206 q 506 86 371 86 q 607 99 553 86 q 714 136 661 111 l 714 43 q 612 1 671 17 q 483 -15 553 -15 q 204 77 293 -15 q 115 347 115 169 q 210 624 115 529 q 482 718 304 718 q 612 701 551 718 q 707 663 672 685 l 707 571 q 614 601 671 586 q 494 617 557 617 q 305 556 368 617 q 242 358 242 496 l 242 344 z "},"т":{"ha":833,"x_min":71,"x_max":761,"o":"m 354 0 l 354 601 l 71 601 l 71 704 l 761 704 l 761 601 l 478 601 l 478 0 l 354 0 z "},"у":{"ha":833,"x_min":65,"x_max":768,"o":"m 197 -203 q 278 -178 249 -203 q 331 -89 307 -154 l 357 -17 l 65 704 l 196 704 l 417 96 l 640 704 l 768 704 l 431 -128 q 345 -262 393 -221 q 221 -303 297 -303 q 118 -283 165 -303 l 118 -194 q 197 -203 157 -203 z "},"ф":{"ha":833,"x_min":53,"x_max":781,"o":"m 365 -21 q 243 8 300 -17 q 144 81 186 33 q 77 195 101 128 q 53 351 53 263 q 77 508 53 440 q 144 622 101 575 q 243 694 186 669 q 365 724 300 719 l 365 1028 l 468 1028 l 468 724 q 590 694 533 719 q 690 622 647 669 q 756 508 732 575 q 781 351 781 440 q 756 195 781 263 q 690 81 732 128 q 590 8 647 33 q 468 -21 533 -17 l 468 -286 l 365 -286 l 365 -21 m 667 351 q 612 555 667 488 q 468 629 557 622 l 468 74 q 612 148 557 81 q 667 351 667 215 m 167 351 q 222 148 167 215 q 365 74 276 81 l 365 629 q 222 555 276 622 q 167 351 167 488 z "},"х":{"ha":833,"x_min":97,"x_max":736,"o":"m 600 0 l 413 281 l 229 0 l 97 0 l 350 363 l 115 704 l 250 704 l 419 447 l 589 704 l 719 704 l 485 367 l 736 0 l 600 0 z "},"ц":{"ha":833,"x_min":126,"x_max":756,"o":"m 646 -228 l 646 0 l 126 0 l 126 704 l 250 704 l 250 100 l 554 100 l 554 704 l 678 704 l 678 100 l 756 100 l 756 -228 l 646 -228 z "},"ч":{"ha":833,"x_min":100,"x_max":676,"o":"m 553 0 l 553 292 q 440 263 499 272 q 318 253 381 253 q 156 305 211 253 q 100 461 100 357 l 100 704 l 224 704 l 224 496 q 256 385 224 418 q 361 351 288 351 q 456 357 411 351 q 553 378 501 363 l 553 704 l 676 704 l 676 0 l 553 0 z "},"ш":{"ha":833,"x_min":49,"x_max":785,"o":"m 785 704 l 785 0 l 49 0 l 49 704 l 165 704 l 165 94 l 358 94 l 358 704 l 475 704 l 475 94 l 668 94 l 668 704 l 785 704 z "},"щ":{"ha":833,"x_min":94,"x_max":800,"o":"m 725 704 l 725 94 l 800 94 l 800 -228 l 696 -228 l 696 0 l 94 0 l 94 704 l 208 704 l 208 94 l 353 94 l 353 704 l 467 704 l 467 94 l 611 94 l 611 704 l 725 704 z "},"ъ":{"ha":833,"x_min":38,"x_max":781,"o":"m 38 704 l 365 704 l 365 443 l 539 443 q 715 385 650 443 q 781 221 781 326 q 715 58 781 115 q 540 0 649 0 l 244 0 l 244 604 l 38 604 l 38 704 m 365 350 l 365 92 l 529 92 q 658 221 658 92 q 625 318 658 286 q 529 350 592 350 l 365 350 z "},"ы":{"ha":833,"x_min":49,"x_max":785,"o":"m 168 443 l 319 443 q 496 385 431 443 q 561 221 561 326 q 495 58 561 115 q 321 0 429 0 l 49 0 l 49 704 l 168 704 l 168 443 m 661 704 l 785 704 l 785 0 l 661 0 l 661 704 m 168 350 l 168 92 l 311 92 q 440 221 440 92 q 407 318 440 286 q 311 350 374 350 l 168 350 z "},"ь":{"ha":833,"x_min":129,"x_max":746,"o":"m 250 447 l 504 447 q 681 388 615 447 q 746 224 746 329 q 680 59 746 118 q 506 0 614 0 l 129 0 l 129 704 l 250 704 l 250 447 m 250 350 l 250 97 l 493 97 q 622 224 622 97 q 589 319 622 289 q 493 350 556 350 l 250 350 z "},"э":{"ha":833,"x_min":118,"x_max":731,"o":"m 201 404 l 608 404 q 581 508 603 467 q 525 573 560 549 q 442 607 490 597 q 335 617 394 617 q 224 602 275 617 q 125 568 174 588 l 125 660 q 232 702 169 686 q 351 718 294 718 q 638 626 546 718 q 731 353 731 535 q 708 203 731 271 q 640 86 686 135 q 522 11 593 38 q 351 -15 450 -15 q 228 1 292 -15 q 118 46 164 18 l 118 139 q 233 99 174 113 q 344 86 292 86 q 533 138 467 86 q 610 313 600 189 l 201 313 l 201 404 z "},"ю":{"ha":833,"x_min":58,"x_max":799,"o":"m 556 -21 q 379 65 438 -21 q 314 311 321 151 l 175 311 l 175 0 l 58 0 l 58 704 l 175 704 l 175 408 l 315 408 q 383 642 324 560 q 557 724 442 724 q 740 626 681 724 q 799 351 799 528 q 740 76 799 174 q 556 -21 681 -21 m 556 79 q 650 149 622 79 q 678 351 678 218 q 649 554 678 485 q 554 624 621 624 q 460 554 488 624 q 432 351 432 485 q 460 149 432 218 q 556 79 489 79 z "},"я":{"ha":833,"x_min":81,"x_max":696,"o":"m 575 282 l 381 282 l 225 0 l 81 0 l 272 300 q 169 370 207 322 q 131 493 131 418 q 194 648 131 592 q 367 704 257 704 l 696 704 l 696 0 l 575 0 l 575 282 m 254 493 q 289 406 254 436 q 388 376 324 376 l 575 376 l 575 610 l 389 610 q 288 582 322 610 q 254 493 254 554 z "},"Α":{"ha":833,"x_min":33,"x_max":799,"o":"m 346 963 l 486 963 l 799 0 l 669 0 l 592 254 l 235 254 l 158 0 l 33 0 l 346 963 m 265 358 l 560 358 l 413 844 l 265 358 z "},"Β":{"ha":833,"x_min":110,"x_max":758,"o":"m 110 0 l 110 963 l 408 963 q 528 945 474 963 q 622 895 582 928 q 683 815 661 863 q 704 708 704 768 q 671 583 704 633 q 575 504 638 532 q 710 419 663 479 q 758 268 758 360 q 735 156 758 206 q 672 72 713 106 q 574 19 631 38 q 447 0 517 0 l 110 0 m 231 443 l 231 100 l 444 100 q 629 272 629 100 q 582 401 629 358 q 443 443 535 443 l 231 443 m 231 863 l 231 540 l 397 540 q 576 701 576 540 q 400 863 576 863 l 231 863 z "},"Γ":{"ha":833,"x_min":167,"x_max":722,"o":"m 167 0 l 167 963 l 722 963 l 722 856 l 294 856 l 294 0 l 167 0 z "},"Δ":{"ha":833,"x_min":65,"x_max":767,"o":"m 343 963 l 489 963 l 767 107 l 767 0 l 65 0 l 65 107 l 343 963 m 190 107 l 636 107 l 413 846 l 190 107 z "},"Ε":{"ha":833,"x_min":140,"x_max":722,"o":"m 140 963 l 722 963 l 722 858 l 268 858 l 268 549 l 643 549 l 643 444 l 268 444 l 268 104 l 722 104 l 722 0 l 140 0 l 140 963 z "},"Ζ":{"ha":833,"x_min":76,"x_max":729,"o":"m 76 0 l 76 101 l 594 856 l 108 856 l 108 963 l 729 963 l 729 861 l 211 107 l 728 107 l 728 0 l 76 0 z "},"Η":{"ha":833,"x_min":103,"x_max":731,"o":"m 103 963 l 231 963 l 231 544 l 603 544 l 603 963 l 731 963 l 731 0 l 603 0 l 603 440 l 231 440 l 231 0 l 103 0 l 103 963 z "},"Θ":{"ha":833,"x_min":69,"x_max":764,"o":"m 290 433 l 290 538 l 543 538 l 543 433 l 290 433 m 417 872 q 253 774 306 872 q 201 481 201 675 q 253 187 201 286 q 417 88 306 88 q 580 186 528 88 q 632 479 632 285 q 580 773 632 674 q 417 872 528 872 m 417 983 q 567 949 501 983 q 676 851 632 915 q 742 692 719 786 q 764 479 764 599 q 675 108 764 239 q 417 -24 586 -24 q 158 108 247 -24 q 69 481 69 240 q 92 694 69 600 q 158 852 114 788 q 267 950 201 917 q 417 983 332 983 z "},"Ι":{"ha":833,"x_min":144,"x_max":689,"o":"m 479 858 l 479 104 l 689 104 l 689 0 l 144 0 l 144 104 l 354 104 l 354 858 l 144 858 l 144 963 l 689 963 l 689 858 l 479 858 z "},"Κ":{"ha":833,"x_min":125,"x_max":793,"o":"m 253 531 l 606 963 l 756 963 l 369 499 l 793 0 l 633 0 l 253 457 l 253 0 l 125 0 l 125 963 l 253 963 l 253 531 z "},"Λ":{"ha":833,"x_min":36,"x_max":796,"o":"m 660 0 l 414 813 l 168 0 l 36 0 l 347 963 l 485 963 l 796 0 l 660 0 z "},"Μ":{"ha":833,"x_min":90,"x_max":743,"o":"m 626 0 l 626 814 l 468 363 l 367 363 l 207 785 l 207 0 l 90 0 l 90 963 l 239 963 l 418 469 l 585 963 l 743 963 l 743 0 l 626 0 z "},"Ν":{"ha":833,"x_min":97,"x_max":738,"o":"m 214 769 l 214 0 l 97 0 l 97 963 l 217 963 l 621 193 l 621 963 l 738 963 l 738 0 l 617 0 l 214 769 z "},"Ξ":{"ha":833,"x_min":88,"x_max":746,"o":"m 88 0 l 88 111 l 746 111 l 746 0 l 88 0 m 104 851 l 104 963 l 729 963 l 729 851 l 104 851 m 169 435 l 169 546 l 664 546 l 664 435 l 169 435 z "},"Ο":{"ha":833,"x_min":69,"x_max":764,"o":"m 417 872 q 253 774 306 872 q 201 481 201 675 q 253 187 201 286 q 417 88 306 88 q 580 186 528 88 q 632 479 632 285 q 580 773 632 674 q 417 872 528 872 m 417 983 q 567 949 501 983 q 676 851 632 915 q 742 692 719 786 q 764 479 764 599 q 675 108 764 239 q 417 -24 586 -24 q 158 108 247 -24 q 69 481 69 240 q 92 694 69 600 q 158 852 114 788 q 267 950 201 917 q 417 983 332 983 z "},"Π":{"ha":833,"x_min":110,"x_max":724,"o":"m 596 0 l 596 858 l 238 858 l 238 0 l 110 0 l 110 963 l 724 963 l 724 0 l 596 0 z "},"Ρ":{"ha":833,"x_min":135,"x_max":768,"o":"m 258 376 l 258 0 l 135 0 l 135 963 l 465 963 q 590 942 533 963 q 685 884 646 922 q 747 792 725 846 q 768 669 768 738 q 747 549 768 603 q 685 456 725 494 q 590 397 646 418 q 465 376 533 376 l 258 376 m 258 481 l 456 481 q 592 528 546 481 q 639 669 639 575 q 592 813 639 765 q 456 860 546 860 l 258 860 l 258 481 z "},"Σ":{"ha":833,"x_min":83,"x_max":744,"o":"m 254 858 l 522 494 l 231 104 l 744 104 l 744 0 l 83 0 l 83 97 l 378 492 l 103 865 l 103 963 l 732 963 l 732 858 l 254 858 z "},"Τ":{"ha":833,"x_min":63,"x_max":771,"o":"m 353 0 l 353 856 l 63 856 l 63 963 l 771 963 l 771 856 l 481 856 l 481 0 l 353 0 z "},"Υ":{"ha":833,"x_min":21,"x_max":813,"o":"m 353 0 l 353 347 l 21 963 l 163 963 l 418 451 l 675 963 l 813 963 l 481 358 l 481 0 l 353 0 z "},"Φ":{"ha":833,"x_min":29,"x_max":801,"o":"m 358 76 q 219 113 281 82 q 116 197 158 144 q 51 322 74 250 q 29 482 29 394 q 51 642 29 569 q 116 767 74 714 q 219 851 158 819 q 358 888 281 882 l 358 1004 l 472 1004 l 472 888 q 611 851 550 882 q 715 767 672 819 q 779 642 757 714 q 801 482 801 569 q 779 322 801 394 q 715 197 757 250 q 611 113 672 144 q 472 76 550 82 l 472 -42 l 358 -42 l 358 76 m 676 482 q 626 699 676 618 q 472 792 576 781 l 472 172 q 626 265 576 183 q 676 482 676 346 m 358 792 q 204 699 254 781 q 154 482 154 618 q 204 265 154 347 q 358 172 254 183 l 358 792 z "},"Χ":{"ha":833,"x_min":44,"x_max":788,"o":"m 414 404 l 182 0 l 44 0 l 349 496 l 65 963 l 203 963 l 415 592 l 632 963 l 769 963 l 482 501 l 788 0 l 649 0 l 414 404 z "},"Ψ":{"ha":833,"x_min":65,"x_max":768,"o":"m 476 0 l 357 0 l 357 251 q 138 356 211 264 q 65 633 65 449 l 65 963 l 185 963 l 185 626 q 226 429 185 497 q 357 351 267 361 l 357 963 l 476 963 l 476 351 q 608 429 567 361 q 649 626 649 497 l 649 963 l 768 963 l 768 633 q 695 356 768 449 q 476 251 622 264 l 476 0 z "},"Ω":{"ha":833,"x_min":67,"x_max":767,"o":"m 624 524 q 570 785 624 697 q 417 872 517 872 q 263 785 317 872 q 210 524 210 697 q 253 264 210 372 q 363 100 296 156 l 363 0 l 67 0 l 67 100 l 246 100 q 173 179 204 133 q 120 281 142 225 q 88 399 99 336 q 78 526 78 461 q 101 719 78 635 q 169 863 125 804 q 276 952 214 921 q 417 983 339 983 q 557 952 494 983 q 664 863 619 921 q 732 719 708 804 q 756 526 756 635 q 744 399 756 461 q 713 281 733 336 q 660 179 692 225 q 588 100 629 133 l 767 100 l 767 0 l 471 0 l 471 100 q 581 264 538 156 q 624 524 624 372 z "},"Ω":{"ha":833,"x_min":67,"x_max":767,"o":"m 624 524 q 570 785 624 697 q 417 872 517 872 q 263 785 317 872 q 210 524 210 697 q 253 264 210 372 q 363 100 296 156 l 363 0 l 67 0 l 67 100 l 246 100 q 173 179 204 133 q 120 281 142 225 q 88 399 99 336 q 78 526 78 461 q 101 719 78 635 q 169 863 125 804 q 276 952 214 921 q 417 983 339 983 q 557 952 494 983 q 664 863 619 921 q 732 719 708 804 q 756 526 756 635 q 744 399 756 461 q 713 281 733 336 q 660 179 692 225 q 588 100 629 133 l 767 100 l 767 0 l 471 0 l 471 100 q 581 264 538 156 q 624 524 624 372 z "},"α":{"ha":833,"x_min":74,"x_max":792,"o":"m 350 724 q 582 533 513 724 q 599 631 590 592 q 615 704 607 669 l 736 704 l 721 631 q 685 422 696 511 q 674 257 674 332 q 679 162 674 194 q 700 113 685 129 q 747 94 717 94 q 792 99 767 94 l 792 8 q 749 -3 768 1 q 708 -7 729 -7 q 610 32 642 -7 q 571 163 578 71 q 478 27 539 75 q 338 -21 417 -21 q 229 5 278 -21 q 146 78 181 31 q 92 192 111 125 q 74 340 74 258 q 94 494 74 424 q 151 616 115 565 q 238 695 188 667 q 350 724 289 724 m 564 378 q 485 560 536 497 q 365 622 433 622 q 242 549 286 622 q 199 346 199 475 q 242 152 199 224 q 363 81 286 81 q 494 158 442 81 q 564 376 546 236 l 564 378 z "},"β":{"ha":833,"x_min":125,"x_max":760,"o":"m 125 -286 l 125 699 q 208 958 125 869 q 429 1047 292 1047 q 626 979 553 1047 q 699 789 699 911 q 663 644 699 708 q 549 553 628 581 q 708 460 657 529 q 760 288 760 390 q 739 165 760 221 q 680 69 718 110 q 588 7 642 29 q 468 -15 535 -15 q 345 5 403 -15 q 244 60 288 25 l 244 -286 l 125 -286 m 244 147 q 337 101 286 118 q 442 85 388 85 q 588 138 539 85 q 638 285 638 192 q 577 441 638 388 q 401 494 517 494 l 351 494 l 351 589 l 399 589 q 535 641 486 589 q 583 781 583 693 q 540 907 583 863 q 422 951 497 951 q 290 891 336 951 q 244 715 244 831 l 244 147 z "},"γ":{"ha":833,"x_min":51,"x_max":769,"o":"m 183 704 q 319 372 264 525 q 407 83 374 219 q 552 375 494 222 q 642 704 610 528 l 769 704 q 642 313 726 503 q 442 -31 557 122 q 456 -119 450 -74 q 465 -224 461 -165 l 469 -286 l 346 -286 l 343 -219 q 319 -36 336 -129 q 267 166 301 57 q 181 406 233 275 q 51 704 128 538 l 183 704 l 183 704 z "},"δ":{"ha":833,"x_min":92,"x_max":742,"o":"m 418 -21 q 283 3 343 -21 q 181 69 224 26 q 115 174 138 113 q 92 310 92 235 q 153 521 92 431 q 325 654 214 611 q 215 745 247 701 q 183 849 183 789 q 203 931 183 894 q 256 993 222 967 q 338 1033 290 1019 q 444 1047 386 1047 q 560 1034 503 1047 q 661 997 618 1021 l 661 907 q 556 935 613 924 q 449 946 499 946 q 341 923 378 946 q 304 854 304 900 q 310 818 304 835 q 333 785 317 801 q 377 750 349 768 q 451 707 406 732 q 583 624 528 665 q 673 536 638 582 q 725 438 708 490 q 742 324 742 386 q 719 182 742 246 q 653 73 696 118 q 551 3 611 28 q 418 -21 492 -21 m 615 321 q 603 411 615 371 q 566 485 592 451 q 499 550 540 519 q 401 611 458 581 q 218 318 218 532 q 272 143 218 206 q 419 81 325 81 q 565 143 515 81 q 615 321 615 206 z "}}}
